<?xml version="1.0" encoding="UTF-8"?>
<svg xmlns="http://www.w3.org/2000/svg" version="1.1" width="100" height="100" viewBox="0 0 100 100"><rect x="0" y="0" width="100" height="100" fill="#ffffff"/><g transform="scale(3.03)"><g transform="translate(0,0)"><path fill-rule="evenodd" d="M9 0L9 1L8 1L8 3L9 3L9 4L8 4L8 8L6 8L6 9L5 9L5 10L4 10L4 8L3 8L3 9L2 9L2 8L0 8L0 12L1 12L1 15L0 15L0 17L1 17L1 16L2 16L2 18L4 18L4 17L3 17L3 16L5 16L5 17L7 17L7 18L5 18L5 20L6 20L6 21L5 21L5 22L6 22L6 23L7 23L7 24L6 24L6 25L7 25L7 24L8 24L8 23L7 23L7 22L10 22L10 21L12 21L12 19L11 19L11 18L12 18L12 17L11 17L11 16L10 16L10 18L9 18L9 20L8 20L8 19L7 19L7 18L8 18L8 16L9 16L9 14L6 14L6 15L7 15L7 16L5 16L5 15L3 15L3 16L2 16L2 14L3 14L3 11L5 11L5 10L6 10L6 11L11 11L11 13L10 13L10 14L11 14L11 15L12 15L12 16L14 16L14 18L15 18L15 16L16 16L16 15L17 15L17 17L19 17L19 18L18 18L18 19L17 19L17 18L16 18L16 19L14 19L14 20L13 20L13 22L12 22L12 23L11 23L11 24L10 24L10 23L9 23L9 25L8 25L8 27L9 27L9 25L12 25L12 23L13 23L13 25L14 25L14 26L10 26L10 28L9 28L9 29L8 29L8 30L9 30L9 31L8 31L8 33L9 33L9 31L11 31L11 33L12 33L12 31L13 31L13 30L14 30L14 31L15 31L15 28L14 28L14 27L15 27L15 24L16 24L16 25L17 25L17 27L16 27L16 28L17 28L17 29L16 29L16 30L17 30L17 32L16 32L16 33L17 33L17 32L18 32L18 28L19 28L19 29L20 29L20 32L19 32L19 33L20 33L20 32L21 32L21 33L23 33L23 32L24 32L24 33L26 33L26 31L23 31L23 30L22 30L22 31L21 31L21 29L23 29L23 28L24 28L24 29L26 29L26 30L27 30L27 33L28 33L28 32L29 32L29 33L30 33L30 32L29 32L29 31L33 31L33 29L32 29L32 28L33 28L33 27L32 27L32 25L33 25L33 24L32 24L32 25L31 25L31 27L32 27L32 28L31 28L31 30L29 30L29 27L30 27L30 26L29 26L29 25L30 25L30 23L31 23L31 21L32 21L32 23L33 23L33 21L32 21L32 19L33 19L33 18L32 18L32 17L33 17L33 16L32 16L32 14L33 14L33 9L32 9L32 8L30 8L30 9L29 9L29 8L26 8L26 9L25 9L25 4L24 4L24 3L25 3L25 2L24 2L24 1L22 1L22 2L23 2L23 3L22 3L22 4L20 4L20 3L19 3L19 2L18 2L18 1L17 1L17 0L15 0L15 4L14 4L14 5L13 5L13 3L12 3L12 1L13 1L13 2L14 2L14 1L13 1L13 0L12 0L12 1L11 1L11 0ZM9 1L9 2L11 2L11 1ZM17 3L17 4L16 4L16 6L15 6L15 5L14 5L14 6L13 6L13 5L11 5L11 4L9 4L9 5L10 5L10 6L9 6L9 7L10 7L10 8L8 8L8 9L6 9L6 10L10 10L10 8L11 8L11 7L12 7L12 6L13 6L13 8L12 8L12 9L11 9L11 11L12 11L12 13L11 13L11 14L13 14L13 15L16 15L16 13L17 13L17 12L18 12L18 14L19 14L19 15L20 15L20 14L19 14L19 13L20 13L20 12L21 12L21 11L22 11L22 10L23 10L23 12L22 12L22 13L23 13L23 14L24 14L24 16L23 16L23 17L20 17L20 16L19 16L19 17L20 17L20 18L19 18L19 19L18 19L18 20L17 20L17 19L16 19L16 20L17 20L17 21L19 21L19 22L17 22L17 23L16 23L16 21L15 21L15 20L14 20L14 21L15 21L15 23L14 23L14 24L15 24L15 23L16 23L16 24L18 24L18 26L19 26L19 27L20 27L20 28L21 28L21 26L20 26L20 24L19 24L19 22L20 22L20 23L22 23L22 26L23 26L23 27L22 27L22 28L23 28L23 27L24 27L24 26L23 26L23 25L24 25L24 24L25 24L25 23L27 23L27 22L28 22L28 23L29 23L29 20L30 20L30 21L31 21L31 19L30 19L30 18L31 18L31 17L32 17L32 16L31 16L31 15L28 15L28 16L27 16L27 14L28 14L28 13L30 13L30 14L32 14L32 10L31 10L31 11L30 11L30 10L29 10L29 9L27 9L27 10L26 10L26 11L25 11L25 14L24 14L24 9L23 9L23 7L24 7L24 5L23 5L23 4L22 4L22 5L21 5L21 7L22 7L22 9L21 9L21 8L20 8L20 9L19 9L19 8L14 8L14 6L15 6L15 7L16 7L16 6L17 6L17 7L18 7L18 6L19 6L19 7L20 7L20 6L19 6L19 5L20 5L20 4L19 4L19 5L18 5L18 3ZM22 5L22 7L23 7L23 5ZM10 6L10 7L11 7L11 6ZM13 8L13 10L12 10L12 11L13 11L13 13L14 13L14 14L15 14L15 12L14 12L14 11L15 11L15 9L14 9L14 8ZM1 9L1 11L2 11L2 9ZM17 9L17 10L18 10L18 9ZM19 10L19 12L20 12L20 11L21 11L21 10ZM27 10L27 11L26 11L26 14L27 14L27 13L28 13L28 11L29 11L29 10ZM5 12L5 13L4 13L4 14L5 14L5 13L8 13L8 12ZM21 14L21 15L22 15L22 14ZM25 15L25 16L24 16L24 18L25 18L25 19L22 19L22 18L20 18L20 19L19 19L19 21L20 21L20 20L21 20L21 22L22 22L22 23L23 23L23 21L22 21L22 20L24 20L24 21L25 21L25 22L24 22L24 23L25 23L25 22L27 22L27 21L26 21L26 20L27 20L27 19L26 19L26 17L27 17L27 16L26 16L26 15ZM25 16L25 17L26 17L26 16ZM28 16L28 17L29 17L29 18L28 18L28 20L29 20L29 18L30 18L30 17L29 17L29 16ZM0 18L0 21L2 21L2 22L0 22L0 23L1 23L1 24L0 24L0 25L1 25L1 24L2 24L2 23L3 23L3 25L5 25L5 23L4 23L4 22L3 22L3 19L1 19L1 18ZM6 19L6 20L7 20L7 19ZM9 20L9 21L10 21L10 20ZM6 21L6 22L7 22L7 21ZM25 25L25 28L28 28L28 25ZM26 26L26 27L27 27L27 26ZM11 27L11 29L10 29L10 30L11 30L11 31L12 31L12 30L13 30L13 29L14 29L14 28L13 28L13 27ZM11 29L11 30L12 30L12 29ZM22 31L22 32L23 32L23 31ZM13 32L13 33L14 33L14 32ZM31 32L31 33L32 33L32 32ZM0 0L0 7L7 7L7 0ZM1 1L1 6L6 6L6 1ZM2 2L2 5L5 5L5 2ZM26 0L26 7L33 7L33 0ZM27 1L27 6L32 6L32 1ZM28 2L28 5L31 5L31 2ZM0 26L0 33L7 33L7 26ZM1 27L1 32L6 32L6 27ZM2 28L2 31L5 31L5 28Z" fill="#000000"/></g></g></svg>
