<?xml version="1.0" encoding="UTF-8"?>
<svg xmlns="http://www.w3.org/2000/svg" version="1.1" width="100" height="100" viewBox="0 0 100 100"><rect x="0" y="0" width="100" height="100" fill="#ffffff"/><g transform="scale(2.703)"><g transform="translate(0,0)"><path fill-rule="evenodd" d="M8 0L8 1L11 1L11 3L10 3L10 2L9 2L9 3L10 3L10 5L9 5L9 6L8 6L8 8L9 8L9 9L10 9L10 10L11 10L11 9L10 9L10 7L11 7L11 6L12 6L12 9L13 9L13 8L15 8L15 9L14 9L14 11L16 11L16 12L14 12L14 13L12 13L12 14L13 14L13 15L12 15L12 16L10 16L10 15L9 15L9 13L11 13L11 11L9 11L9 10L8 10L8 9L7 9L7 8L6 8L6 9L5 9L5 8L3 8L3 9L2 9L2 8L0 8L0 9L2 9L2 10L0 10L0 12L1 12L1 11L2 11L2 10L4 10L4 9L5 9L5 10L6 10L6 11L7 11L7 12L5 12L5 11L4 11L4 12L3 12L3 13L0 13L0 14L1 14L1 16L0 16L0 17L1 17L1 18L3 18L3 19L1 19L1 21L0 21L0 23L4 23L4 25L3 25L3 24L2 24L2 25L0 25L0 29L1 29L1 27L3 27L3 28L2 28L2 29L3 29L3 28L5 28L5 29L7 29L7 28L6 28L6 27L8 27L8 26L6 26L6 27L3 27L3 26L5 26L5 24L6 24L6 25L7 25L7 24L6 24L6 23L8 23L8 25L9 25L9 28L8 28L8 30L9 30L9 32L8 32L8 34L9 34L9 32L11 32L11 34L10 34L10 35L8 35L8 37L12 37L12 36L13 36L13 35L16 35L16 36L14 36L14 37L17 37L17 36L18 36L18 37L19 37L19 35L18 35L18 34L21 34L21 35L20 35L20 37L22 37L22 36L24 36L24 37L25 37L25 35L27 35L27 37L29 37L29 36L30 36L30 37L31 37L31 35L33 35L33 36L32 36L32 37L34 37L34 36L36 36L36 37L37 37L37 34L36 34L36 35L33 35L33 34L31 34L31 33L34 33L34 31L35 31L35 32L36 32L36 33L37 33L37 28L36 28L36 27L37 27L37 26L36 26L36 25L37 25L37 22L36 22L36 25L35 25L35 26L34 26L34 27L32 27L32 28L31 28L31 26L30 26L30 25L31 25L31 23L32 23L32 22L33 22L33 25L32 25L32 26L33 26L33 25L34 25L34 24L35 24L35 21L37 21L37 18L36 18L36 17L37 17L37 14L34 14L34 12L35 12L35 13L36 13L36 12L37 12L37 10L35 10L35 9L34 9L34 10L33 10L33 9L31 9L31 8L30 8L30 9L31 9L31 11L28 11L28 10L29 10L29 5L28 5L28 7L27 7L27 4L26 4L26 3L28 3L28 4L29 4L29 2L26 2L26 1L28 1L28 0L24 0L24 1L25 1L25 2L24 2L24 3L23 3L23 0L22 0L22 2L21 2L21 1L19 1L19 0L16 0L16 2L15 2L15 1L14 1L14 0L13 0L13 1L12 1L12 0ZM17 1L17 2L16 2L16 3L19 3L19 4L20 4L20 5L19 5L19 7L20 7L20 5L21 5L21 8L20 8L20 10L19 10L19 8L18 8L18 6L17 6L17 4L13 4L13 2L12 2L12 4L13 4L13 5L12 5L12 6L13 6L13 7L14 7L14 5L15 5L15 8L16 8L16 9L17 9L17 10L18 10L18 11L19 11L19 12L16 12L16 15L15 15L15 13L14 13L14 15L13 15L13 16L14 16L14 15L15 15L15 17L17 17L17 19L16 19L16 21L17 21L17 22L16 22L16 23L18 23L18 24L16 24L16 26L18 26L18 27L17 27L17 29L19 29L19 30L20 30L20 29L23 29L23 28L22 28L22 27L25 27L25 28L24 28L24 30L26 30L26 31L27 31L27 32L28 32L28 30L26 30L26 29L27 29L27 26L26 26L26 25L27 25L27 22L26 22L26 21L24 21L24 20L22 20L22 18L24 18L24 19L25 19L25 18L28 18L28 19L27 19L27 21L28 21L28 19L29 19L29 22L31 22L31 21L30 21L30 19L32 19L32 20L33 20L33 21L35 21L35 20L36 20L36 18L35 18L35 17L33 17L33 16L32 16L32 15L33 15L33 14L32 14L32 13L33 13L33 12L32 12L32 13L30 13L30 12L28 12L28 13L29 13L29 14L32 14L32 15L31 15L31 17L30 17L30 16L29 16L29 15L27 15L27 16L28 16L28 17L24 17L24 15L25 15L25 16L26 16L26 11L27 11L27 10L26 10L26 8L25 8L25 7L26 7L26 6L25 6L25 7L24 7L24 6L23 6L23 7L22 7L22 5L25 5L25 3L24 3L24 4L22 4L22 5L21 5L21 4L20 4L20 3L19 3L19 2L18 2L18 1ZM10 5L10 6L9 6L9 7L10 7L10 6L11 6L11 5ZM16 6L16 7L17 7L17 6ZM17 8L17 9L18 9L18 8ZM21 8L21 9L22 9L22 8ZM27 8L27 9L28 9L28 8ZM36 8L36 9L37 9L37 8ZM6 9L6 10L7 10L7 11L8 11L8 12L9 12L9 11L8 11L8 10L7 10L7 9ZM23 9L23 12L22 12L22 13L21 13L21 14L22 14L22 13L23 13L23 14L24 14L24 13L25 13L25 11L26 11L26 10L25 10L25 11L24 11L24 9ZM12 10L12 11L13 11L13 10ZM20 10L20 11L21 11L21 10ZM32 10L32 11L33 11L33 10ZM34 10L34 11L35 11L35 10ZM19 12L19 13L18 13L18 15L20 15L20 17L18 17L18 18L19 18L19 19L18 19L18 20L17 20L17 21L18 21L18 22L21 22L21 23L22 23L22 22L23 22L23 24L22 24L22 25L21 25L21 24L20 24L20 25L21 25L21 26L19 26L19 25L18 25L18 26L19 26L19 28L21 28L21 26L22 26L22 25L23 25L23 26L24 26L24 21L18 21L18 20L19 20L19 19L21 19L21 18L20 18L20 17L23 17L23 15L22 15L22 16L21 16L21 15L20 15L20 12ZM3 13L3 14L2 14L2 16L1 16L1 17L4 17L4 23L6 23L6 22L8 22L8 23L9 23L9 24L10 24L10 23L11 23L11 22L12 22L12 23L13 23L13 25L11 25L11 26L13 26L13 25L14 25L14 26L15 26L15 25L14 25L14 24L15 24L15 23L13 23L13 22L12 22L12 21L14 21L14 22L15 22L15 19L14 19L14 17L12 17L12 18L11 18L11 17L10 17L10 16L9 16L9 15L8 15L8 14L7 14L7 13ZM6 14L6 15L5 15L5 16L6 16L6 17L7 17L7 18L5 18L5 22L6 22L6 21L8 21L8 22L9 22L9 21L10 21L10 22L11 22L11 21L12 21L12 19L13 19L13 20L14 20L14 19L13 19L13 18L12 18L12 19L8 19L8 16L6 16L6 15L7 15L7 14ZM29 17L29 19L30 19L30 17ZM32 18L32 19L33 19L33 20L34 20L34 19L35 19L35 18L34 18L34 19L33 19L33 18ZM6 19L6 20L7 20L7 19ZM10 20L10 21L11 21L11 20ZM1 21L1 22L3 22L3 21ZM25 22L25 23L26 23L26 22ZM28 24L28 27L30 27L30 26L29 26L29 24ZM25 26L25 27L26 27L26 26ZM10 27L10 28L9 28L9 30L10 30L10 31L11 31L11 32L12 32L12 33L14 33L14 34L15 34L15 31L14 31L14 32L12 32L12 31L11 31L11 29L12 29L12 28L14 28L14 27L12 27L12 28L11 28L11 27ZM15 27L15 28L16 28L16 27ZM10 28L10 29L11 29L11 28ZM25 28L25 29L26 29L26 28ZM29 29L29 32L32 32L32 29ZM34 29L34 30L35 30L35 31L36 31L36 29ZM22 30L22 31L16 31L16 33L17 33L17 32L18 32L18 33L21 33L21 34L22 34L22 35L21 35L21 36L22 36L22 35L23 35L23 34L22 34L22 32L23 32L23 33L24 33L24 31L23 31L23 30ZM30 30L30 31L31 31L31 30ZM25 32L25 34L24 34L24 35L25 35L25 34L27 34L27 35L28 35L28 36L29 36L29 35L31 35L31 34L30 34L30 33L28 33L28 34L27 34L27 33L26 33L26 32ZM12 34L12 35L13 35L13 34ZM16 34L16 35L17 35L17 34ZM10 35L10 36L11 36L11 35ZM0 0L0 7L7 7L7 0ZM1 1L1 6L6 6L6 1ZM2 2L2 5L5 5L5 2ZM30 0L30 7L37 7L37 0ZM31 1L31 6L36 6L36 1ZM32 2L32 5L35 5L35 2ZM0 30L0 37L7 37L7 30ZM1 31L1 36L6 36L6 31ZM2 32L2 35L5 35L5 32Z" fill="#000000"/></g></g></svg>
