<?xml version="1.0" encoding="UTF-8"?>
<svg xmlns="http://www.w3.org/2000/svg" version="1.1" width="100" height="100" viewBox="0 0 100 100"><rect x="0" y="0" width="100" height="100" fill="#ffffff"/><g transform="scale(2.703)"><g transform="translate(0,0)"><path fill-rule="evenodd" d="M10 0L10 2L11 2L11 0ZM12 0L12 1L13 1L13 2L12 2L12 4L14 4L14 8L13 8L13 9L12 9L12 7L13 7L13 5L11 5L11 6L10 6L10 4L11 4L11 3L8 3L8 4L9 4L9 5L8 5L8 7L9 7L9 8L6 8L6 9L5 9L5 8L0 8L0 12L2 12L2 13L0 13L0 14L2 14L2 13L3 13L3 12L4 12L4 10L1 10L1 9L5 9L5 10L6 10L6 11L5 11L5 14L4 14L4 15L3 15L3 16L2 16L2 17L1 17L1 15L0 15L0 18L1 18L1 20L0 20L0 29L1 29L1 25L2 25L2 26L3 26L3 25L2 25L2 24L3 24L3 22L4 22L4 23L5 23L5 24L4 24L4 27L7 27L7 28L6 28L6 29L7 29L7 28L8 28L8 27L10 27L10 26L5 26L5 25L8 25L8 24L9 24L9 25L10 25L10 24L11 24L11 25L12 25L12 26L13 26L13 27L12 27L12 29L13 29L13 28L14 28L14 29L19 29L19 30L15 30L15 31L14 31L14 32L15 32L15 33L12 33L12 31L13 31L13 30L11 30L11 28L10 28L10 30L9 30L9 29L8 29L8 31L9 31L9 32L8 32L8 37L9 37L9 32L10 32L10 34L11 34L11 33L12 33L12 34L13 34L13 35L12 35L12 37L13 37L13 36L14 36L14 37L15 37L15 36L17 36L17 37L19 37L19 34L15 34L15 33L19 33L19 30L22 30L22 31L21 31L21 32L20 32L20 34L21 34L21 36L25 36L25 35L23 35L23 34L25 34L25 33L26 33L26 32L24 32L24 31L25 31L25 30L26 30L26 31L27 31L27 30L26 30L26 28L25 28L25 27L27 27L27 29L28 29L28 32L27 32L27 33L28 33L28 34L27 34L27 35L28 35L28 36L29 36L29 37L32 37L32 36L31 36L31 35L32 35L32 34L35 34L35 35L36 35L36 36L33 36L33 37L37 37L37 33L36 33L36 32L37 32L37 28L36 28L36 27L37 27L37 26L36 26L36 25L37 25L37 22L32 22L32 21L33 21L33 19L32 19L32 18L31 18L31 19L30 19L30 21L31 21L31 22L30 22L30 24L28 24L28 22L27 22L27 23L26 23L26 24L24 24L24 23L22 23L22 22L24 22L24 21L25 21L25 22L26 22L26 21L28 21L28 18L29 18L29 17L31 17L31 14L32 14L32 13L35 13L35 12L33 12L33 11L34 11L34 8L33 8L33 10L32 10L32 8L31 8L31 11L30 11L30 10L29 10L29 9L30 9L30 8L29 8L29 6L28 6L28 5L29 5L29 2L28 2L28 1L29 1L29 0L28 0L28 1L27 1L27 2L26 2L26 3L22 3L22 2L23 2L23 1L25 1L25 0L23 0L23 1L22 1L22 2L19 2L19 4L18 4L18 3L17 3L17 2L18 2L18 1L21 1L21 0L18 0L18 1L17 1L17 2L16 2L16 1L15 1L15 0ZM8 1L8 2L9 2L9 1ZM14 1L14 2L13 2L13 3L14 3L14 4L15 4L15 5L18 5L18 6L17 6L17 7L16 7L16 6L15 6L15 7L16 7L16 8L18 8L18 9L15 9L15 8L14 8L14 9L13 9L13 10L12 10L12 9L11 9L11 8L10 8L10 9L11 9L11 11L10 11L10 10L9 10L9 9L6 9L6 10L7 10L7 11L6 11L6 12L8 12L8 13L9 13L9 12L10 12L10 14L9 14L9 15L8 15L8 14L7 14L7 13L6 13L6 14L5 14L5 15L4 15L4 16L3 16L3 18L4 18L4 20L3 20L3 19L2 19L2 21L5 21L5 22L7 22L7 21L5 21L5 20L8 20L8 19L9 19L9 18L10 18L10 17L9 17L9 15L10 15L10 14L13 14L13 13L12 13L12 11L13 11L13 12L14 12L14 13L15 13L15 14L14 14L14 15L12 15L12 17L11 17L11 20L9 20L9 22L10 22L10 23L11 23L11 22L14 22L14 23L12 23L12 25L14 25L14 26L17 26L17 27L16 27L16 28L18 28L18 26L19 26L19 29L23 29L23 31L22 31L22 32L21 32L21 33L23 33L23 31L24 31L24 30L25 30L25 29L23 29L23 28L21 28L21 27L20 27L20 26L19 26L19 25L23 25L23 24L20 24L20 23L21 23L21 22L19 22L19 21L23 21L23 20L27 20L27 19L26 19L26 18L27 18L27 17L29 17L29 16L27 16L27 15L26 15L26 14L28 14L28 13L29 13L29 14L31 14L31 13L32 13L32 12L31 12L31 13L29 13L29 12L30 12L30 11L28 11L28 12L27 12L27 13L25 13L25 15L24 15L24 14L23 14L23 12L26 12L26 9L25 9L25 11L24 11L24 10L23 10L23 9L24 9L24 5L25 5L25 8L28 8L28 9L27 9L27 10L28 10L28 9L29 9L29 8L28 8L28 6L27 6L27 5L28 5L28 4L26 4L26 5L25 5L25 4L23 4L23 7L22 7L22 6L21 6L21 7L20 7L20 5L18 5L18 4L15 4L15 1ZM20 3L20 4L21 4L21 3ZM9 6L9 7L10 7L10 6ZM11 6L11 7L12 7L12 6ZM18 6L18 7L19 7L19 6ZM26 6L26 7L27 7L27 6ZM21 7L21 8L22 8L22 7ZM35 8L35 9L36 9L36 8ZM14 9L14 10L13 10L13 11L14 11L14 12L15 12L15 13L16 13L16 10L15 10L15 9ZM18 9L18 11L19 11L19 10L21 10L21 9ZM8 10L8 12L9 12L9 10ZM22 10L22 11L20 11L20 13L18 13L18 12L17 12L17 14L21 14L21 16L23 16L23 17L21 17L21 18L20 18L20 17L19 17L19 15L18 15L18 16L17 16L17 15L16 15L16 14L15 14L15 17L14 17L14 16L13 16L13 17L12 17L12 18L13 18L13 17L14 17L14 19L16 19L16 18L15 18L15 17L18 17L18 20L15 20L15 21L14 21L14 20L13 20L13 19L12 19L12 21L14 21L14 22L15 22L15 24L17 24L17 25L19 25L19 22L15 22L15 21L19 21L19 18L20 18L20 19L21 19L21 20L23 20L23 19L22 19L22 18L25 18L25 17L27 17L27 16L24 16L24 15L23 15L23 14L21 14L21 12L22 12L22 11L23 11L23 10ZM36 10L36 12L37 12L37 10ZM6 14L6 15L7 15L7 16L5 16L5 17L4 17L4 18L5 18L5 17L7 17L7 16L8 16L8 15L7 15L7 14ZM33 14L33 15L34 15L34 14ZM35 14L35 16L32 16L32 17L33 17L33 18L35 18L35 19L36 19L36 20L34 20L34 21L37 21L37 18L35 18L35 16L36 16L36 17L37 17L37 14ZM8 17L8 18L9 18L9 17ZM6 18L6 19L7 19L7 18ZM31 19L31 21L32 21L32 19ZM1 22L1 23L2 23L2 22ZM6 23L6 24L8 24L8 23ZM17 23L17 24L18 24L18 23ZM31 23L31 24L35 24L35 23ZM24 25L24 26L23 26L23 27L25 27L25 25ZM26 25L26 26L28 26L28 25ZM32 25L32 27L31 27L31 26L29 26L29 27L31 27L31 28L35 28L35 29L36 29L36 28L35 28L35 25L34 25L34 26L33 26L33 25ZM2 27L2 28L3 28L3 27ZM14 27L14 28L15 28L15 27ZM4 28L4 29L5 29L5 28ZM29 29L29 32L32 32L32 29ZM33 29L33 30L34 30L34 31L33 31L33 32L36 32L36 31L35 31L35 30L34 30L34 29ZM10 30L10 32L11 32L11 30ZM30 30L30 31L31 31L31 30ZM16 31L16 32L18 32L18 31ZM31 33L31 34L30 34L30 35L31 35L31 34L32 34L32 33ZM28 34L28 35L29 35L29 34ZM10 35L10 36L11 36L11 35ZM14 35L14 36L15 36L15 35ZM17 35L17 36L18 36L18 35ZM26 36L26 37L27 37L27 36ZM0 0L0 7L7 7L7 0ZM1 1L1 6L6 6L6 1ZM2 2L2 5L5 5L5 2ZM30 0L30 7L37 7L37 0ZM31 1L31 6L36 6L36 1ZM32 2L32 5L35 5L35 2ZM0 30L0 37L7 37L7 30ZM1 31L1 36L6 36L6 31ZM2 32L2 35L5 35L5 32Z" fill="#000000"/></g></g></svg>
