<?xml version="1.0" encoding="UTF-8"?>
<svg xmlns="http://www.w3.org/2000/svg" version="1.1" width="100" height="100" viewBox="0 0 100 100"><rect x="0" y="0" width="100" height="100" fill="#ffffff"/><g transform="scale(2.703)"><g transform="translate(0,0)"><path fill-rule="evenodd" d="M8 0L8 1L9 1L9 2L10 2L10 3L11 3L11 1L13 1L13 0L11 0L11 1L9 1L9 0ZM16 0L16 2L15 2L15 1L14 1L14 2L12 2L12 4L11 4L11 5L10 5L10 4L9 4L9 5L10 5L10 8L9 8L9 6L8 6L8 8L9 8L9 10L8 10L8 9L7 9L7 8L6 8L6 9L5 9L5 8L3 8L3 10L2 10L2 8L0 8L0 10L2 10L2 11L3 11L3 12L4 12L4 13L3 13L3 14L4 14L4 15L2 15L2 14L1 14L1 12L0 12L0 15L2 15L2 16L0 16L0 18L1 18L1 19L0 19L0 24L3 24L3 28L4 28L4 27L5 27L5 29L8 29L8 30L9 30L9 32L8 32L8 34L9 34L9 35L8 35L8 37L9 37L9 35L10 35L10 34L11 34L11 37L14 37L14 31L16 31L16 30L18 30L18 32L17 32L17 33L16 33L16 32L15 32L15 35L17 35L17 36L16 36L16 37L17 37L17 36L18 36L18 37L21 37L21 36L19 36L19 34L18 34L18 35L17 35L17 33L21 33L21 27L22 27L22 26L24 26L24 25L25 25L25 24L24 24L24 25L23 25L23 24L22 24L22 26L18 26L18 29L17 29L17 27L16 27L16 25L17 25L17 24L18 24L18 25L21 25L21 23L22 23L22 22L20 22L20 20L21 20L21 19L22 19L22 21L23 21L23 23L24 23L24 21L25 21L25 22L26 22L26 24L27 24L27 25L26 25L26 28L25 28L25 27L23 27L23 28L24 28L24 29L23 29L23 32L22 32L22 33L23 33L23 34L20 34L20 35L24 35L24 36L22 36L22 37L24 37L24 36L25 36L25 37L26 37L26 36L25 36L25 35L24 35L24 34L25 34L25 32L27 32L27 33L26 33L26 35L27 35L27 36L28 36L28 37L29 37L29 36L28 36L28 33L29 33L29 34L31 34L31 35L30 35L30 37L31 37L31 35L33 35L33 36L32 36L32 37L34 37L34 36L36 36L36 37L37 37L37 33L36 33L36 32L37 32L37 28L36 28L36 27L37 27L37 26L36 26L36 25L37 25L37 22L36 22L36 25L35 25L35 26L34 26L34 27L32 27L32 28L31 28L31 27L29 27L29 28L27 28L27 27L28 27L28 26L31 26L31 23L32 23L32 22L33 22L33 25L32 25L32 26L33 26L33 25L34 25L34 24L35 24L35 21L37 21L37 18L36 18L36 17L37 17L37 14L34 14L34 12L35 12L35 13L36 13L36 12L37 12L37 10L35 10L35 9L34 9L34 10L33 10L33 9L31 9L31 8L30 8L30 9L31 9L31 11L29 11L29 10L28 10L28 9L29 9L29 4L28 4L28 7L27 7L27 6L26 6L26 7L25 7L25 5L27 5L27 4L26 4L26 3L28 3L28 2L27 2L27 0L24 0L24 1L25 1L25 3L23 3L23 0L22 0L22 1L19 1L19 0ZM18 1L18 2L16 2L16 3L15 3L15 2L14 2L14 3L15 3L15 4L12 4L12 5L11 5L11 7L12 7L12 9L10 9L10 11L9 11L9 12L8 12L8 11L6 11L6 12L5 12L5 13L4 13L4 14L5 14L5 16L4 16L4 17L3 17L3 16L2 16L2 17L1 17L1 18L2 18L2 19L1 19L1 20L3 20L3 21L1 21L1 22L3 22L3 21L5 21L5 20L4 20L4 19L6 19L6 20L8 20L8 18L7 18L7 17L8 17L8 16L11 16L11 17L10 17L10 18L11 18L11 17L13 17L13 18L12 18L12 19L11 19L11 22L10 22L10 23L9 23L9 21L10 21L10 19L9 19L9 21L8 21L8 22L7 22L7 21L6 21L6 22L5 22L5 24L7 24L7 25L6 25L6 26L5 26L5 25L4 25L4 26L5 26L5 27L6 27L6 28L7 28L7 27L6 27L6 26L7 26L7 25L8 25L8 26L9 26L9 25L10 25L10 26L11 26L11 28L9 28L9 27L8 27L8 28L9 28L9 29L10 29L10 30L11 30L11 31L10 31L10 32L9 32L9 33L10 33L10 32L11 32L11 31L12 31L12 33L11 33L11 34L12 34L12 35L13 35L13 34L12 34L12 33L13 33L13 31L12 31L12 30L15 30L15 28L16 28L16 27L15 27L15 28L13 28L13 29L12 29L12 30L11 30L11 28L12 28L12 27L14 27L14 25L13 25L13 24L15 24L15 25L16 25L16 24L17 24L17 23L18 23L18 22L19 22L19 24L20 24L20 22L19 22L19 21L17 21L17 20L18 20L18 19L16 19L16 21L17 21L17 23L14 23L14 22L15 22L15 20L13 20L13 21L12 21L12 19L13 19L13 18L14 18L14 19L15 19L15 18L14 18L14 17L13 17L13 16L14 16L14 15L15 15L15 16L17 16L17 17L18 17L18 15L19 15L19 17L20 17L20 19L21 19L21 18L24 18L24 19L23 19L23 20L25 20L25 21L26 21L26 20L25 20L25 18L26 18L26 19L27 19L27 20L29 20L29 22L28 22L28 23L27 23L27 24L28 24L28 25L30 25L30 24L28 24L28 23L29 23L29 22L31 22L31 21L30 21L30 19L32 19L32 20L33 20L33 21L35 21L35 20L36 20L36 18L35 18L35 17L33 17L33 16L32 16L32 15L33 15L33 14L32 14L32 13L33 13L33 12L32 12L32 13L30 13L30 12L29 12L29 14L28 14L28 15L27 15L27 16L26 16L26 15L24 15L24 14L23 14L23 13L24 13L24 12L25 12L25 13L28 13L28 11L27 11L27 9L26 9L26 8L25 8L25 11L24 11L24 12L23 12L23 13L22 13L22 10L21 10L21 9L22 9L22 8L23 8L23 9L24 9L24 6L23 6L23 5L21 5L21 4L23 4L23 3L21 3L21 4L20 4L20 5L17 5L17 3L18 3L18 4L19 4L19 3L20 3L20 2L19 2L19 1ZM24 4L24 5L25 5L25 4ZM12 5L12 7L13 7L13 8L14 8L14 7L15 7L15 5L14 5L14 7L13 7L13 5ZM20 5L20 7L19 7L19 6L18 6L18 7L19 7L19 9L18 9L18 8L17 8L17 9L16 9L16 8L15 8L15 11L16 11L16 12L14 12L14 13L15 13L15 15L16 15L16 13L17 13L17 14L19 14L19 15L20 15L20 17L21 17L21 15L22 15L22 13L21 13L21 15L20 15L20 14L19 14L19 13L20 13L20 12L21 12L21 10L20 10L20 8L21 8L21 5ZM16 6L16 7L17 7L17 6ZM22 6L22 7L23 7L23 6ZM36 8L36 9L37 9L37 8ZM6 9L6 10L7 10L7 9ZM12 9L12 10L11 10L11 12L9 12L9 13L8 13L8 12L6 12L6 13L5 13L5 14L6 14L6 15L7 15L7 16L6 16L6 17L7 17L7 16L8 16L8 14L9 14L9 15L11 15L11 16L12 16L12 15L13 15L13 14L11 14L11 13L13 13L13 11L12 11L12 10L13 10L13 9ZM17 9L17 10L16 10L16 11L17 11L17 10L18 10L18 9ZM3 10L3 11L5 11L5 10ZM19 10L19 11L18 11L18 12L17 12L17 13L19 13L19 12L20 12L20 10ZM32 10L32 11L33 11L33 10ZM34 10L34 11L35 11L35 10ZM26 11L26 12L27 12L27 11ZM6 13L6 14L7 14L7 13ZM29 14L29 16L30 16L30 17L29 17L29 18L27 18L27 19L30 19L30 17L31 17L31 15L32 15L32 14ZM23 15L23 16L24 16L24 18L25 18L25 17L26 17L26 16L24 16L24 15ZM3 18L3 19L4 19L4 18ZM6 18L6 19L7 19L7 18ZM32 18L32 19L33 19L33 20L34 20L34 19L35 19L35 18L34 18L34 19L33 19L33 18ZM6 22L6 23L7 23L7 24L8 24L8 25L9 25L9 24L8 24L8 23L7 23L7 22ZM12 22L12 23L13 23L13 22ZM10 23L10 25L11 25L11 23ZM0 25L0 29L1 29L1 27L2 27L2 26L1 26L1 25ZM12 25L12 26L13 26L13 25ZM19 27L19 29L18 29L18 30L19 30L19 29L20 29L20 27ZM24 29L24 30L25 30L25 29ZM26 29L26 31L28 31L28 30L27 30L27 29ZM29 29L29 32L32 32L32 29ZM34 29L34 30L35 30L35 31L34 31L34 33L31 33L31 34L33 34L33 35L36 35L36 34L35 34L35 32L36 32L36 29ZM30 30L30 31L31 31L31 30ZM24 31L24 32L25 32L25 31ZM0 0L0 7L7 7L7 0ZM1 1L1 6L6 6L6 1ZM2 2L2 5L5 5L5 2ZM30 0L30 7L37 7L37 0ZM31 1L31 6L36 6L36 1ZM32 2L32 5L35 5L35 2ZM0 30L0 37L7 37L7 30ZM1 31L1 36L6 36L6 31ZM2 32L2 35L5 35L5 32Z" fill="#000000"/></g></g></svg>
