<?xml version="1.0" encoding="UTF-8"?>
<svg xmlns="http://www.w3.org/2000/svg" version="1.1" width="100" height="100" viewBox="0 0 100 100"><rect x="0" y="0" width="100" height="100" fill="#ffffff"/><g transform="scale(2.703)"><g transform="translate(0,0)"><path fill-rule="evenodd" d="M8 0L8 4L10 4L10 3L11 3L11 4L12 4L12 2L11 2L11 0ZM12 0L12 1L13 1L13 2L15 2L15 5L16 5L16 4L17 4L17 6L16 6L16 7L15 7L15 6L14 6L14 3L13 3L13 5L11 5L11 6L10 6L10 7L9 7L9 5L8 5L8 7L9 7L9 8L10 8L10 7L11 7L11 6L12 6L12 8L11 8L11 9L10 9L10 10L11 10L11 12L12 12L12 13L13 13L13 14L14 14L14 13L15 13L15 15L14 15L14 17L15 17L15 20L14 20L14 21L15 21L15 24L14 24L14 25L12 25L12 24L13 24L13 23L14 23L14 22L13 22L13 23L12 23L12 24L11 24L11 25L12 25L12 26L11 26L11 28L12 28L12 29L13 29L13 28L12 28L12 27L13 27L13 26L14 26L14 25L15 25L15 27L14 27L14 29L15 29L15 31L16 31L16 33L15 33L15 32L13 32L13 31L12 31L12 32L10 32L10 30L11 30L11 29L10 29L10 30L9 30L9 28L8 28L8 26L5 26L5 25L4 25L4 26L3 26L3 25L2 25L2 24L4 24L4 23L1 23L1 22L2 22L2 20L0 20L0 26L1 26L1 25L2 25L2 26L3 26L3 27L2 27L2 28L0 28L0 29L4 29L4 28L6 28L6 29L8 29L8 30L9 30L9 31L8 31L8 33L9 33L9 34L10 34L10 35L11 35L11 36L12 36L12 37L14 37L14 35L16 35L16 37L20 37L20 36L22 36L22 37L23 37L23 36L24 36L24 37L25 37L25 36L24 36L24 34L23 34L23 35L20 35L20 36L18 36L18 34L16 34L16 33L19 33L19 32L20 32L20 34L22 34L22 29L23 29L23 33L25 33L25 31L24 31L24 29L25 29L25 30L26 30L26 31L27 31L27 32L28 32L28 33L26 33L26 34L28 34L28 35L29 35L29 37L31 37L31 36L30 36L30 35L32 35L32 33L33 33L33 31L34 31L34 37L37 37L37 36L36 36L36 35L35 35L35 34L37 34L37 33L36 33L36 32L37 32L37 31L35 31L35 30L37 30L37 27L36 27L36 29L35 29L35 26L36 26L36 25L37 25L37 24L35 24L35 23L34 23L34 21L37 21L37 20L36 20L36 19L35 19L35 14L34 14L34 13L35 13L35 12L36 12L36 10L33 10L33 9L37 9L37 8L33 8L33 9L32 9L32 8L31 8L31 9L32 9L32 10L30 10L30 11L29 11L29 9L26 9L26 8L25 8L25 6L26 6L26 7L27 7L27 5L29 5L29 0L26 0L26 1L28 1L28 2L27 2L27 4L26 4L26 3L25 3L25 0L23 0L23 1L24 1L24 2L21 2L21 1L19 1L19 0L18 0L18 2L15 2L15 1L16 1L16 0L15 0L15 1L14 1L14 0ZM9 2L9 3L10 3L10 2ZM19 2L19 5L18 5L18 6L17 6L17 7L16 7L16 8L15 8L15 7L14 7L14 6L13 6L13 8L12 8L12 9L11 9L11 10L12 10L12 9L13 9L13 10L14 10L14 11L12 11L12 12L13 12L13 13L14 13L14 12L15 12L15 13L16 13L16 19L17 19L17 18L18 18L18 19L19 19L19 20L18 20L18 21L19 21L19 23L18 23L18 24L20 24L20 26L18 26L18 25L16 25L16 24L15 24L15 25L16 25L16 30L17 30L17 31L18 31L18 32L19 32L19 31L21 31L21 30L20 30L20 29L17 29L17 26L18 26L18 28L21 28L21 29L22 29L22 28L21 28L21 26L23 26L23 25L24 25L24 26L25 26L25 27L24 27L24 28L23 28L23 29L24 29L24 28L25 28L25 29L26 29L26 30L27 30L27 31L28 31L28 30L27 30L27 28L26 28L26 27L27 27L27 26L25 26L25 25L28 25L28 27L29 27L29 28L33 28L33 29L34 29L34 26L35 26L35 25L34 25L34 23L31 23L31 22L32 22L32 21L33 21L33 20L34 20L34 15L33 15L33 14L32 14L32 13L34 13L34 11L33 11L33 12L32 12L32 13L29 13L29 11L28 11L28 13L29 13L29 14L28 14L28 15L29 15L29 16L26 16L26 15L27 15L27 14L26 14L26 13L27 13L27 12L26 12L26 10L24 10L24 11L23 11L23 8L24 8L24 5L22 5L22 4L25 4L25 3L22 3L22 4L20 4L20 2ZM17 3L17 4L18 4L18 3ZM19 5L19 6L18 6L18 7L17 7L17 8L16 8L16 9L15 9L15 8L14 8L14 9L15 9L15 12L16 12L16 13L18 13L18 15L17 15L17 17L18 17L18 18L19 18L19 17L21 17L21 18L20 18L20 19L21 19L21 20L19 20L19 21L21 21L21 25L22 25L22 24L25 24L25 23L26 23L26 22L27 22L27 24L28 24L28 25L29 25L29 27L30 27L30 25L31 25L31 24L30 24L30 22L29 22L29 24L28 24L28 18L29 18L29 20L30 20L30 21L32 21L32 20L33 20L33 19L32 19L32 18L33 18L33 17L32 17L32 16L29 16L29 17L28 17L28 18L27 18L27 17L25 17L25 15L26 15L26 14L24 14L24 13L25 13L25 11L24 11L24 13L23 13L23 11L21 11L21 10L22 10L22 7L23 7L23 6L22 6L22 5ZM19 6L19 7L18 7L18 9L16 9L16 11L18 11L18 9L19 9L19 12L18 12L18 13L19 13L19 16L18 16L18 17L19 17L19 16L20 16L20 15L21 15L21 14L22 14L22 15L23 15L23 14L22 14L22 12L21 12L21 11L20 11L20 9L19 9L19 8L21 8L21 7L22 7L22 6L21 6L21 7L20 7L20 6ZM28 6L28 7L29 7L29 6ZM0 8L0 9L2 9L2 10L0 10L0 11L1 11L1 14L0 14L0 18L1 18L1 19L3 19L3 20L4 20L4 22L5 22L5 24L6 24L6 25L7 25L7 24L6 24L6 23L7 23L7 22L8 22L8 23L9 23L9 24L10 24L10 23L11 23L11 22L10 22L10 23L9 23L9 21L11 21L11 20L12 20L12 21L13 21L13 20L12 20L12 19L13 19L13 17L12 17L12 16L13 16L13 15L12 15L12 16L11 16L11 15L10 15L10 11L9 11L9 10L8 10L8 9L7 9L7 8L4 8L4 9L5 9L5 10L3 10L3 9L2 9L2 8ZM6 9L6 10L5 10L5 11L6 11L6 12L5 12L5 14L7 14L7 15L6 15L6 16L7 16L7 17L5 17L5 16L2 16L2 14L1 14L1 16L2 16L2 17L1 17L1 18L3 18L3 19L4 19L4 17L5 17L5 18L7 18L7 19L6 19L6 20L8 20L8 21L9 21L9 19L10 19L10 20L11 20L11 19L10 19L10 18L9 18L9 16L10 16L10 15L9 15L9 13L8 13L8 12L9 12L9 11L6 11L6 10L7 10L7 9ZM2 10L2 12L3 12L3 10ZM30 11L30 12L31 12L31 11ZM6 12L6 13L7 13L7 12ZM19 12L19 13L21 13L21 12ZM3 13L3 14L4 14L4 13ZM8 15L8 16L9 16L9 15ZM22 16L22 18L21 18L21 19L23 19L23 17L24 17L24 18L25 18L25 19L24 19L24 20L25 20L25 21L24 21L24 23L25 23L25 22L26 22L26 21L27 21L27 20L26 20L26 19L27 19L27 18L25 18L25 17L24 17L24 16ZM36 16L36 17L37 17L37 16ZM7 17L7 18L8 18L8 17ZM11 17L11 18L12 18L12 17ZM29 17L29 18L31 18L31 17ZM30 19L30 20L32 20L32 19ZM15 20L15 21L16 21L16 23L17 23L17 21L16 21L16 20ZM22 20L22 23L23 23L23 20ZM6 21L6 22L7 22L7 21ZM29 24L29 25L30 25L30 24ZM9 25L9 27L10 27L10 25ZM32 25L32 26L31 26L31 27L32 27L32 26L33 26L33 25ZM3 27L3 28L4 28L4 27ZM6 27L6 28L7 28L7 27ZM29 29L29 32L32 32L32 29ZM30 30L30 31L31 31L31 30ZM12 32L12 33L11 33L11 34L12 34L12 33L13 33L13 34L14 34L14 33L13 33L13 32ZM28 33L28 34L29 34L29 35L30 35L30 33ZM8 35L8 37L9 37L9 35ZM12 35L12 36L13 36L13 35ZM26 35L26 37L27 37L27 35ZM32 36L32 37L33 37L33 36ZM0 0L0 7L7 7L7 0ZM1 1L1 6L6 6L6 1ZM2 2L2 5L5 5L5 2ZM30 0L30 7L37 7L37 0ZM31 1L31 6L36 6L36 1ZM32 2L32 5L35 5L35 2ZM0 30L0 37L7 37L7 30ZM1 31L1 36L6 36L6 31ZM2 32L2 35L5 35L5 32Z" fill="#000000"/></g></g></svg>
