<?xml version="1.0" encoding="UTF-8"?>
<svg xmlns="http://www.w3.org/2000/svg" version="1.1" width="100" height="100" viewBox="0 0 100 100"><rect x="0" y="0" width="100" height="100" fill="#ffffff"/><g transform="scale(2.703)"><g transform="translate(0,0)"><path fill-rule="evenodd" d="M8 0L8 1L11 1L11 3L10 3L10 2L9 2L9 3L10 3L10 5L9 5L9 6L8 6L8 8L9 8L9 10L8 10L8 11L7 11L7 10L4 10L4 9L5 9L5 8L3 8L3 10L2 10L2 8L0 8L0 10L2 10L2 11L3 11L3 10L4 10L4 12L3 12L3 14L5 14L5 15L2 15L2 16L5 16L5 19L3 19L3 21L2 21L2 18L1 18L1 20L0 20L0 24L2 24L2 25L0 25L0 29L1 29L1 27L2 27L2 26L3 26L3 28L2 28L2 29L4 29L4 28L5 28L5 29L8 29L8 30L9 30L9 31L10 31L10 32L11 32L11 31L12 31L12 33L14 33L14 36L13 36L13 37L15 37L15 36L18 36L18 37L21 37L21 35L19 35L19 34L20 34L20 32L19 32L19 31L20 31L20 30L21 30L21 31L22 31L22 32L23 32L23 33L21 33L21 34L22 34L22 36L23 36L23 37L24 37L24 35L26 35L26 34L27 34L27 37L31 37L31 35L33 35L33 36L32 36L32 37L34 37L34 36L36 36L36 37L37 37L37 32L36 32L36 31L37 31L37 28L36 28L36 27L37 27L37 26L36 26L36 25L37 25L37 22L36 22L36 25L35 25L35 26L34 26L34 27L32 27L32 28L31 28L31 26L30 26L30 25L31 25L31 23L32 23L32 22L33 22L33 25L32 25L32 26L33 26L33 25L34 25L34 24L35 24L35 21L37 21L37 18L36 18L36 17L37 17L37 14L34 14L34 12L35 12L35 13L36 13L36 12L37 12L37 10L35 10L35 9L34 9L34 10L33 10L33 9L31 9L31 8L30 8L30 9L31 9L31 11L29 11L29 10L28 10L28 9L29 9L29 8L28 8L28 7L29 7L29 6L28 6L28 7L27 7L27 6L26 6L26 7L25 7L25 4L26 4L26 5L27 5L27 3L28 3L28 2L27 2L27 0L26 0L26 1L25 1L25 0L24 0L24 2L21 2L21 1L23 1L23 0L20 0L20 1L19 1L19 0L18 0L18 1L19 1L19 2L21 2L21 3L23 3L23 4L19 4L19 3L17 3L17 6L16 6L16 7L17 7L17 6L18 6L18 7L19 7L19 5L22 5L22 7L23 7L23 6L24 6L24 7L25 7L25 8L24 8L24 9L22 9L22 10L21 10L21 6L20 6L20 8L15 8L15 5L16 5L16 3L15 3L15 2L16 2L16 0L13 0L13 1L12 1L12 0ZM12 2L12 4L14 4L14 5L15 5L15 4L14 4L14 3L13 3L13 2ZM24 2L24 3L25 3L25 2ZM18 4L18 5L19 5L19 4ZM23 4L23 5L24 5L24 4ZM28 4L28 5L29 5L29 4ZM10 5L10 6L9 6L9 7L10 7L10 9L11 9L11 10L10 10L10 11L8 11L8 12L9 12L9 13L6 13L6 14L8 14L8 16L7 16L7 15L5 15L5 16L7 16L7 17L6 17L6 18L10 18L10 19L12 19L12 21L11 21L11 20L10 20L10 21L11 21L11 22L9 22L9 23L6 23L6 22L7 22L7 21L5 21L5 20L4 20L4 21L3 21L3 22L5 22L5 23L4 23L4 25L5 25L5 26L8 26L8 27L9 27L9 26L8 26L8 25L9 25L9 23L10 23L10 24L11 24L11 22L12 22L12 23L13 23L13 22L12 22L12 21L13 21L13 19L12 19L12 18L15 18L15 16L13 16L13 17L12 17L12 18L10 18L10 17L11 17L11 16L12 16L12 15L14 15L14 14L17 14L17 15L16 15L16 16L17 16L17 17L18 17L18 18L19 18L19 17L20 17L20 18L22 18L22 15L24 15L24 16L23 16L23 18L24 18L24 19L23 19L23 22L22 22L22 19L21 19L21 20L20 20L20 21L21 21L21 22L22 22L22 23L21 23L21 25L20 25L20 22L19 22L19 21L17 21L17 20L18 20L18 19L17 19L17 18L16 18L16 21L17 21L17 22L16 22L16 23L18 23L18 22L19 22L19 26L22 26L22 27L21 27L21 30L22 30L22 27L23 27L23 30L24 30L24 32L25 32L25 33L24 33L24 34L25 34L25 33L26 33L26 32L28 32L28 30L27 30L27 28L29 28L29 27L30 27L30 26L29 26L29 25L28 25L28 24L29 24L29 23L27 23L27 22L31 22L31 21L30 21L30 19L32 19L32 20L33 20L33 21L35 21L35 20L36 20L36 18L35 18L35 17L33 17L33 16L32 16L32 15L33 15L33 14L32 14L32 13L33 13L33 12L32 12L32 13L30 13L30 12L29 12L29 14L32 14L32 15L31 15L31 17L30 17L30 16L28 16L28 15L24 15L24 14L25 14L25 13L27 13L27 12L28 12L28 11L26 11L26 10L25 10L25 9L24 9L24 12L23 12L23 10L22 10L22 11L20 11L20 10L19 10L19 9L15 9L15 11L16 11L16 12L15 12L15 13L13 13L13 12L14 12L14 9L12 9L12 6L13 6L13 8L14 8L14 6L13 6L13 5L12 5L12 6L11 6L11 5ZM10 6L10 7L11 7L11 6ZM6 8L6 9L7 9L7 8ZM27 8L27 9L28 9L28 8ZM36 8L36 9L37 9L37 8ZM12 10L12 11L13 11L13 10ZM18 10L18 11L17 11L17 12L16 12L16 13L17 13L17 14L19 14L19 16L18 16L18 17L19 17L19 16L21 16L21 15L22 15L22 14L21 14L21 13L20 13L20 12L19 12L19 10ZM32 10L32 11L33 11L33 10ZM34 10L34 11L35 11L35 10ZM5 11L5 12L7 12L7 11ZM10 11L10 12L11 12L11 11ZM1 12L1 13L0 13L0 16L1 16L1 14L2 14L2 12ZM17 12L17 13L18 13L18 12ZM24 12L24 13L25 13L25 12ZM9 13L9 14L10 14L10 15L9 15L9 17L10 17L10 15L11 15L11 13ZM12 13L12 14L13 14L13 13ZM19 13L19 14L20 14L20 15L21 15L21 14L20 14L20 13ZM24 16L24 18L25 18L25 17L26 17L26 19L24 19L24 21L25 21L25 20L26 20L26 22L27 22L27 21L29 21L29 20L28 20L28 19L30 19L30 17L29 17L29 18L28 18L28 17L26 17L26 16ZM3 17L3 18L4 18L4 17ZM32 18L32 19L33 19L33 20L34 20L34 19L35 19L35 18L34 18L34 19L33 19L33 18ZM6 19L6 20L7 20L7 19ZM8 19L8 20L9 20L9 19ZM14 19L14 25L16 25L16 26L17 26L17 29L18 29L18 30L19 30L19 29L20 29L20 27L19 27L19 29L18 29L18 24L15 24L15 19ZM1 22L1 23L2 23L2 24L3 24L3 23L2 23L2 22ZM23 22L23 23L22 23L22 24L23 24L23 25L22 25L22 26L24 26L24 27L26 27L26 26L27 26L27 27L28 27L28 25L26 25L26 26L25 26L25 22ZM5 23L5 24L6 24L6 25L8 25L8 24L6 24L6 23ZM11 25L11 26L10 26L10 27L11 27L11 26L13 26L13 25ZM14 26L14 27L12 27L12 28L11 28L11 29L10 29L10 30L11 30L11 29L14 29L14 28L15 28L15 29L16 29L16 27L15 27L15 26ZM5 27L5 28L7 28L7 27ZM8 28L8 29L9 29L9 28ZM24 28L24 30L25 30L25 32L26 32L26 31L27 31L27 30L25 30L25 29L26 29L26 28ZM29 29L29 32L32 32L32 29ZM34 29L34 30L35 30L35 31L34 31L34 33L31 33L31 34L30 34L30 33L27 33L27 34L28 34L28 36L30 36L30 35L31 35L31 34L33 34L33 35L36 35L36 34L35 34L35 33L36 33L36 32L35 32L35 31L36 31L36 29ZM12 30L12 31L13 31L13 32L14 32L14 31L15 31L15 30ZM16 30L16 33L17 33L17 32L18 32L18 31L17 31L17 30ZM30 30L30 31L31 31L31 30ZM8 32L8 34L9 34L9 32ZM10 33L10 35L11 35L11 33ZM18 33L18 34L19 34L19 33ZM12 34L12 35L13 35L13 34ZM16 34L16 35L17 35L17 34ZM8 35L8 37L9 37L9 35ZM18 35L18 36L19 36L19 35ZM10 36L10 37L11 37L11 36ZM0 0L0 7L7 7L7 0ZM1 1L1 6L6 6L6 1ZM2 2L2 5L5 5L5 2ZM30 0L30 7L37 7L37 0ZM31 1L31 6L36 6L36 1ZM32 2L32 5L35 5L35 2ZM0 30L0 37L7 37L7 30ZM1 31L1 36L6 36L6 31ZM2 32L2 35L5 35L5 32Z" fill="#000000"/></g></g></svg>
