<?xml version="1.0" encoding="UTF-8"?>
<svg xmlns="http://www.w3.org/2000/svg" version="1.1" width="100" height="100" viewBox="0 0 100 100"><rect x="0" y="0" width="100" height="100" fill="#ffffff"/><g transform="scale(2.703)"><g transform="translate(0,0)"><path fill-rule="evenodd" d="M10 0L10 2L11 2L11 0ZM12 0L12 1L13 1L13 2L12 2L12 4L14 4L14 7L15 7L15 9L14 9L14 8L13 8L13 9L12 9L12 7L13 7L13 5L11 5L11 6L10 6L10 4L11 4L11 3L8 3L8 4L9 4L9 5L8 5L8 7L9 7L9 8L6 8L6 9L8 9L8 10L9 10L9 12L11 12L11 11L10 11L10 10L11 10L11 9L12 9L12 10L13 10L13 11L12 11L12 13L13 13L13 14L11 14L11 13L10 13L10 14L8 14L8 11L7 11L7 10L5 10L5 8L0 8L0 10L1 10L1 9L2 9L2 10L3 10L3 11L4 11L4 10L5 10L5 11L7 11L7 12L6 12L6 13L7 13L7 14L6 14L6 15L7 15L7 14L8 14L8 17L7 17L7 16L5 16L5 15L4 15L4 14L3 14L3 12L2 12L2 13L1 13L1 15L0 15L0 16L1 16L1 15L3 15L3 16L2 16L2 17L3 17L3 20L2 20L2 18L0 18L0 19L1 19L1 20L0 20L0 21L1 21L1 20L2 20L2 25L1 25L1 23L0 23L0 29L1 29L1 26L2 26L2 28L6 28L6 29L8 29L8 31L9 31L9 32L8 32L8 37L9 37L9 36L10 36L10 37L11 37L11 36L10 36L10 35L9 35L9 34L11 34L11 33L12 33L12 34L13 34L13 35L12 35L12 37L13 37L13 36L14 36L14 37L15 37L15 36L17 36L17 37L19 37L19 34L15 34L15 33L19 33L19 30L21 30L21 32L20 32L20 34L21 34L21 32L22 32L22 31L23 31L23 30L24 30L24 31L25 31L25 30L26 30L26 29L28 29L28 31L27 31L27 32L24 32L24 33L23 33L23 34L22 34L22 35L21 35L21 36L22 36L22 35L23 35L23 34L24 34L24 35L25 35L25 34L24 34L24 33L26 33L26 36L24 36L24 37L28 37L28 36L29 36L29 37L32 37L32 36L31 36L31 35L32 35L32 34L35 34L35 35L36 35L36 36L33 36L33 37L37 37L37 33L36 33L36 32L37 32L37 28L36 28L36 27L37 27L37 26L36 26L36 25L37 25L37 22L32 22L32 21L33 21L33 19L32 19L32 18L31 18L31 19L30 19L30 21L31 21L31 22L30 22L30 25L29 25L29 22L27 22L27 20L29 20L29 17L31 17L31 14L32 14L32 13L35 13L35 12L33 12L33 11L34 11L34 8L33 8L33 10L32 10L32 8L31 8L31 11L30 11L30 10L29 10L29 9L30 9L30 8L26 8L26 9L25 9L25 8L24 8L24 7L25 7L25 5L24 5L24 7L23 7L23 5L21 5L21 4L20 4L20 3L22 3L22 4L26 4L26 3L25 3L25 2L23 2L23 1L24 1L24 0L23 0L23 1L22 1L22 2L19 2L19 4L18 4L18 3L15 3L15 4L14 4L14 3L13 3L13 2L14 2L14 1L15 1L15 2L18 2L18 1L21 1L21 0L18 0L18 1L15 1L15 0ZM26 0L26 1L27 1L27 4L28 4L28 5L27 5L27 6L26 6L26 7L27 7L27 6L28 6L28 7L29 7L29 0L28 0L28 1L27 1L27 0ZM8 1L8 2L9 2L9 1ZM15 4L15 5L16 5L16 6L15 6L15 7L16 7L16 8L18 8L18 9L15 9L15 10L16 10L16 13L15 13L15 11L13 11L13 12L14 12L14 13L15 13L15 14L14 14L14 15L12 15L12 17L11 17L11 14L10 14L10 17L8 17L8 18L7 18L7 17L6 17L6 18L7 18L7 19L6 19L6 20L5 20L5 16L3 16L3 17L4 17L4 20L5 20L5 21L6 21L6 22L5 22L5 23L6 23L6 24L7 24L7 23L6 23L6 22L7 22L7 21L8 21L8 26L7 26L7 25L6 25L6 26L3 26L3 27L6 27L6 28L8 28L8 29L9 29L9 31L11 31L11 30L13 30L13 31L12 31L12 33L15 33L15 32L14 32L14 31L15 31L15 30L19 30L19 29L21 29L21 27L22 27L22 28L24 28L24 27L25 27L25 28L26 28L26 27L27 27L27 28L28 28L28 27L30 27L30 26L31 26L31 25L30 25L30 26L29 26L29 25L24 25L24 26L23 26L23 24L20 24L20 23L21 23L21 22L23 22L23 23L24 23L24 24L27 24L27 23L26 23L26 21L25 21L25 23L24 23L24 22L23 22L23 21L21 21L21 19L20 19L20 18L21 18L21 17L22 17L22 20L27 20L27 19L24 19L24 18L23 18L23 17L24 17L24 14L25 14L25 16L26 16L26 15L27 15L27 14L28 14L28 13L26 13L26 14L25 14L25 12L26 12L26 10L28 10L28 9L26 9L26 10L23 10L23 8L21 8L21 7L22 7L22 6L21 6L21 7L20 7L20 5L18 5L18 4ZM17 5L17 6L16 6L16 7L17 7L17 6L18 6L18 7L19 7L19 6L18 6L18 5ZM9 6L9 7L10 7L10 6ZM11 6L11 7L12 7L12 6ZM10 8L10 9L11 9L11 8ZM35 8L35 9L36 9L36 8ZM13 9L13 10L14 10L14 9ZM18 9L18 11L19 11L19 10L21 10L21 9ZM22 10L22 11L20 11L20 13L18 13L18 12L17 12L17 14L21 14L21 16L22 16L22 15L23 15L23 14L21 14L21 12L22 12L22 11L23 11L23 12L25 12L25 11L23 11L23 10ZM36 10L36 12L37 12L37 10ZM29 11L29 12L30 12L30 11ZM31 12L31 13L29 13L29 14L31 14L31 13L32 13L32 12ZM15 14L15 17L14 17L14 16L13 16L13 17L12 17L12 18L13 18L13 17L14 17L14 18L15 18L15 19L14 19L14 20L13 20L13 19L12 19L12 21L14 21L14 22L11 22L11 21L10 21L10 20L11 20L11 19L9 19L9 18L8 18L8 19L7 19L7 20L6 20L6 21L7 21L7 20L9 20L9 21L10 21L10 23L11 23L11 25L12 25L12 26L13 26L13 27L12 27L12 29L13 29L13 28L14 28L14 29L19 29L19 26L20 26L20 27L21 27L21 25L19 25L19 22L21 22L21 21L19 21L19 18L20 18L20 17L19 17L19 15L18 15L18 16L17 16L17 15L16 15L16 14ZM33 14L33 15L34 15L34 14ZM35 14L35 16L32 16L32 17L33 17L33 18L35 18L35 19L36 19L36 20L34 20L34 21L37 21L37 18L35 18L35 16L36 16L36 17L37 17L37 14ZM28 15L28 16L27 16L27 17L25 17L25 18L27 18L27 17L28 17L28 16L29 16L29 15ZM10 17L10 18L11 18L11 17ZM15 17L15 18L17 18L17 19L16 19L16 20L18 20L18 17ZM31 19L31 21L32 21L32 19ZM14 20L14 21L15 21L15 22L14 22L14 23L12 23L12 25L14 25L14 26L17 26L17 27L16 27L16 28L18 28L18 26L19 26L19 25L17 25L17 24L18 24L18 23L17 23L17 24L15 24L15 22L19 22L19 21L15 21L15 20ZM3 22L3 23L4 23L4 22ZM31 23L31 24L35 24L35 23ZM4 24L4 25L5 25L5 24ZM9 25L9 26L8 26L8 27L10 27L10 25ZM32 25L32 27L31 27L31 28L35 28L35 29L36 29L36 28L35 28L35 25L34 25L34 26L33 26L33 25ZM6 26L6 27L7 27L7 26ZM22 26L22 27L23 27L23 26ZM27 26L27 27L28 27L28 26ZM14 27L14 28L15 28L15 27ZM10 29L10 30L11 30L11 29ZM24 29L24 30L25 30L25 29ZM29 29L29 32L32 32L32 29ZM33 29L33 30L34 30L34 31L33 31L33 32L36 32L36 31L35 31L35 30L34 30L34 29ZM30 30L30 31L31 31L31 30ZM16 31L16 32L18 32L18 31ZM9 32L9 33L10 33L10 32ZM27 33L27 36L28 36L28 35L29 35L29 36L30 36L30 35L31 35L31 34L32 34L32 33L31 33L31 34L30 34L30 33ZM29 34L29 35L30 35L30 34ZM14 35L14 36L15 36L15 35ZM17 35L17 36L18 36L18 35ZM0 0L0 7L7 7L7 0ZM1 1L1 6L6 6L6 1ZM2 2L2 5L5 5L5 2ZM30 0L30 7L37 7L37 0ZM31 1L31 6L36 6L36 1ZM32 2L32 5L35 5L35 2ZM0 30L0 37L7 37L7 30ZM1 31L1 36L6 36L6 31ZM2 32L2 35L5 35L5 32Z" fill="#000000"/></g></g></svg>
