<?xml version="1.0" encoding="UTF-8"?>
<svg xmlns="http://www.w3.org/2000/svg" version="1.1" width="100" height="100" viewBox="0 0 100 100"><rect x="0" y="0" width="100" height="100" fill="#ffffff"/><g transform="scale(2.703)"><g transform="translate(0,0)"><path fill-rule="evenodd" d="M10 0L10 2L11 2L11 0ZM12 0L12 1L13 1L13 2L12 2L12 4L14 4L14 5L11 5L11 6L10 6L10 4L11 4L11 3L8 3L8 4L9 4L9 5L8 5L8 7L9 7L9 8L6 8L6 9L7 9L7 10L5 10L5 11L4 11L4 12L3 12L3 13L2 13L2 14L1 14L1 16L2 16L2 14L3 14L3 15L4 15L4 17L0 17L0 19L2 19L2 20L0 20L0 22L2 22L2 23L4 23L4 24L5 24L5 25L7 25L7 24L8 24L8 25L9 25L9 26L4 26L4 27L5 27L5 28L6 28L6 29L8 29L8 31L9 31L9 32L8 32L8 37L10 37L10 36L9 36L9 35L10 35L10 34L11 34L11 33L12 33L12 34L13 34L13 35L12 35L12 37L13 37L13 36L14 36L14 37L15 37L15 36L17 36L17 37L19 37L19 34L15 34L15 33L19 33L19 30L21 30L21 32L20 32L20 34L21 34L21 32L23 32L23 34L22 34L22 35L21 35L21 36L22 36L22 35L23 35L23 34L24 34L24 35L25 35L25 34L24 34L24 32L25 32L25 33L27 33L27 34L26 34L26 36L25 36L25 37L28 37L28 36L29 36L29 35L30 35L30 34L31 34L31 35L32 35L32 34L35 34L35 35L36 35L36 36L33 36L33 37L37 37L37 33L36 33L36 32L37 32L37 28L36 28L36 27L37 27L37 26L36 26L36 25L37 25L37 22L32 22L32 21L33 21L33 19L32 19L32 18L31 18L31 19L30 19L30 21L31 21L31 22L30 22L30 25L29 25L29 26L27 26L27 28L26 28L26 30L25 30L25 31L24 31L24 32L23 32L23 30L24 30L24 29L25 29L25 27L24 27L24 29L23 29L23 26L24 26L24 25L26 25L26 24L29 24L29 21L28 21L28 19L29 19L29 17L31 17L31 14L32 14L32 13L35 13L35 12L33 12L33 11L34 11L34 8L33 8L33 10L32 10L32 8L31 8L31 11L30 11L30 10L29 10L29 9L30 9L30 8L25 8L25 5L24 5L24 4L23 4L23 5L21 5L21 4L20 4L20 3L23 3L23 1L24 1L24 0L23 0L23 1L21 1L21 0L18 0L18 1L15 1L15 0ZM8 1L8 2L9 2L9 1ZM14 1L14 2L13 2L13 3L14 3L14 4L15 4L15 5L14 5L14 6L13 6L13 7L12 7L12 6L11 6L11 7L12 7L12 9L11 9L11 8L10 8L10 9L9 9L9 10L7 10L7 11L5 11L5 12L4 12L4 14L5 14L5 17L6 17L6 18L9 18L9 17L10 17L10 19L11 19L11 22L14 22L14 21L15 21L15 22L19 22L19 25L17 25L17 24L18 24L18 23L17 23L17 24L14 24L14 23L12 23L12 25L10 25L10 20L9 20L9 19L6 19L6 20L4 20L4 19L5 19L5 18L4 18L4 19L3 19L3 20L4 20L4 21L5 21L5 22L4 22L4 23L5 23L5 24L7 24L7 23L8 23L8 24L9 24L9 25L10 25L10 26L9 26L9 27L10 27L10 26L11 26L11 28L10 28L10 29L9 29L9 28L8 28L8 27L6 27L6 28L8 28L8 29L9 29L9 31L10 31L10 33L9 33L9 34L10 34L10 33L11 33L11 30L13 30L13 31L12 31L12 33L15 33L15 32L14 32L14 31L15 31L15 30L19 30L19 29L21 29L21 30L23 30L23 29L22 29L22 28L21 28L21 27L22 27L22 26L23 26L23 25L22 25L22 24L20 24L20 23L24 23L24 24L26 24L26 23L27 23L27 21L26 21L26 22L25 22L25 21L24 21L24 22L23 22L23 21L21 21L21 19L22 19L22 20L24 20L24 19L25 19L25 20L27 20L27 18L28 18L28 17L29 17L29 16L28 16L28 15L29 15L29 14L31 14L31 13L32 13L32 12L31 12L31 13L29 13L29 12L30 12L30 11L28 11L28 12L27 12L27 14L28 14L28 15L26 15L26 13L24 13L24 12L26 12L26 9L25 9L25 8L23 8L23 7L24 7L24 5L23 5L23 7L22 7L22 6L21 6L21 7L20 7L20 5L18 5L18 4L19 4L19 2L21 2L21 1L18 1L18 2L16 2L16 3L18 3L18 4L15 4L15 1ZM27 1L27 3L26 3L26 5L27 5L27 6L26 6L26 7L27 7L27 6L28 6L28 7L29 7L29 4L28 4L28 2L29 2L29 1ZM27 4L27 5L28 5L28 4ZM15 5L15 6L14 6L14 8L13 8L13 9L12 9L12 10L13 10L13 9L14 9L14 10L15 10L15 11L14 11L14 12L13 12L13 11L12 11L12 13L13 13L13 14L11 14L11 13L10 13L10 12L11 12L11 9L10 9L10 12L9 12L9 11L7 11L7 12L5 12L5 13L7 13L7 14L6 14L6 15L7 15L7 14L8 14L8 12L9 12L9 14L11 14L11 15L10 15L10 16L11 16L11 17L12 17L12 18L13 18L13 17L14 17L14 18L15 18L15 19L14 19L14 20L13 20L13 19L12 19L12 21L14 21L14 20L15 20L15 21L19 21L19 22L21 22L21 21L19 21L19 18L20 18L20 19L21 19L21 18L20 18L20 17L19 17L19 15L18 15L18 16L16 16L16 15L17 15L17 14L24 14L24 15L21 15L21 16L23 16L23 18L22 18L22 19L23 19L23 18L24 18L24 17L26 17L26 18L25 18L25 19L26 19L26 18L27 18L27 16L24 16L24 15L25 15L25 14L24 14L24 13L23 13L23 12L24 12L24 11L23 11L23 12L22 12L22 9L18 9L18 8L16 8L16 7L17 7L17 6L18 6L18 7L19 7L19 6L18 6L18 5L17 5L17 6L16 6L16 5ZM9 6L9 7L10 7L10 6ZM15 6L15 7L16 7L16 6ZM21 7L21 8L22 8L22 7ZM0 8L0 10L1 10L1 11L3 11L3 10L2 10L2 9L5 9L5 8ZM14 8L14 9L15 9L15 10L16 10L16 13L15 13L15 12L14 12L14 13L15 13L15 14L14 14L14 15L12 15L12 17L13 17L13 16L14 16L14 17L15 17L15 18L16 18L16 20L18 20L18 17L16 17L16 16L15 16L15 14L17 14L17 12L18 12L18 13L20 13L20 11L21 11L21 10L19 10L19 11L18 11L18 9L15 9L15 8ZM35 8L35 9L36 9L36 8ZM23 9L23 10L24 10L24 9ZM27 9L27 10L28 10L28 9ZM36 10L36 12L37 12L37 10ZM0 12L0 13L1 13L1 12ZM28 13L28 14L29 14L29 13ZM33 14L33 15L34 15L34 14ZM35 14L35 16L32 16L32 17L33 17L33 18L35 18L35 19L36 19L36 20L34 20L34 21L37 21L37 18L35 18L35 16L36 16L36 17L37 17L37 14ZM8 15L8 16L6 16L6 17L9 17L9 15ZM31 19L31 21L32 21L32 19ZM6 20L6 21L8 21L8 20ZM2 21L2 22L3 22L3 21ZM5 22L5 23L7 23L7 22ZM8 22L8 23L9 23L9 22ZM24 22L24 23L25 23L25 22ZM0 23L0 24L1 24L1 23ZM31 23L31 24L35 24L35 23ZM2 24L2 28L3 28L3 24ZM0 25L0 29L1 29L1 25ZM12 25L12 26L13 26L13 27L12 27L12 29L13 29L13 28L14 28L14 29L19 29L19 26L20 26L20 27L21 27L21 25L19 25L19 26L18 26L18 28L16 28L16 27L17 27L17 26L14 26L14 25ZM30 25L30 26L29 26L29 27L30 27L30 26L31 26L31 25ZM32 25L32 27L31 27L31 28L35 28L35 29L36 29L36 28L35 28L35 25L34 25L34 26L33 26L33 25ZM14 27L14 28L15 28L15 27ZM10 29L10 30L11 30L11 29ZM27 29L27 30L26 30L26 31L25 31L25 32L26 32L26 31L28 31L28 29ZM29 29L29 32L32 32L32 29ZM33 29L33 30L34 30L34 31L33 31L33 32L36 32L36 31L35 31L35 30L34 30L34 29ZM30 30L30 31L31 31L31 30ZM16 31L16 32L18 32L18 31ZM28 33L28 35L27 35L27 36L28 36L28 35L29 35L29 34L30 34L30 33ZM31 33L31 34L32 34L32 33ZM14 35L14 36L15 36L15 35ZM17 35L17 36L18 36L18 35ZM30 36L30 37L32 37L32 36ZM0 0L0 7L7 7L7 0ZM1 1L1 6L6 6L6 1ZM2 2L2 5L5 5L5 2ZM30 0L30 7L37 7L37 0ZM31 1L31 6L36 6L36 1ZM32 2L32 5L35 5L35 2ZM0 30L0 37L7 37L7 30ZM1 31L1 36L6 36L6 31ZM2 32L2 35L5 35L5 32Z" fill="#000000"/></g></g></svg>
