<?xml version="1.0" encoding="UTF-8"?>
<svg xmlns="http://www.w3.org/2000/svg" version="1.1" width="100" height="100" viewBox="0 0 100 100"><rect x="0" y="0" width="100" height="100" fill="#ffffff"/><g transform="scale(2.703)"><g transform="translate(0,0)"><path fill-rule="evenodd" d="M8 0L8 1L9 1L9 2L8 2L8 5L9 5L9 4L11 4L11 5L10 5L10 11L9 11L9 8L8 8L8 11L7 11L7 10L6 10L6 9L7 9L7 8L6 8L6 9L4 9L4 8L0 8L0 10L1 10L1 9L2 9L2 11L3 11L3 13L4 13L4 14L5 14L5 15L4 15L4 16L5 16L5 17L4 17L4 18L5 18L5 20L4 20L4 21L3 21L3 20L2 20L2 18L3 18L3 16L1 16L1 14L2 14L2 15L3 15L3 14L2 14L2 13L1 13L1 11L0 11L0 17L1 17L1 20L0 20L0 21L1 21L1 20L2 20L2 21L3 21L3 22L2 22L2 23L0 23L0 24L2 24L2 25L1 25L1 27L0 27L0 28L1 28L1 27L2 27L2 29L7 29L7 28L6 28L6 27L8 27L8 28L9 28L9 29L8 29L8 30L9 30L9 31L12 31L12 32L9 32L9 33L8 33L8 37L9 37L9 34L11 34L11 35L14 35L14 34L15 34L15 33L14 33L14 32L13 32L13 30L14 30L14 29L12 29L12 28L14 28L14 27L15 27L15 28L16 28L16 29L15 29L15 31L17 31L17 33L18 33L18 31L19 31L19 29L18 29L18 30L17 30L17 28L16 28L16 27L15 27L15 26L16 26L16 25L13 25L13 26L12 26L12 24L15 24L15 21L14 21L14 23L11 23L11 24L10 24L10 23L9 23L9 24L10 24L10 25L11 25L11 26L10 26L10 27L9 27L9 26L8 26L8 23L7 23L7 22L9 22L9 21L8 21L8 20L6 20L6 19L7 19L7 18L5 18L5 17L8 17L8 12L11 12L11 11L13 11L13 12L12 12L12 13L10 13L10 14L11 14L11 16L12 16L12 17L13 17L13 18L15 18L15 19L17 19L17 21L18 21L18 19L19 19L19 18L18 18L18 19L17 19L17 14L16 14L16 12L17 12L17 13L18 13L18 12L20 12L20 13L19 13L19 14L18 14L18 16L19 16L19 15L20 15L20 13L21 13L21 14L22 14L22 13L21 13L21 11L22 11L22 12L24 12L24 11L25 11L25 13L23 13L23 14L25 14L25 15L24 15L24 16L23 16L23 17L22 17L22 15L21 15L21 16L20 16L20 17L22 17L22 18L20 18L20 20L19 20L19 22L20 22L20 23L19 23L19 24L17 24L17 26L19 26L19 27L18 27L18 28L19 28L19 27L21 27L21 28L20 28L20 30L21 30L21 31L20 31L20 32L19 32L19 33L20 33L20 35L19 35L19 36L17 36L17 37L19 37L19 36L20 36L20 35L22 35L22 36L23 36L23 35L24 35L24 37L28 37L28 34L27 34L27 31L26 31L26 34L27 34L27 35L24 35L24 33L23 33L23 32L25 32L25 29L26 29L26 28L27 28L27 27L26 27L26 26L28 26L28 29L27 29L27 30L28 30L28 33L30 33L30 35L31 35L31 36L29 36L29 37L32 37L32 35L33 35L33 37L37 37L37 36L35 36L35 35L34 35L34 34L37 34L37 32L36 32L36 31L37 31L37 30L36 30L36 26L37 26L37 24L36 24L36 23L35 23L35 22L34 22L34 23L33 23L33 24L32 24L32 21L34 21L34 19L33 19L33 20L31 20L31 24L30 24L30 26L33 26L33 27L35 27L35 28L34 28L34 29L33 29L33 28L31 28L31 27L29 27L29 26L28 26L28 25L29 25L29 24L26 24L26 23L24 23L24 22L25 22L25 21L24 21L24 20L25 20L25 19L26 19L26 22L27 22L27 21L29 21L29 20L30 20L30 19L29 19L29 18L26 18L26 16L27 16L27 17L29 17L29 16L31 16L31 15L32 15L32 14L34 14L34 15L35 15L35 16L34 16L34 17L36 17L36 18L35 18L35 21L36 21L36 19L37 19L37 17L36 17L36 16L37 16L37 15L36 15L36 14L37 14L37 13L35 13L35 11L36 11L36 10L35 10L35 11L32 11L32 9L33 9L33 10L34 10L34 9L35 9L35 8L32 8L32 9L31 9L31 10L30 10L30 11L32 11L32 13L31 13L31 12L27 12L27 11L25 11L25 10L26 10L26 9L27 9L27 8L28 8L28 7L29 7L29 6L28 6L28 7L27 7L27 6L26 6L26 5L29 5L29 3L27 3L27 4L26 4L26 2L27 2L27 0L26 0L26 2L25 2L25 1L24 1L24 0L23 0L23 1L21 1L21 0L18 0L18 3L17 3L17 1L16 1L16 2L15 2L15 0L12 0L12 1L11 1L11 0L10 0L10 1L9 1L9 0ZM28 0L28 2L29 2L29 0ZM19 1L19 3L18 3L18 5L19 5L19 3L20 3L20 5L21 5L21 8L20 8L20 6L19 6L19 8L20 8L20 9L21 9L21 10L23 10L23 9L21 9L21 8L22 8L22 6L23 6L23 8L24 8L24 9L25 9L25 8L26 8L26 6L25 6L25 5L26 5L26 4L25 4L25 5L23 5L23 4L22 4L22 3L23 3L23 2L21 2L21 3L20 3L20 1ZM11 2L11 4L12 4L12 3L13 3L13 2ZM14 2L14 4L13 4L13 5L12 5L12 6L11 6L11 8L12 8L12 6L13 6L13 9L15 9L15 11L14 11L14 10L13 10L13 11L14 11L14 14L12 14L12 16L15 16L15 17L16 17L16 16L15 16L15 15L16 15L16 14L15 14L15 12L16 12L16 11L17 11L17 12L18 12L18 11L20 11L20 10L18 10L18 9L17 9L17 7L18 7L18 6L17 6L17 7L16 7L16 5L17 5L17 4L16 4L16 5L15 5L15 2ZM24 2L24 3L25 3L25 2ZM21 4L21 5L22 5L22 4ZM13 5L13 6L14 6L14 8L15 8L15 5ZM8 6L8 7L9 7L9 6ZM24 6L24 8L25 8L25 6ZM29 8L29 9L28 9L28 11L29 11L29 9L30 9L30 8ZM36 8L36 9L37 9L37 8ZM3 9L3 10L4 10L4 12L5 12L5 13L6 13L6 14L7 14L7 13L6 13L6 12L7 12L7 11L6 11L6 12L5 12L5 10L4 10L4 9ZM11 9L11 10L12 10L12 9ZM17 10L17 11L18 11L18 10ZM34 13L34 14L35 14L35 13ZM26 14L26 15L25 15L25 16L24 16L24 18L22 18L22 19L21 19L21 20L20 20L20 21L21 21L21 24L19 24L19 25L20 25L20 26L21 26L21 25L22 25L22 28L21 28L21 30L23 30L23 31L21 31L21 32L23 32L23 31L24 31L24 30L23 30L23 29L25 29L25 28L26 28L26 27L25 27L25 28L24 28L24 25L23 25L23 23L22 23L22 22L23 22L23 19L24 19L24 18L25 18L25 16L26 16L26 15L28 15L28 16L29 16L29 14ZM30 14L30 15L31 15L31 14ZM6 15L6 16L7 16L7 15ZM10 17L10 18L11 18L11 17ZM30 17L30 18L31 18L31 19L32 19L32 17ZM8 18L8 19L9 19L9 20L10 20L10 22L11 22L11 20L12 20L12 19L11 19L11 20L10 20L10 19L9 19L9 18ZM27 19L27 20L28 20L28 19ZM4 21L4 22L3 22L3 23L2 23L2 24L3 24L3 23L4 23L4 22L7 22L7 21ZM16 22L16 23L17 23L17 22ZM28 22L28 23L30 23L30 22ZM6 23L6 24L7 24L7 23ZM4 24L4 25L2 25L2 27L3 27L3 26L4 26L4 28L5 28L5 27L6 27L6 26L7 26L7 25L6 25L6 26L5 26L5 24ZM25 25L25 26L26 26L26 25ZM33 25L33 26L36 26L36 25ZM11 26L11 28L12 28L12 26ZM13 26L13 27L14 27L14 26ZM22 28L22 29L23 29L23 28ZM10 29L10 30L12 30L12 29ZM29 29L29 32L32 32L32 29ZM34 29L34 32L33 32L33 33L35 33L35 29ZM30 30L30 31L31 31L31 30ZM11 33L11 34L12 34L12 33ZM21 33L21 34L23 34L23 33ZM31 33L31 34L32 34L32 33ZM16 34L16 35L17 35L17 34ZM10 36L10 37L11 37L11 36ZM12 36L12 37L13 37L13 36ZM14 36L14 37L15 37L15 36ZM0 0L0 7L7 7L7 0ZM1 1L1 6L6 6L6 1ZM2 2L2 5L5 5L5 2ZM30 0L30 7L37 7L37 0ZM31 1L31 6L36 6L36 1ZM32 2L32 5L35 5L35 2ZM0 30L0 37L7 37L7 30ZM1 31L1 36L6 36L6 31ZM2 32L2 35L5 35L5 32Z" fill="#000000"/></g></g></svg>
