<?xml version="1.0" encoding="UTF-8"?>
<svg xmlns="http://www.w3.org/2000/svg" version="1.1" width="100" height="100" viewBox="0 0 100 100"><rect x="0" y="0" width="100" height="100" fill="#ffffff"/><g transform="scale(2.703)"><g transform="translate(0,0)"><path fill-rule="evenodd" d="M8 0L8 1L9 1L9 2L8 2L8 5L9 5L9 4L11 4L11 5L10 5L10 9L9 9L9 8L8 8L8 10L5 10L5 9L4 9L4 8L0 8L0 11L1 11L1 9L2 9L2 11L3 11L3 12L1 12L1 14L0 14L0 15L1 15L1 18L3 18L3 17L2 17L2 15L4 15L4 14L6 14L6 15L5 15L5 16L4 16L4 19L5 19L5 18L6 18L6 19L7 19L7 18L6 18L6 17L8 17L8 20L4 20L4 21L3 21L3 20L2 20L2 19L1 19L1 20L0 20L0 21L3 21L3 22L5 22L5 23L3 23L3 24L2 24L2 22L1 22L1 24L2 24L2 25L3 25L3 24L4 24L4 25L7 25L7 26L6 26L6 27L5 27L5 26L4 26L4 27L3 27L3 28L4 28L4 27L5 27L5 28L6 28L6 29L8 29L8 30L9 30L9 31L10 31L10 30L9 30L9 29L8 29L8 28L9 28L9 27L10 27L10 25L11 25L11 26L12 26L12 28L10 28L10 29L12 29L12 30L11 30L11 31L12 31L12 32L10 32L10 33L8 33L8 37L10 37L10 36L9 36L9 34L10 34L10 35L14 35L14 34L15 34L15 33L14 33L14 32L13 32L13 30L14 30L14 29L12 29L12 28L14 28L14 27L15 27L15 26L16 26L16 27L17 27L17 26L16 26L16 25L19 25L19 26L18 26L18 27L19 27L19 29L18 29L18 30L17 30L17 28L16 28L16 29L15 29L15 31L17 31L17 33L18 33L18 31L19 31L19 29L20 29L20 32L19 32L19 34L17 34L17 35L16 35L16 36L14 36L14 37L16 37L16 36L17 36L17 37L19 37L19 36L20 36L20 37L21 37L21 34L22 34L22 33L23 33L23 35L22 35L22 37L28 37L28 35L27 35L27 34L26 34L26 35L25 35L25 34L24 34L24 33L23 33L23 32L24 32L24 31L22 31L22 30L26 30L26 29L27 29L27 30L28 30L28 33L30 33L30 35L29 35L29 37L30 37L30 35L31 35L31 37L32 37L32 35L33 35L33 37L37 37L37 36L35 36L35 35L34 35L34 34L37 34L37 33L36 33L36 32L37 32L37 30L36 30L36 26L37 26L37 24L36 24L36 23L35 23L35 22L34 22L34 23L33 23L33 24L32 24L32 21L34 21L34 19L33 19L33 20L31 20L31 24L30 24L30 26L33 26L33 27L35 27L35 28L34 28L34 29L33 29L33 28L31 28L31 27L29 27L29 26L28 26L28 25L27 25L27 22L28 22L28 23L30 23L30 22L29 22L29 20L30 20L30 19L29 19L29 18L28 18L28 17L26 17L26 16L28 16L28 15L26 15L26 14L29 14L29 16L31 16L31 15L32 15L32 14L34 14L34 15L35 15L35 16L34 16L34 17L36 17L36 18L35 18L35 21L36 21L36 19L37 19L37 17L36 17L36 16L37 16L37 15L36 15L36 14L37 14L37 13L35 13L35 11L36 11L36 10L35 10L35 11L32 11L32 9L33 9L33 10L34 10L34 9L35 9L35 8L32 8L32 9L31 9L31 10L30 10L30 11L32 11L32 13L31 13L31 12L29 12L29 13L28 13L28 12L26 12L26 11L27 11L27 9L28 9L28 10L29 10L29 9L30 9L30 8L29 8L29 9L28 9L28 8L27 8L27 6L26 6L26 5L29 5L29 4L26 4L26 3L28 3L28 2L27 2L27 1L26 1L26 2L24 2L24 1L22 1L22 2L23 2L23 3L22 3L22 4L26 4L26 5L24 5L24 7L23 7L23 6L22 6L22 7L23 7L23 8L21 8L21 6L20 6L20 5L21 5L21 3L20 3L20 4L19 4L19 3L17 3L17 2L18 2L18 1L16 1L16 0L15 0L15 1L16 1L16 2L15 2L15 3L14 3L14 5L13 5L13 3L12 3L12 4L11 4L11 2L14 2L14 0L12 0L12 1L11 1L11 0L10 0L10 1L9 1L9 0ZM19 0L19 1L20 1L20 2L21 2L21 1L20 1L20 0ZM28 0L28 1L29 1L29 0ZM16 4L16 5L14 5L14 6L13 6L13 5L12 5L12 6L11 6L11 8L12 8L12 6L13 6L13 8L14 8L14 9L15 9L15 10L14 10L14 11L11 11L11 12L10 12L10 10L8 10L8 12L7 12L7 11L5 11L5 10L4 10L4 11L5 11L5 13L6 13L6 14L7 14L7 13L8 13L8 12L9 12L9 13L12 13L12 12L13 12L13 14L12 14L12 16L11 16L11 14L10 14L10 16L9 16L9 17L11 17L11 19L10 19L10 18L9 18L9 21L5 21L5 22L10 22L10 23L5 23L5 24L7 24L7 25L8 25L8 24L9 24L9 25L10 25L10 24L11 24L11 23L14 23L14 22L15 22L15 23L17 23L17 24L18 24L18 23L19 23L19 25L20 25L20 27L22 27L22 28L23 28L23 29L25 29L25 28L26 28L26 27L27 27L27 29L28 29L28 28L29 28L29 27L28 27L28 26L27 26L27 25L26 25L26 27L25 27L25 26L24 26L24 25L22 25L22 24L25 24L25 23L23 23L23 21L24 21L24 22L25 22L25 21L26 21L26 22L27 22L27 21L26 21L26 19L27 19L27 20L28 20L28 19L27 19L27 18L26 18L26 17L25 17L25 16L26 16L26 15L25 15L25 13L24 13L24 12L25 12L25 10L26 10L26 9L25 9L25 8L26 8L26 6L25 6L25 7L24 7L24 8L23 8L23 9L21 9L21 8L20 8L20 6L19 6L19 5L18 5L18 6L17 6L17 4ZM8 6L8 7L9 7L9 6ZM14 6L14 7L15 7L15 8L16 8L16 7L17 7L17 9L18 9L18 7L19 7L19 6L18 6L18 7L17 7L17 6L16 6L16 7L15 7L15 6ZM28 6L28 7L29 7L29 6ZM6 8L6 9L7 9L7 8ZM19 8L19 10L20 10L20 11L19 11L19 12L17 12L17 11L15 11L15 12L14 12L14 14L13 14L13 15L14 15L14 18L13 18L13 21L15 21L15 19L17 19L17 21L18 21L18 20L19 20L19 22L22 22L22 20L21 20L21 21L20 21L20 19L22 19L22 18L21 18L21 16L22 16L22 17L23 17L23 18L24 18L24 17L23 17L23 16L22 16L22 15L23 15L23 14L22 14L22 15L21 15L21 14L20 14L20 12L21 12L21 11L22 11L22 12L23 12L23 11L24 11L24 10L20 10L20 8ZM36 8L36 9L37 9L37 8ZM11 9L11 10L12 10L12 9ZM6 12L6 13L7 13L7 12ZM15 12L15 13L16 13L16 14L14 14L14 15L16 15L16 16L15 16L15 17L16 17L16 16L17 16L17 19L18 19L18 17L19 17L19 19L20 19L20 16L21 16L21 15L18 15L18 14L19 14L19 13L16 13L16 12ZM2 13L2 14L1 14L1 15L2 15L2 14L4 14L4 13ZM34 13L34 14L35 14L35 13ZM30 14L30 15L31 15L31 14ZM6 15L6 16L5 16L5 17L6 17L6 16L8 16L8 15ZM12 16L12 17L13 17L13 16ZM30 17L30 18L31 18L31 19L32 19L32 17ZM25 18L25 19L26 19L26 18ZM11 19L11 20L12 20L12 19ZM23 19L23 20L24 20L24 19ZM10 21L10 22L11 22L11 21ZM17 22L17 23L18 23L18 22ZM20 23L20 24L21 24L21 23ZM12 24L12 26L13 26L13 27L14 27L14 26L15 26L15 25L16 25L16 24ZM13 25L13 26L14 26L14 25ZM33 25L33 26L36 26L36 25ZM1 26L1 27L0 27L0 28L1 28L1 27L2 27L2 26ZM8 26L8 27L6 27L6 28L8 28L8 27L9 27L9 26ZM21 29L21 30L22 30L22 29ZM29 29L29 32L32 32L32 29ZM34 29L34 32L33 32L33 33L35 33L35 29ZM30 30L30 31L31 31L31 30ZM21 31L21 32L20 32L20 33L21 33L21 32L22 32L22 31ZM26 31L26 32L25 32L25 33L27 33L27 31ZM10 33L10 34L12 34L12 33ZM31 33L31 34L32 34L32 33ZM19 34L19 35L17 35L17 36L19 36L19 35L20 35L20 34ZM23 35L23 36L24 36L24 35ZM12 36L12 37L13 37L13 36ZM0 0L0 7L7 7L7 0ZM1 1L1 6L6 6L6 1ZM2 2L2 5L5 5L5 2ZM30 0L30 7L37 7L37 0ZM31 1L31 6L36 6L36 1ZM32 2L32 5L35 5L35 2ZM0 30L0 37L7 37L7 30ZM1 31L1 36L6 36L6 31ZM2 32L2 35L5 35L5 32Z" fill="#000000"/></g></g></svg>
