<?xml version="1.0" encoding="UTF-8"?>
<svg xmlns="http://www.w3.org/2000/svg" version="1.1" width="100" height="100" viewBox="0 0 100 100"><rect x="0" y="0" width="100" height="100" fill="#ffffff"/><g transform="scale(2.703)"><g transform="translate(0,0)"><path fill-rule="evenodd" d="M8 0L8 4L10 4L10 3L11 3L11 4L12 4L12 2L11 2L11 0ZM12 0L12 1L13 1L13 0ZM15 0L15 1L14 1L14 2L15 2L15 1L16 1L16 3L15 3L15 5L16 5L16 3L18 3L18 5L17 5L17 6L16 6L16 7L15 7L15 6L14 6L14 3L13 3L13 5L11 5L11 6L10 6L10 7L9 7L9 5L8 5L8 7L9 7L9 8L10 8L10 7L11 7L11 6L12 6L12 8L11 8L11 9L8 9L8 11L10 11L10 12L9 12L9 13L8 13L8 15L7 15L7 14L6 14L6 13L7 13L7 12L6 12L6 13L5 13L5 11L4 11L4 10L3 10L3 11L2 11L2 10L1 10L1 9L2 9L2 8L0 8L0 10L1 10L1 11L0 11L0 13L1 13L1 15L0 15L0 16L1 16L1 18L0 18L0 21L1 21L1 22L2 22L2 21L3 21L3 22L4 22L4 23L3 23L3 25L2 25L2 23L0 23L0 24L1 24L1 25L0 25L0 26L2 26L2 27L3 27L3 26L5 26L5 28L0 28L0 29L5 29L5 28L6 28L6 29L8 29L8 30L9 30L9 31L8 31L8 33L9 33L9 34L10 34L10 35L11 35L11 36L12 36L12 37L14 37L14 35L15 35L15 37L16 37L16 33L19 33L19 34L20 34L20 32L18 32L18 31L16 31L16 29L21 29L21 34L22 34L22 29L23 29L23 35L21 35L21 36L18 36L18 35L17 35L17 37L22 37L22 36L25 36L25 35L24 35L24 31L26 31L26 32L28 32L28 33L30 33L30 35L29 35L29 34L27 34L27 33L25 33L25 34L26 34L26 36L27 36L27 35L29 35L29 36L30 36L30 37L31 37L31 35L32 35L32 33L33 33L33 31L34 31L34 37L37 37L37 36L36 36L36 35L35 35L35 34L37 34L37 33L36 33L36 31L35 31L35 30L37 30L37 27L36 27L36 29L35 29L35 26L36 26L36 25L37 25L37 24L35 24L35 23L34 23L34 21L37 21L37 20L36 20L36 19L35 19L35 14L34 14L34 13L35 13L35 12L36 12L36 10L33 10L33 9L37 9L37 8L33 8L33 9L32 9L32 8L31 8L31 9L32 9L32 10L30 10L30 11L28 11L28 10L29 10L29 1L28 1L28 0L25 0L25 2L23 2L23 1L24 1L24 0L23 0L23 1L22 1L22 0L21 0L21 1L19 1L19 0L18 0L18 1L16 1L16 0ZM18 1L18 2L19 2L19 1ZM21 1L21 2L22 2L22 3L20 3L20 4L19 4L19 5L18 5L18 6L17 6L17 7L18 7L18 6L19 6L19 8L18 8L18 9L16 9L16 8L15 8L15 7L14 7L14 6L13 6L13 8L12 8L12 9L11 9L11 10L12 10L12 9L13 9L13 11L12 11L12 12L10 12L10 13L9 13L9 16L7 16L7 15L6 15L6 14L5 14L5 13L4 13L4 11L3 11L3 12L2 12L2 11L1 11L1 13L2 13L2 14L3 14L3 15L1 15L1 16L3 16L3 15L6 15L6 16L4 16L4 17L2 17L2 19L1 19L1 21L2 21L2 19L3 19L3 20L4 20L4 19L5 19L5 22L7 22L7 21L8 21L8 20L9 20L9 21L10 21L10 22L11 22L11 24L10 24L10 23L9 23L9 22L8 22L8 24L9 24L9 25L8 25L8 26L7 26L7 25L6 25L6 24L7 24L7 23L6 23L6 24L4 24L4 25L5 25L5 26L7 26L7 27L6 27L6 28L8 28L8 26L10 26L10 27L11 27L11 26L12 26L12 25L13 25L13 26L14 26L14 25L13 25L13 24L14 24L14 23L15 23L15 21L16 21L16 27L17 27L17 26L18 26L18 28L21 28L21 27L22 27L22 28L23 28L23 29L24 29L24 30L25 30L25 29L24 29L24 28L26 28L26 31L28 31L28 30L27 30L27 29L28 29L28 28L33 28L33 29L34 29L34 26L35 26L35 25L34 25L34 23L31 23L31 22L32 22L32 21L33 21L33 20L34 20L34 15L33 15L33 14L32 14L32 13L34 13L34 11L33 11L33 12L32 12L32 13L29 13L29 12L28 12L28 13L29 13L29 15L26 15L26 14L27 14L27 12L26 12L26 10L27 10L27 9L28 9L28 5L27 5L27 4L26 4L26 3L27 3L27 2L28 2L28 1L27 1L27 2L25 2L25 4L24 4L24 5L23 5L23 4L22 4L22 3L23 3L23 2L22 2L22 1ZM9 2L9 3L10 3L10 2ZM21 4L21 5L22 5L22 7L21 7L21 6L20 6L20 5L19 5L19 6L20 6L20 7L21 7L21 8L19 8L19 9L18 9L18 10L16 10L16 9L15 9L15 8L14 8L14 9L15 9L15 12L14 12L14 13L15 13L15 16L14 16L14 17L12 17L12 16L13 16L13 15L14 15L14 14L13 14L13 15L12 15L12 16L11 16L11 13L10 13L10 16L11 16L11 17L10 17L10 18L11 18L11 20L10 20L10 21L11 21L11 20L12 20L12 21L13 21L13 22L14 22L14 21L15 21L15 20L16 20L16 21L21 21L21 22L22 22L22 23L20 23L20 24L18 24L18 23L17 23L17 25L21 25L21 26L20 26L20 27L21 27L21 26L22 26L22 25L23 25L23 28L24 28L24 27L25 27L25 26L27 26L27 28L28 28L28 22L29 22L29 24L30 24L30 25L29 25L29 27L30 27L30 25L31 25L31 24L30 24L30 22L29 22L29 21L28 21L28 22L27 22L27 21L26 21L26 22L27 22L27 23L26 23L26 25L25 25L25 23L24 23L24 21L25 21L25 20L24 20L24 19L26 19L26 17L25 17L25 15L24 15L24 13L25 13L25 14L26 14L26 13L25 13L25 10L26 10L26 9L25 9L25 10L24 10L24 9L23 9L23 10L21 10L21 11L20 11L20 12L19 12L19 11L18 11L18 10L19 10L19 9L22 9L22 8L23 8L23 5L22 5L22 4ZM25 4L25 5L24 5L24 7L25 7L25 6L26 6L26 7L27 7L27 5L26 5L26 4ZM4 8L4 9L7 9L7 8ZM6 10L6 11L7 11L7 10ZM23 11L23 13L24 13L24 11ZM30 11L30 12L31 12L31 11ZM12 12L12 13L13 13L13 12ZM15 12L15 13L16 13L16 14L17 14L17 12ZM18 12L18 13L19 13L19 15L18 15L18 16L21 16L21 15L22 15L22 18L21 18L21 19L20 19L20 17L19 17L19 18L18 18L18 17L16 17L16 16L17 16L17 15L16 15L16 16L15 16L15 17L14 17L14 18L13 18L13 19L12 19L12 20L13 20L13 21L14 21L14 19L15 19L15 17L16 17L16 19L17 19L17 18L18 18L18 20L21 20L21 21L22 21L22 22L23 22L23 21L22 21L22 20L21 20L21 19L23 19L23 16L24 16L24 15L22 15L22 12L20 12L20 13L19 13L19 12ZM3 13L3 14L4 14L4 13ZM6 16L6 17L7 17L7 18L5 18L5 19L7 19L7 20L6 20L6 21L7 21L7 20L8 20L8 19L9 19L9 18L8 18L8 17L7 17L7 16ZM27 16L27 20L30 20L30 21L32 21L32 20L33 20L33 19L32 19L32 18L33 18L33 17L32 17L32 16L29 16L29 17L28 17L28 16ZM36 16L36 17L37 17L37 16ZM11 17L11 18L12 18L12 17ZM24 17L24 18L25 18L25 17ZM29 17L29 18L28 18L28 19L29 19L29 18L31 18L31 17ZM30 19L30 20L32 20L32 19ZM12 23L12 24L11 24L11 25L10 25L10 26L11 26L11 25L12 25L12 24L13 24L13 23ZM22 23L22 24L24 24L24 23ZM24 25L24 26L25 26L25 25ZM32 25L32 26L31 26L31 27L32 27L32 26L33 26L33 25ZM12 27L12 28L11 28L11 30L10 30L10 28L9 28L9 30L10 30L10 31L9 31L9 33L10 33L10 31L11 31L11 32L12 32L12 33L11 33L11 34L12 34L12 33L13 33L13 34L15 34L15 33L16 33L16 32L15 32L15 33L13 33L13 32L14 32L14 31L15 31L15 30L13 30L13 29L12 29L12 28L13 28L13 27ZM14 27L14 29L16 29L16 28L15 28L15 27ZM29 29L29 32L32 32L32 29ZM30 30L30 31L31 31L31 30ZM12 31L12 32L13 32L13 31ZM8 35L8 37L10 37L10 36L9 36L9 35ZM12 35L12 36L13 36L13 35ZM32 36L32 37L33 37L33 36ZM0 0L0 7L7 7L7 0ZM1 1L1 6L6 6L6 1ZM2 2L2 5L5 5L5 2ZM30 0L30 7L37 7L37 0ZM31 1L31 6L36 6L36 1ZM32 2L32 5L35 5L35 2ZM0 30L0 37L7 37L7 30ZM1 31L1 36L6 36L6 31ZM2 32L2 35L5 35L5 32Z" fill="#000000"/></g></g></svg>
