<?xml version="1.0" encoding="UTF-8"?>
<svg xmlns="http://www.w3.org/2000/svg" version="1.1" width="100" height="100" viewBox="0 0 100 100"><rect x="0" y="0" width="100" height="100" fill="#ffffff"/><g transform="scale(2.703)"><g transform="translate(0,0)"><path fill-rule="evenodd" d="M9 0L9 1L8 1L8 2L9 2L9 3L8 3L8 4L10 4L10 7L11 7L11 4L12 4L12 5L13 5L13 4L14 4L14 5L15 5L15 6L14 6L14 8L13 8L13 6L12 6L12 9L13 9L13 10L10 10L10 11L9 11L9 10L8 10L8 12L6 12L6 11L7 11L7 10L6 10L6 11L5 11L5 12L2 12L2 11L0 11L0 12L2 12L2 13L1 13L1 15L0 15L0 18L1 18L1 19L0 19L0 21L1 21L1 22L0 22L0 23L3 23L3 25L2 25L2 24L1 24L1 25L0 25L0 29L1 29L1 26L2 26L2 27L4 27L4 28L2 28L2 29L7 29L7 28L5 28L5 27L4 27L4 23L3 23L3 22L2 22L2 21L4 21L4 20L6 20L6 21L5 21L5 23L7 23L7 22L8 22L8 23L9 23L9 22L10 22L10 21L12 21L12 22L13 22L13 23L12 23L12 25L13 25L13 24L14 24L14 25L16 25L16 22L15 22L15 21L19 21L19 22L17 22L17 23L18 23L18 24L17 24L17 26L21 26L21 30L20 30L20 29L19 29L19 28L17 28L17 27L16 27L16 26L15 26L15 27L14 27L14 28L15 28L15 29L12 29L12 27L13 27L13 26L9 26L9 25L7 25L7 24L6 24L6 25L5 25L5 26L6 26L6 27L8 27L8 31L9 31L9 32L8 32L8 37L10 37L10 36L11 36L11 37L12 37L12 35L13 35L13 34L11 34L11 35L10 35L10 36L9 36L9 33L11 33L11 31L9 31L9 29L10 29L10 30L11 30L11 29L12 29L12 30L13 30L13 31L12 31L12 33L13 33L13 32L14 32L14 33L19 33L19 34L18 34L18 35L19 35L19 34L21 34L21 35L20 35L20 36L22 36L22 37L23 37L23 35L22 35L22 33L23 33L23 34L24 34L24 33L26 33L26 35L28 35L28 36L25 36L25 35L24 35L24 37L28 37L28 36L29 36L29 37L32 37L32 36L31 36L31 35L32 35L32 34L35 34L35 35L36 35L36 36L33 36L33 37L37 37L37 33L35 33L35 32L37 32L37 28L36 28L36 27L37 27L37 26L36 26L36 25L37 25L37 22L32 22L32 21L33 21L33 19L32 19L32 18L31 18L31 19L30 19L30 21L31 21L31 22L30 22L30 25L29 25L29 24L27 24L27 23L29 23L29 22L27 22L27 23L26 23L26 24L23 24L23 26L26 26L26 25L29 25L29 26L27 26L27 28L24 28L24 27L23 27L23 28L22 28L22 25L21 25L21 24L22 24L22 23L23 23L23 22L24 22L24 23L25 23L25 22L26 22L26 21L27 21L27 20L29 20L29 17L31 17L31 14L32 14L32 13L35 13L35 12L33 12L33 11L34 11L34 8L33 8L33 10L32 10L32 8L31 8L31 11L30 11L30 10L29 10L29 9L30 9L30 8L29 8L29 9L28 9L28 10L27 10L27 8L28 8L28 7L29 7L29 4L28 4L28 5L26 5L26 4L27 4L27 3L24 3L24 2L25 2L25 1L26 1L26 0L23 0L23 1L21 1L21 0L17 0L17 1L20 1L20 2L21 2L21 3L22 3L22 2L23 2L23 5L24 5L24 7L25 7L25 6L26 6L26 8L25 8L25 9L26 9L26 11L28 11L28 10L29 10L29 11L30 11L30 12L29 12L29 13L28 13L28 12L27 12L27 13L28 13L28 14L27 14L27 16L26 16L26 18L24 18L24 21L23 21L23 22L22 22L22 23L20 23L20 25L19 25L19 22L21 22L21 21L19 21L19 18L20 18L20 19L21 19L21 20L22 20L22 19L23 19L23 16L25 16L25 15L23 15L23 14L25 14L25 13L26 13L26 12L24 12L24 11L25 11L25 10L24 10L24 11L23 11L23 10L21 10L21 9L23 9L23 8L22 8L22 7L23 7L23 6L22 6L22 4L19 4L19 2L18 2L18 3L16 3L16 1L15 1L15 0L13 0L13 1L11 1L11 2L10 2L10 0ZM28 0L28 1L27 1L27 2L28 2L28 3L29 3L29 2L28 2L28 1L29 1L29 0ZM14 1L14 2L12 2L12 4L13 4L13 3L14 3L14 4L15 4L15 5L17 5L17 7L16 7L16 6L15 6L15 7L16 7L16 8L18 8L18 4L16 4L16 3L15 3L15 1ZM23 1L23 2L24 2L24 1ZM10 3L10 4L11 4L11 3ZM8 5L8 7L9 7L9 5ZM19 5L19 7L20 7L20 5ZM21 6L21 7L22 7L22 6ZM27 6L27 7L28 7L28 6ZM0 8L0 9L2 9L2 10L3 10L3 11L4 11L4 9L5 9L5 8ZM6 8L6 9L11 9L11 8ZM14 8L14 9L15 9L15 10L13 10L13 11L12 11L12 13L11 13L11 15L10 15L10 18L9 18L9 19L6 19L6 18L7 18L7 17L6 17L6 16L7 16L7 15L9 15L9 13L10 13L10 12L8 12L8 14L7 14L7 13L6 13L6 14L7 14L7 15L6 15L6 16L5 16L5 17L4 17L4 16L3 16L3 17L1 17L1 18L2 18L2 19L3 19L3 20L4 20L4 19L6 19L6 20L7 20L7 21L6 21L6 22L7 22L7 21L8 21L8 20L9 20L9 19L10 19L10 20L11 20L11 18L13 18L13 19L12 19L12 21L15 21L15 20L14 20L14 19L15 19L15 18L16 18L16 20L18 20L18 19L17 19L17 18L19 18L19 17L14 17L14 16L15 16L15 15L14 15L14 16L13 16L13 17L12 17L12 15L13 15L13 14L12 14L12 13L14 13L14 14L16 14L16 15L17 15L17 16L18 16L18 14L19 14L19 15L22 15L22 16L23 16L23 15L22 15L22 14L23 14L23 12L19 12L19 13L16 13L16 12L18 12L18 11L17 11L17 10L19 10L19 11L20 11L20 10L19 10L19 9L21 9L21 8L19 8L19 9L15 9L15 8ZM35 8L35 9L36 9L36 8ZM15 10L15 11L16 11L16 10ZM36 10L36 12L37 12L37 10ZM31 12L31 13L29 13L29 14L31 14L31 13L32 13L32 12ZM2 13L2 15L3 15L3 13ZM19 13L19 14L21 14L21 13ZM33 14L33 15L34 15L34 14ZM35 14L35 16L32 16L32 17L33 17L33 18L35 18L35 19L36 19L36 20L34 20L34 21L37 21L37 18L35 18L35 16L36 16L36 17L37 17L37 14ZM28 15L28 17L29 17L29 15ZM20 16L20 17L21 17L21 16ZM3 17L3 19L4 19L4 17ZM26 18L26 19L25 19L25 20L26 20L26 19L27 19L27 18ZM31 19L31 21L32 21L32 19ZM14 23L14 24L15 24L15 23ZM31 23L31 24L35 24L35 23ZM10 24L10 25L11 25L11 24ZM6 25L6 26L7 26L7 25ZM30 25L30 26L29 26L29 27L28 27L28 28L29 28L29 27L30 27L30 26L31 26L31 25ZM32 25L32 27L31 27L31 28L35 28L35 29L36 29L36 28L35 28L35 25L34 25L34 26L33 26L33 25ZM8 26L8 27L9 27L9 28L10 28L10 29L11 29L11 27L9 27L9 26ZM23 28L23 29L24 29L24 30L22 30L22 32L21 32L21 31L20 31L20 30L19 30L19 29L15 29L15 30L17 30L17 31L16 31L16 32L19 32L19 33L22 33L22 32L23 32L23 31L24 31L24 32L26 32L26 31L24 31L24 30L25 30L25 29L24 29L24 28ZM26 29L26 30L27 30L27 31L28 31L28 29ZM29 29L29 32L32 32L32 29ZM33 29L33 30L34 30L34 31L33 31L33 32L35 32L35 30L34 30L34 29ZM18 30L18 31L19 31L19 30ZM30 30L30 31L31 31L31 30ZM14 31L14 32L15 32L15 31ZM27 33L27 34L28 34L28 35L29 35L29 36L30 36L30 35L31 35L31 34L32 34L32 33L31 33L31 34L30 34L30 33ZM15 34L15 35L14 35L14 36L17 36L17 37L19 37L19 36L17 36L17 34ZM29 34L29 35L30 35L30 34ZM0 0L0 7L7 7L7 0ZM1 1L1 6L6 6L6 1ZM2 2L2 5L5 5L5 2ZM30 0L30 7L37 7L37 0ZM31 1L31 6L36 6L36 1ZM32 2L32 5L35 5L35 2ZM0 30L0 37L7 37L7 30ZM1 31L1 36L6 36L6 31ZM2 32L2 35L5 35L5 32Z" fill="#000000"/></g></g></svg>
