<?xml version="1.0" encoding="UTF-8"?>
<svg xmlns="http://www.w3.org/2000/svg" version="1.1" width="100" height="100" viewBox="0 0 100 100"><rect x="0" y="0" width="100" height="100" fill="#ffffff"/><g transform="scale(2.703)"><g transform="translate(0,0)"><path fill-rule="evenodd" d="M9 0L9 1L8 1L8 2L9 2L9 3L8 3L8 4L10 4L10 7L11 7L11 4L12 4L12 5L13 5L13 6L12 6L12 9L13 9L13 8L14 8L14 9L15 9L15 10L17 10L17 9L18 9L18 12L17 12L17 11L16 11L16 13L12 13L12 11L13 11L13 10L10 10L10 9L11 9L11 8L6 8L6 9L7 9L7 10L6 10L6 11L7 11L7 12L3 12L3 11L4 11L4 10L5 10L5 8L0 8L0 10L1 10L1 11L0 11L0 13L1 13L1 14L2 14L2 13L5 13L5 15L7 15L7 16L4 16L4 15L2 15L2 16L1 16L1 15L0 15L0 16L1 16L1 17L0 17L0 18L1 18L1 17L7 17L7 18L6 18L6 19L7 19L7 18L8 18L8 19L9 19L9 20L8 20L8 21L7 21L7 20L6 20L6 21L3 21L3 22L2 22L2 23L1 23L1 22L0 22L0 29L1 29L1 26L2 26L2 27L3 27L3 28L2 28L2 29L5 29L5 28L6 28L6 29L7 29L7 28L6 28L6 27L7 27L7 26L8 26L8 31L11 31L11 29L12 29L12 30L13 30L13 31L12 31L12 33L13 33L13 32L14 32L14 33L17 33L17 34L15 34L15 35L14 35L14 36L15 36L15 37L19 37L19 34L20 34L20 33L21 33L21 32L22 32L22 33L23 33L23 32L25 32L25 34L24 34L24 37L26 37L26 36L25 36L25 34L26 34L26 35L28 35L28 36L27 36L27 37L28 37L28 36L29 36L29 37L30 37L30 36L31 36L31 37L32 37L32 36L31 36L31 35L32 35L32 34L35 34L35 35L36 35L36 36L33 36L33 37L37 37L37 33L36 33L36 31L37 31L37 28L36 28L36 27L37 27L37 26L36 26L36 25L37 25L37 22L32 22L32 21L33 21L33 19L32 19L32 18L31 18L31 19L30 19L30 21L31 21L31 22L30 22L30 25L29 25L29 26L26 26L26 25L27 25L27 24L29 24L29 17L31 17L31 14L32 14L32 13L35 13L35 12L33 12L33 11L34 11L34 8L33 8L33 10L32 10L32 8L31 8L31 11L30 11L30 10L29 10L29 9L30 9L30 8L28 8L28 7L29 7L29 1L27 1L27 3L26 3L26 4L25 4L25 3L24 3L24 4L23 4L23 5L24 5L24 4L25 4L25 5L26 5L26 8L25 8L25 6L24 6L24 9L23 9L23 8L22 8L22 7L23 7L23 6L22 6L22 4L21 4L21 5L20 5L20 3L23 3L23 2L22 2L22 0L21 0L21 1L20 1L20 0L19 0L19 1L18 1L18 3L17 3L17 2L16 2L16 4L12 4L12 2L13 2L13 1L11 1L11 2L10 2L10 0ZM15 0L15 1L17 1L17 0ZM23 0L23 1L24 1L24 2L25 2L25 1L24 1L24 0ZM19 1L19 3L20 3L20 1ZM14 2L14 3L15 3L15 2ZM10 3L10 4L11 4L11 3ZM16 4L16 5L17 5L17 7L16 7L16 6L15 6L15 7L14 7L14 6L13 6L13 7L14 7L14 8L15 8L15 7L16 7L16 9L17 9L17 8L19 8L19 9L20 9L20 10L19 10L19 13L16 13L16 14L17 14L17 15L16 15L16 17L17 17L17 18L15 18L15 17L14 17L14 16L15 16L15 15L14 15L14 16L13 16L13 17L12 17L12 15L13 15L13 14L12 14L12 13L11 13L11 11L10 11L10 12L8 12L8 13L11 13L11 14L10 14L10 15L9 15L9 14L7 14L7 13L6 13L6 14L7 14L7 15L9 15L9 16L8 16L8 17L11 17L11 18L10 18L10 21L8 21L8 23L6 23L6 24L5 24L5 22L4 22L4 24L3 24L3 23L2 23L2 24L1 24L1 25L2 25L2 24L3 24L3 25L4 25L4 24L5 24L5 27L6 27L6 26L7 26L7 25L6 25L6 24L8 24L8 26L9 26L9 24L10 24L10 23L11 23L11 25L10 25L10 26L13 26L13 27L12 27L12 29L16 29L16 30L17 30L17 31L14 31L14 32L18 32L18 30L19 30L19 31L20 31L20 32L19 32L19 33L18 33L18 34L19 34L19 33L20 33L20 32L21 32L21 29L22 29L22 31L25 31L25 32L26 32L26 34L28 34L28 35L29 35L29 36L30 36L30 35L31 35L31 34L32 34L32 33L31 33L31 34L30 34L30 33L29 33L29 34L28 34L28 33L27 33L27 32L26 32L26 31L28 31L28 29L25 29L25 30L23 30L23 29L22 29L22 28L21 28L21 27L22 27L22 26L23 26L23 27L24 27L24 28L28 28L28 27L24 27L24 26L25 26L25 24L26 24L26 23L27 23L27 21L25 21L25 23L24 23L24 22L23 22L23 21L22 21L22 20L23 20L23 19L24 19L24 20L26 20L26 19L27 19L27 20L28 20L28 19L27 19L27 18L28 18L28 17L29 17L29 15L28 15L28 17L27 17L27 18L25 18L25 19L24 19L24 18L23 18L23 17L24 17L24 14L25 14L25 16L27 16L27 15L26 15L26 14L28 14L28 13L29 13L29 14L31 14L31 13L32 13L32 12L31 12L31 13L29 13L29 12L30 12L30 11L29 11L29 10L28 10L28 8L27 8L27 10L28 10L28 12L27 12L27 13L26 13L26 14L25 14L25 12L26 12L26 9L24 9L24 10L23 10L23 11L22 11L22 12L21 12L21 11L20 11L20 10L21 10L21 9L22 9L22 8L21 8L21 7L22 7L22 6L21 6L21 7L20 7L20 5L19 5L19 4L18 4L18 5L17 5L17 4ZM26 4L26 5L28 5L28 4ZM8 5L8 7L9 7L9 5ZM18 5L18 7L19 7L19 5ZM27 6L27 7L28 7L28 6ZM20 8L20 9L21 9L21 8ZM35 8L35 9L36 9L36 8ZM3 9L3 10L2 10L2 11L1 11L1 12L2 12L2 11L3 11L3 10L4 10L4 9ZM8 9L8 10L7 10L7 11L8 11L8 10L9 10L9 9ZM24 10L24 12L25 12L25 10ZM36 10L36 12L37 12L37 10ZM14 11L14 12L15 12L15 11ZM20 12L20 13L19 13L19 14L18 14L18 16L17 16L17 17L19 17L19 18L18 18L18 19L19 19L19 20L17 20L17 19L16 19L16 21L12 21L12 19L13 19L13 18L11 18L11 21L10 21L10 22L9 22L9 23L10 23L10 22L11 22L11 21L12 21L12 22L13 22L13 23L12 23L12 25L13 25L13 24L14 24L14 25L15 25L15 26L17 26L17 27L16 27L16 28L17 28L17 30L18 30L18 29L19 29L19 30L20 30L20 29L21 29L21 28L20 28L20 29L19 29L19 28L17 28L17 27L19 27L19 26L20 26L20 25L21 25L21 26L22 26L22 25L23 25L23 22L22 22L22 21L21 21L21 20L22 20L22 19L23 19L23 18L22 18L22 19L21 19L21 20L20 20L20 19L19 19L19 18L20 18L20 16L22 16L22 17L23 17L23 15L22 15L22 13L23 13L23 12L22 12L22 13L21 13L21 12ZM20 13L20 14L19 14L19 16L20 16L20 14L21 14L21 13ZM33 14L33 15L34 15L34 14ZM35 14L35 16L32 16L32 17L33 17L33 18L35 18L35 19L36 19L36 20L34 20L34 21L37 21L37 18L35 18L35 16L36 16L36 17L37 17L37 14ZM3 18L3 19L2 19L2 20L4 20L4 19L5 19L5 18ZM14 19L14 20L15 20L15 19ZM31 19L31 21L32 21L32 19ZM0 20L0 21L1 21L1 20ZM19 20L19 21L18 21L18 22L19 22L19 23L20 23L20 24L19 24L19 25L17 25L17 24L18 24L18 23L16 23L16 25L17 25L17 26L19 26L19 25L20 25L20 24L21 24L21 25L22 25L22 24L21 24L21 23L22 23L22 22L21 22L21 21L20 21L20 20ZM6 21L6 22L7 22L7 21ZM16 21L16 22L17 22L17 21ZM19 21L19 22L20 22L20 21ZM14 23L14 24L15 24L15 23ZM31 23L31 24L35 24L35 23ZM30 25L30 26L29 26L29 27L30 27L30 26L31 26L31 25ZM32 25L32 27L31 27L31 28L35 28L35 29L36 29L36 28L35 28L35 25L34 25L34 26L33 26L33 25ZM3 26L3 27L4 27L4 26ZM14 27L14 28L15 28L15 27ZM9 28L9 29L10 29L10 28ZM29 29L29 32L32 32L32 29ZM33 29L33 30L34 30L34 31L33 31L33 32L35 32L35 30L34 30L34 29ZM30 30L30 31L31 31L31 30ZM8 32L8 37L10 37L10 36L11 36L11 37L12 37L12 35L13 35L13 34L11 34L11 33L10 33L10 32ZM35 33L35 34L36 34L36 33ZM9 34L9 35L11 35L11 34ZM21 34L21 36L22 36L22 35L23 35L23 34ZM29 34L29 35L30 35L30 34ZM17 35L17 36L18 36L18 35ZM0 0L0 7L7 7L7 0ZM1 1L1 6L6 6L6 1ZM2 2L2 5L5 5L5 2ZM30 0L30 7L37 7L37 0ZM31 1L31 6L36 6L36 1ZM32 2L32 5L35 5L35 2ZM0 30L0 37L7 37L7 30ZM1 31L1 36L6 36L6 31ZM2 32L2 35L5 35L5 32Z" fill="#000000"/></g></g></svg>
