<?xml version="1.0" encoding="UTF-8"?>
<svg xmlns="http://www.w3.org/2000/svg" version="1.1" width="100" height="100" viewBox="0 0 100 100"><rect x="0" y="0" width="100" height="100" fill="#ffffff"/><g transform="scale(2.703)"><g transform="translate(0,0)"><path fill-rule="evenodd" d="M10 0L10 2L11 2L11 0ZM12 0L12 1L13 1L13 2L12 2L12 4L13 4L13 3L14 3L14 4L15 4L15 5L20 5L20 4L21 4L21 6L20 6L20 7L21 7L21 8L20 8L20 9L19 9L19 8L17 8L17 6L16 6L16 8L17 8L17 9L19 9L19 10L18 10L18 11L19 11L19 12L16 12L16 11L17 11L17 10L16 10L16 9L12 9L12 7L13 7L13 5L11 5L11 6L10 6L10 4L11 4L11 3L8 3L8 4L9 4L9 5L8 5L8 7L9 7L9 8L6 8L6 9L7 9L7 10L6 10L6 11L5 11L5 8L0 8L0 9L1 9L1 10L0 10L0 11L1 11L1 10L2 10L2 12L0 12L0 15L1 15L1 16L2 16L2 14L3 14L3 13L2 13L2 12L4 12L4 13L5 13L5 14L4 14L4 16L3 16L3 18L4 18L4 19L3 19L3 20L4 20L4 19L5 19L5 21L7 21L7 20L6 20L6 19L8 19L8 18L9 18L9 20L8 20L8 22L6 22L6 23L9 23L9 24L10 24L10 25L8 25L8 24L6 24L6 25L5 25L5 26L4 26L4 27L2 27L2 29L3 29L3 28L4 28L4 29L7 29L7 28L8 28L8 26L9 26L9 27L10 27L10 25L12 25L12 26L13 26L13 27L12 27L12 29L13 29L13 28L14 28L14 29L18 29L18 32L16 32L16 33L19 33L19 34L18 34L18 36L16 36L16 35L17 35L17 34L15 34L15 33L12 33L12 31L13 31L13 30L11 30L11 29L10 29L10 28L9 28L9 29L8 29L8 31L9 31L9 29L10 29L10 31L11 31L11 32L10 32L10 33L9 33L9 32L8 32L8 37L11 37L11 36L10 36L10 34L11 34L11 33L12 33L12 34L13 34L13 35L12 35L12 37L13 37L13 36L14 36L14 37L20 37L20 36L22 36L22 37L23 37L23 36L24 36L24 35L22 35L22 33L23 33L23 34L24 34L24 33L27 33L27 34L26 34L26 36L25 36L25 37L28 37L28 36L29 36L29 35L30 35L30 34L31 34L31 35L32 35L32 34L35 34L35 35L36 35L36 36L33 36L33 37L37 37L37 28L36 28L36 27L37 27L37 26L36 26L36 25L37 25L37 22L32 22L32 21L33 21L33 19L32 19L32 18L31 18L31 19L30 19L30 21L31 21L31 22L30 22L30 25L29 25L29 26L27 26L27 27L29 27L29 28L26 28L26 29L28 29L28 31L27 31L27 30L26 30L26 31L27 31L27 32L25 32L25 31L24 31L24 32L22 32L22 31L23 31L23 30L25 30L25 28L22 28L22 25L19 25L19 22L20 22L20 23L21 23L21 24L23 24L23 23L22 23L22 21L23 21L23 20L25 20L25 22L24 22L24 25L23 25L23 26L24 26L24 27L25 27L25 25L26 25L26 24L29 24L29 21L27 21L27 20L28 20L28 18L29 18L29 17L31 17L31 14L32 14L32 13L35 13L35 12L33 12L33 11L34 11L34 8L33 8L33 10L32 10L32 8L31 8L31 11L30 11L30 10L29 10L29 9L30 9L30 8L29 8L29 6L28 6L28 5L29 5L29 4L28 4L28 2L29 2L29 1L27 1L27 3L26 3L26 5L25 5L25 6L24 6L24 7L23 7L23 6L22 6L22 4L21 4L21 3L22 3L22 2L23 2L23 1L25 1L25 0L23 0L23 1L22 1L22 2L21 2L21 3L20 3L20 2L19 2L19 1L20 1L20 0L19 0L19 1L16 1L16 0ZM8 1L8 2L9 2L9 1ZM14 2L14 3L15 3L15 2ZM16 2L16 4L17 4L17 3L18 3L18 2ZM19 3L19 4L20 4L20 3ZM23 3L23 5L24 5L24 4L25 4L25 3ZM27 4L27 5L26 5L26 6L25 6L25 7L24 7L24 8L26 8L26 6L27 6L27 9L24 9L24 10L22 10L22 12L21 12L21 9L20 9L20 10L19 10L19 11L20 11L20 12L19 12L19 13L14 13L14 12L15 12L15 11L14 11L14 12L13 12L13 13L12 13L12 11L13 11L13 10L12 10L12 9L11 9L11 8L10 8L10 9L8 9L8 11L11 11L11 12L9 12L9 13L8 13L8 14L10 14L10 15L9 15L9 18L11 18L11 19L10 19L10 20L11 20L11 21L9 21L9 22L13 22L13 23L12 23L12 25L15 25L15 26L17 26L17 27L14 27L14 28L19 28L19 29L22 29L22 28L19 28L19 27L20 27L20 26L19 26L19 25L18 25L18 26L17 26L17 25L15 25L15 24L18 24L18 22L19 22L19 21L16 21L16 20L20 20L20 21L22 21L22 20L23 20L23 19L25 19L25 20L27 20L27 19L26 19L26 17L25 17L25 18L23 18L23 17L22 17L22 16L21 16L21 13L22 13L22 15L24 15L24 16L27 16L27 14L28 14L28 13L27 13L27 14L26 14L26 13L22 13L22 12L23 12L23 11L25 11L25 12L26 12L26 10L28 10L28 9L29 9L29 8L28 8L28 6L27 6L27 5L28 5L28 4ZM9 6L9 7L10 7L10 6ZM11 6L11 7L12 7L12 6ZM14 6L14 8L15 8L15 6ZM18 6L18 7L19 7L19 6ZM21 6L21 7L22 7L22 8L23 8L23 7L22 7L22 6ZM35 8L35 9L36 9L36 8ZM3 9L3 11L4 11L4 9ZM10 9L10 10L11 10L11 9ZM36 10L36 12L37 12L37 10ZM6 11L6 12L7 12L7 11ZM27 11L27 12L30 12L30 11ZM20 12L20 13L19 13L19 14L18 14L18 15L19 15L19 14L20 14L20 13L21 13L21 12ZM31 12L31 13L29 13L29 14L31 14L31 13L32 13L32 12ZM1 13L1 14L2 14L2 13ZM6 13L6 14L7 14L7 13ZM10 13L10 14L11 14L11 15L10 15L10 16L11 16L11 17L12 17L12 18L13 18L13 19L12 19L12 21L13 21L13 20L14 20L14 21L15 21L15 20L14 20L14 19L16 19L16 18L15 18L15 17L17 17L17 18L20 18L20 17L19 17L19 16L16 16L16 14L15 14L15 15L14 15L14 16L15 16L15 17L12 17L12 15L13 15L13 14L11 14L11 13ZM24 14L24 15L25 15L25 14ZM33 14L33 15L34 15L34 14ZM35 14L35 16L32 16L32 17L33 17L33 18L35 18L35 19L36 19L36 20L34 20L34 21L37 21L37 18L35 18L35 16L36 16L36 17L37 17L37 14ZM5 15L5 17L6 17L6 18L8 18L8 15ZM28 15L28 17L27 17L27 18L28 18L28 17L29 17L29 15ZM6 16L6 17L7 17L7 16ZM1 17L1 18L2 18L2 17ZM21 17L21 19L20 19L20 20L22 20L22 19L23 19L23 18L22 18L22 17ZM0 19L0 22L1 22L1 23L0 23L0 24L1 24L1 23L2 23L2 24L3 24L3 25L2 25L2 26L3 26L3 25L4 25L4 21L3 21L3 22L1 22L1 19ZM31 19L31 21L32 21L32 19ZM26 21L26 22L25 22L25 24L26 24L26 23L27 23L27 21ZM15 22L15 23L14 23L14 24L15 24L15 23L17 23L17 22ZM31 23L31 24L35 24L35 23ZM0 25L0 29L1 29L1 25ZM6 25L6 26L5 26L5 27L6 27L6 28L7 28L7 27L6 27L6 26L7 26L7 25ZM30 25L30 26L29 26L29 27L30 27L30 26L31 26L31 25ZM32 25L32 27L31 27L31 28L35 28L35 29L36 29L36 28L35 28L35 25L34 25L34 26L33 26L33 25ZM18 26L18 27L19 27L19 26ZM29 29L29 32L32 32L32 29ZM33 29L33 30L34 30L34 31L33 31L33 32L36 32L36 31L35 31L35 30L34 30L34 29ZM15 30L15 31L14 31L14 32L15 32L15 31L16 31L16 30ZM19 30L19 31L20 31L20 30ZM30 30L30 31L31 31L31 30ZM19 32L19 33L22 33L22 32ZM28 33L28 35L27 35L27 36L28 36L28 35L29 35L29 34L30 34L30 33ZM31 33L31 34L32 34L32 33ZM19 34L19 35L21 35L21 34ZM14 35L14 36L15 36L15 35ZM30 36L30 37L32 37L32 36ZM0 0L0 7L7 7L7 0ZM1 1L1 6L6 6L6 1ZM2 2L2 5L5 5L5 2ZM30 0L30 7L37 7L37 0ZM31 1L31 6L36 6L36 1ZM32 2L32 5L35 5L35 2ZM0 30L0 37L7 37L7 30ZM1 31L1 36L6 36L6 31ZM2 32L2 35L5 35L5 32Z" fill="#000000"/></g></g></svg>
