<?xml version="1.0" encoding="UTF-8"?>
<svg xmlns="http://www.w3.org/2000/svg" version="1.1" width="100" height="100" viewBox="0 0 100 100"><rect x="0" y="0" width="100" height="100" fill="#ffffff"/><g transform="scale(2.703)"><g transform="translate(0,0)"><path fill-rule="evenodd" d="M9 0L9 1L11 1L11 2L9 2L9 3L8 3L8 5L9 5L9 6L8 6L8 7L9 7L9 9L8 9L8 8L5 8L5 9L4 9L4 10L3 10L3 9L2 9L2 8L0 8L0 10L1 10L1 11L2 11L2 13L0 13L0 14L1 14L1 15L2 15L2 16L1 16L1 17L0 17L0 19L1 19L1 20L0 20L0 21L1 21L1 22L2 22L2 23L0 23L0 24L3 24L3 20L2 20L2 19L1 19L1 17L2 17L2 18L3 18L3 19L4 19L4 21L5 21L5 22L6 22L6 23L5 23L5 24L4 24L4 25L3 25L3 27L2 27L2 29L3 29L3 27L4 27L4 29L5 29L5 26L4 26L4 25L5 25L5 24L6 24L6 25L7 25L7 26L6 26L6 27L7 27L7 26L8 26L8 27L9 27L9 29L8 29L8 28L6 28L6 29L8 29L8 32L9 32L9 29L10 29L10 30L11 30L11 31L12 31L12 33L13 33L13 32L14 32L14 34L15 34L15 35L14 35L14 36L13 36L13 37L15 37L15 35L16 35L16 37L17 37L17 35L18 35L18 37L21 37L21 35L22 35L22 36L23 36L23 37L25 37L25 35L24 35L24 36L23 36L23 35L22 35L22 34L24 34L24 33L27 33L27 34L26 34L26 35L27 35L27 37L29 37L29 35L30 35L30 37L31 37L31 35L32 35L32 34L31 34L31 33L35 33L35 35L36 35L36 37L37 37L37 33L35 33L35 32L37 32L37 28L36 28L36 27L37 27L37 26L36 26L36 25L37 25L37 22L35 22L35 21L37 21L37 18L36 18L36 20L34 20L34 19L35 19L35 16L36 16L36 17L37 17L37 14L35 14L35 15L34 15L34 10L35 10L35 9L34 9L34 8L32 8L32 9L31 9L31 11L30 11L30 10L29 10L29 11L30 11L30 13L31 13L31 14L29 14L29 12L28 12L28 9L27 9L27 5L26 5L26 3L24 3L24 2L25 2L25 0L24 0L24 2L23 2L23 0L22 0L22 2L21 2L21 1L20 1L20 2L21 2L21 3L20 3L20 4L19 4L19 2L18 2L18 3L17 3L17 4L18 4L18 8L16 8L16 7L17 7L17 6L16 6L16 7L15 7L15 4L16 4L16 2L15 2L15 3L13 3L13 4L12 4L12 2L14 2L14 1L12 1L12 0ZM16 0L16 1L17 1L17 0ZM18 0L18 1L19 1L19 0ZM26 0L26 1L27 1L27 0ZM22 2L22 3L23 3L23 2ZM28 2L28 3L27 3L27 4L28 4L28 7L29 7L29 2ZM9 3L9 5L10 5L10 3ZM11 4L11 7L10 7L10 6L9 6L9 7L10 7L10 8L11 8L11 10L13 10L13 11L12 11L12 12L11 12L11 11L6 11L6 10L8 10L8 9L6 9L6 10L4 10L4 11L3 11L3 10L2 10L2 11L3 11L3 13L2 13L2 14L3 14L3 16L2 16L2 17L3 17L3 18L4 18L4 17L5 17L5 20L7 20L7 19L6 19L6 18L7 18L7 17L6 17L6 16L8 16L8 15L6 15L6 14L7 14L7 13L9 13L9 14L10 14L10 13L11 13L11 15L9 15L9 17L8 17L8 19L10 19L10 18L9 18L9 17L10 17L10 16L11 16L11 19L12 19L12 21L11 21L11 20L10 20L10 21L11 21L11 22L10 22L10 23L11 23L11 24L12 24L12 23L13 23L13 22L12 22L12 21L14 21L14 22L15 22L15 20L18 20L18 18L19 18L19 17L16 17L16 15L15 15L15 17L14 17L14 16L13 16L13 17L12 17L12 15L13 15L13 14L12 14L12 13L13 13L13 12L15 12L15 13L14 13L14 14L15 14L15 13L16 13L16 14L17 14L17 16L18 16L18 14L19 14L19 15L20 15L20 17L21 17L21 18L20 18L20 19L19 19L19 21L17 21L17 22L16 22L16 23L14 23L14 25L10 25L10 24L8 24L8 25L10 25L10 26L13 26L13 27L12 27L12 29L11 29L11 27L10 27L10 29L11 29L11 30L12 30L12 31L14 31L14 32L15 32L15 30L12 30L12 29L15 29L15 24L17 24L17 25L16 25L16 28L19 28L19 29L16 29L16 30L19 30L19 29L20 29L20 31L16 31L16 32L19 32L19 33L17 33L17 34L19 34L19 36L20 36L20 35L21 35L21 34L22 34L22 32L23 32L23 31L21 31L21 30L22 30L22 29L21 29L21 28L22 28L22 27L24 27L24 28L23 28L23 29L24 29L24 30L25 30L25 31L24 31L24 32L26 32L26 31L27 31L27 32L28 32L28 30L27 30L27 29L26 29L26 30L25 30L25 29L24 29L24 28L26 28L26 27L27 27L27 28L28 28L28 27L27 27L27 24L26 24L26 23L27 23L27 22L25 22L25 23L24 23L24 22L23 22L23 23L22 23L22 22L21 22L21 21L24 21L24 19L23 19L23 18L25 18L25 20L26 20L26 15L27 15L27 16L28 16L28 17L27 17L27 18L28 18L28 19L27 19L27 21L29 21L29 23L28 23L28 26L29 26L29 27L30 27L30 26L31 26L31 25L32 25L32 27L31 27L31 28L32 28L32 27L35 27L35 25L36 25L36 24L35 24L35 23L34 23L34 25L33 25L33 23L31 23L31 25L30 25L30 26L29 26L29 24L30 24L30 22L31 22L31 21L32 21L32 18L33 18L33 19L34 19L34 17L32 17L32 15L33 15L33 12L32 12L32 14L31 14L31 17L29 17L29 16L28 16L28 15L27 15L27 13L26 13L26 12L27 12L27 11L26 11L26 10L27 10L27 9L25 9L25 8L26 8L26 6L25 6L25 7L24 7L24 5L23 5L23 4L22 4L22 5L21 5L21 8L19 8L19 9L17 9L17 10L16 10L16 12L15 12L15 11L14 11L14 10L15 10L15 8L14 8L14 4L13 4L13 5L12 5L12 4ZM19 5L19 7L20 7L20 5ZM12 6L12 9L14 9L14 8L13 8L13 6ZM22 6L22 7L23 7L23 6ZM21 8L21 10L20 10L20 9L19 9L19 10L17 10L17 11L18 11L18 13L19 13L19 14L22 14L22 16L21 16L21 17L22 17L22 18L21 18L21 19L22 19L22 18L23 18L23 16L25 16L25 15L23 15L23 14L25 14L25 12L24 12L24 11L25 11L25 10L24 10L24 11L23 11L23 8ZM9 9L9 10L10 10L10 9ZM33 9L33 10L34 10L34 9ZM19 10L19 11L20 11L20 10ZM36 10L36 12L35 12L35 13L36 13L36 12L37 12L37 10ZM5 11L5 12L4 12L4 13L5 13L5 12L6 12L6 13L7 13L7 12L6 12L6 11ZM21 11L21 13L22 13L22 14L23 14L23 13L24 13L24 12L23 12L23 13L22 13L22 11ZM9 12L9 13L10 13L10 12ZM4 14L4 16L3 16L3 17L4 17L4 16L6 16L6 15L5 15L5 14ZM15 17L15 18L12 18L12 19L14 19L14 20L15 20L15 19L17 19L17 18L16 18L16 17ZM28 17L28 18L29 18L29 19L28 19L28 20L29 20L29 19L30 19L30 21L31 21L31 19L30 19L30 18L29 18L29 17ZM1 20L1 21L2 21L2 20ZM33 20L33 21L34 21L34 20ZM6 21L6 22L7 22L7 21ZM8 21L8 23L9 23L9 21ZM19 21L19 22L17 22L17 23L18 23L18 25L17 25L17 26L21 26L21 27L20 27L20 28L21 28L21 27L22 27L22 26L21 26L21 25L20 25L20 24L21 24L21 23L20 23L20 24L19 24L19 22L20 22L20 21ZM6 23L6 24L7 24L7 23ZM22 24L22 25L23 25L23 26L26 26L26 25L25 25L25 24L24 24L24 25L23 25L23 24ZM0 25L0 29L1 29L1 25ZM35 28L35 29L36 29L36 28ZM29 29L29 32L32 32L32 29ZM30 30L30 31L31 31L31 30ZM35 30L35 31L34 31L34 32L35 32L35 31L36 31L36 30ZM10 32L10 33L9 33L9 34L11 34L11 36L9 36L9 35L8 35L8 37L11 37L11 36L12 36L12 35L13 35L13 34L11 34L11 32ZM19 33L19 34L20 34L20 33ZM29 33L29 34L28 34L28 35L29 35L29 34L30 34L30 35L31 35L31 34L30 34L30 33ZM33 35L33 36L32 36L32 37L34 37L34 35ZM0 0L0 7L7 7L7 0ZM1 1L1 6L6 6L6 1ZM2 2L2 5L5 5L5 2ZM30 0L30 7L37 7L37 0ZM31 1L31 6L36 6L36 1ZM32 2L32 5L35 5L35 2ZM0 30L0 37L7 37L7 30ZM1 31L1 36L6 36L6 31ZM2 32L2 35L5 35L5 32Z" fill="#000000"/></g></g></svg>
