<?xml version="1.0" encoding="UTF-8"?>
<svg xmlns="http://www.w3.org/2000/svg" version="1.1" width="100" height="100" viewBox="0 0 100 100"><rect x="0" y="0" width="100" height="100" fill="#ffffff"/><g transform="scale(3.03)"><g transform="translate(0,0)"><path fill-rule="evenodd" d="M10 0L10 2L11 2L11 0ZM12 0L12 1L13 1L13 0ZM14 0L14 1L15 1L15 2L14 2L14 3L13 3L13 2L12 2L12 4L14 4L14 5L11 5L11 6L10 6L10 4L11 4L11 3L8 3L8 4L9 4L9 5L8 5L8 7L9 7L9 8L6 8L6 9L5 9L5 8L0 8L0 9L1 9L1 10L2 10L2 11L0 11L0 13L1 13L1 14L0 14L0 16L1 16L1 15L2 15L2 14L3 14L3 16L2 16L2 18L1 18L1 17L0 17L0 18L1 18L1 20L0 20L0 25L1 25L1 22L2 22L2 21L3 21L3 23L5 23L5 25L7 25L7 24L6 24L6 23L7 23L7 22L6 22L6 21L7 21L7 20L6 20L6 19L7 19L7 18L8 18L8 20L9 20L9 21L8 21L8 22L9 22L9 23L8 23L8 24L10 24L10 26L9 26L9 25L8 25L8 27L10 27L10 26L13 26L13 25L14 25L14 26L15 26L15 28L17 28L17 29L16 29L16 30L15 30L15 29L14 29L14 28L13 28L13 27L11 27L11 28L10 28L10 29L9 29L9 28L8 28L8 33L10 33L10 32L9 32L9 30L10 30L10 31L11 31L11 33L12 33L12 32L13 32L13 33L14 33L14 32L15 32L15 33L16 33L16 31L18 31L18 30L21 30L21 31L19 31L19 32L22 32L22 33L26 33L26 31L27 31L27 32L28 32L28 33L29 33L29 32L31 32L31 33L32 33L32 32L31 32L31 31L32 31L32 30L31 30L31 29L30 29L30 30L29 30L29 28L32 28L32 29L33 29L33 28L32 28L32 25L30 25L30 24L33 24L33 23L32 23L32 22L33 22L33 21L32 21L32 18L33 18L33 17L32 17L32 16L31 16L31 15L32 15L32 14L33 14L33 13L32 13L32 14L31 14L31 13L30 13L30 15L29 15L29 16L28 16L28 15L27 15L27 17L26 17L26 16L25 16L25 17L23 17L23 18L25 18L25 19L24 19L24 20L25 20L25 21L23 21L23 20L22 20L22 17L18 17L18 16L19 16L19 15L18 15L18 16L16 16L16 14L15 14L15 13L18 13L18 12L19 12L19 8L15 8L15 9L18 9L18 12L15 12L15 11L16 11L16 10L14 10L14 8L12 8L12 7L13 7L13 6L14 6L14 7L15 7L15 6L16 6L16 7L17 7L17 6L16 6L16 5L15 5L15 4L14 4L14 3L17 3L17 4L18 4L18 7L19 7L19 5L21 5L21 6L20 6L20 7L21 7L21 8L20 8L20 10L21 10L21 8L22 8L22 9L23 9L23 10L22 10L22 11L21 11L21 12L22 12L22 13L23 13L23 14L24 14L24 15L25 15L25 13L23 13L23 12L26 12L26 11L27 11L27 12L28 12L28 13L29 13L29 12L28 12L28 11L29 11L29 10L28 10L28 11L27 11L27 9L28 9L28 8L27 8L27 9L26 9L26 8L25 8L25 3L22 3L22 2L21 2L21 1L23 1L23 0L18 0L18 1L20 1L20 2L21 2L21 3L22 3L22 4L23 4L23 5L24 5L24 8L25 8L25 9L23 9L23 6L22 6L22 5L21 5L21 4L18 4L18 3L19 3L19 2L18 2L18 3L17 3L17 1L15 1L15 0ZM8 1L8 2L9 2L9 1ZM14 5L14 6L15 6L15 5ZM9 6L9 7L10 7L10 6ZM11 6L11 7L12 7L12 6ZM21 6L21 7L22 7L22 6ZM10 8L10 9L8 9L8 10L9 10L9 11L6 11L6 10L7 10L7 9L6 9L6 10L4 10L4 9L3 9L3 10L4 10L4 11L2 11L2 12L4 12L4 13L3 13L3 14L5 14L5 12L7 12L7 13L6 13L6 14L7 14L7 15L4 15L4 16L5 16L5 17L3 17L3 18L2 18L2 20L4 20L4 21L5 21L5 19L6 19L6 18L7 18L7 17L8 17L8 15L10 15L10 14L11 14L11 15L13 15L13 16L11 16L11 17L10 17L10 16L9 16L9 17L10 17L10 18L11 18L11 19L12 19L12 18L11 18L11 17L13 17L13 18L14 18L14 19L13 19L13 20L12 20L12 21L13 21L13 22L10 22L10 21L11 21L11 20L10 20L10 19L9 19L9 20L10 20L10 21L9 21L9 22L10 22L10 24L12 24L12 25L13 25L13 24L14 24L14 25L15 25L15 26L16 26L16 27L17 27L17 28L18 28L18 29L17 29L17 30L18 30L18 29L19 29L19 28L20 28L20 29L22 29L22 28L21 28L21 27L20 27L20 26L18 26L18 25L22 25L22 24L23 24L23 26L24 26L24 22L23 22L23 21L21 21L21 20L20 20L20 21L21 21L21 22L23 22L23 23L22 23L22 24L21 24L21 23L20 23L20 22L18 22L18 23L17 23L17 21L15 21L15 20L18 20L18 21L19 21L19 19L21 19L21 18L19 18L19 19L18 19L18 17L15 17L15 14L14 14L14 13L15 13L15 12L14 12L14 10L13 10L13 11L12 11L12 9L11 9L11 8ZM29 8L29 9L30 9L30 8ZM31 8L31 9L32 9L32 10L30 10L30 12L32 12L32 10L33 10L33 9L32 9L32 8ZM10 9L10 11L11 11L11 9ZM25 9L25 11L26 11L26 9ZM23 10L23 11L22 11L22 12L23 12L23 11L24 11L24 10ZM4 11L4 12L5 12L5 11ZM9 12L9 13L7 13L7 14L9 14L9 13L11 13L11 14L13 14L13 13L14 13L14 12L13 12L13 13L11 13L11 12ZM19 13L19 14L20 14L20 15L21 15L21 16L23 16L23 15L22 15L22 14L20 14L20 13ZM26 13L26 14L27 14L27 13ZM6 16L6 17L7 17L7 16ZM13 16L13 17L14 17L14 18L15 18L15 19L16 19L16 18L15 18L15 17L14 17L14 16ZM29 16L29 17L27 17L27 18L28 18L28 19L27 19L27 20L26 20L26 21L25 21L25 22L26 22L26 21L27 21L27 23L25 23L25 24L27 24L27 23L29 23L29 22L31 22L31 20L29 20L29 19L30 19L30 18L29 18L29 17L31 17L31 18L32 18L32 17L31 17L31 16ZM25 17L25 18L26 18L26 17ZM13 20L13 21L14 21L14 20ZM27 20L27 21L29 21L29 20ZM5 22L5 23L6 23L6 22ZM15 22L15 25L16 25L16 22ZM12 23L12 24L13 24L13 23ZM18 23L18 24L17 24L17 25L18 25L18 24L19 24L19 23ZM2 24L2 25L4 25L4 24ZM25 25L25 28L28 28L28 25ZM17 26L17 27L18 27L18 26ZM26 26L26 27L27 27L27 26ZM29 26L29 27L31 27L31 26ZM23 27L23 31L22 31L22 32L25 32L25 31L26 31L26 30L27 30L27 31L28 31L28 32L29 32L29 30L27 30L27 29L26 29L26 30L24 30L24 27ZM11 28L11 29L10 29L10 30L11 30L11 31L12 31L12 30L11 30L11 29L13 29L13 28ZM13 30L13 32L14 32L14 31L15 31L15 30ZM17 32L17 33L18 33L18 32ZM0 0L0 7L7 7L7 0ZM1 1L1 6L6 6L6 1ZM2 2L2 5L5 5L5 2ZM26 0L26 7L33 7L33 0ZM27 1L27 6L32 6L32 1ZM28 2L28 5L31 5L31 2ZM0 26L0 33L7 33L7 26ZM1 27L1 32L6 32L6 27ZM2 28L2 31L5 31L5 28Z" fill="#000000"/></g></g></svg>
