<?xml version="1.0" encoding="UTF-8"?>
<svg xmlns="http://www.w3.org/2000/svg" version="1.1" width="100" height="100" viewBox="0 0 100 100"><rect x="0" y="0" width="100" height="100" fill="#ffffff"/><g transform="scale(2.703)"><g transform="translate(0,0)"><path fill-rule="evenodd" d="M8 0L8 1L9 1L9 2L10 2L10 3L11 3L11 1L13 1L13 0L11 0L11 1L9 1L9 0ZM15 0L15 1L16 1L16 2L15 2L15 3L16 3L16 4L14 4L14 5L15 5L15 6L14 6L14 7L13 7L13 5L12 5L12 4L13 4L13 2L12 2L12 4L11 4L11 5L10 5L10 4L9 4L9 5L10 5L10 8L9 8L9 6L8 6L8 8L9 8L9 9L12 9L12 10L11 10L11 11L10 11L10 12L9 12L9 10L6 10L6 9L7 9L7 8L6 8L6 9L5 9L5 8L3 8L3 10L2 10L2 11L3 11L3 12L2 12L2 14L3 14L3 15L1 15L1 16L2 16L2 20L1 20L1 17L0 17L0 20L1 20L1 22L2 22L2 23L0 23L0 29L1 29L1 27L2 27L2 28L3 28L3 29L7 29L7 28L6 28L6 27L9 27L9 26L10 26L10 28L8 28L8 30L9 30L9 29L10 29L10 31L9 31L9 32L8 32L8 34L9 34L9 35L8 35L8 37L14 37L14 31L15 31L15 32L16 32L16 31L18 31L18 32L17 32L17 33L15 33L15 35L16 35L16 34L17 34L17 36L18 36L18 37L19 37L19 36L20 36L20 37L21 37L21 35L22 35L22 34L23 34L23 35L24 35L24 33L25 33L25 32L26 32L26 34L27 34L27 35L26 35L26 36L27 36L27 37L31 37L31 36L30 36L30 35L29 35L29 36L28 36L28 34L29 34L29 33L30 33L30 34L31 34L31 35L33 35L33 36L32 36L32 37L34 37L34 36L36 36L36 37L37 37L37 28L36 28L36 27L37 27L37 26L36 26L36 25L37 25L37 22L36 22L36 25L35 25L35 26L34 26L34 27L32 27L32 28L31 28L31 26L30 26L30 25L31 25L31 23L32 23L32 22L33 22L33 25L32 25L32 26L33 26L33 25L34 25L34 24L35 24L35 21L37 21L37 18L36 18L36 17L37 17L37 14L34 14L34 12L35 12L35 13L36 13L36 12L37 12L37 10L35 10L35 9L34 9L34 10L33 10L33 9L31 9L31 8L30 8L30 9L31 9L31 11L29 11L29 10L28 10L28 9L29 9L29 0L28 0L28 2L27 2L27 0L24 0L24 1L25 1L25 3L23 3L23 0L22 0L22 1L21 1L21 0L20 0L20 1L18 1L18 0ZM17 2L17 3L18 3L18 2ZM19 2L19 4L21 4L21 2ZM26 2L26 3L25 3L25 4L22 4L22 5L18 5L18 4L17 4L17 5L18 5L18 6L17 6L17 8L19 8L19 7L20 7L20 6L21 6L21 8L22 8L22 9L21 9L21 10L22 10L22 11L20 11L20 10L19 10L19 9L17 9L17 10L16 10L16 8L15 8L15 7L16 7L16 6L15 6L15 7L14 7L14 13L15 13L15 10L16 10L16 11L17 11L17 10L19 10L19 11L18 11L18 12L16 12L16 15L17 15L17 18L18 18L18 19L16 19L16 20L15 20L15 21L17 21L17 23L15 23L15 24L16 24L16 27L15 27L15 28L13 28L13 29L12 29L12 30L11 30L11 31L10 31L10 32L11 32L11 31L12 31L12 33L10 33L10 35L9 35L9 36L11 36L11 34L12 34L12 35L13 35L13 34L12 34L12 33L13 33L13 31L12 31L12 30L15 30L15 28L16 28L16 27L17 27L17 29L18 29L18 27L19 27L19 26L23 26L23 29L22 29L22 27L20 27L20 28L19 28L19 29L20 29L20 28L21 28L21 30L20 30L20 31L19 31L19 32L20 32L20 34L19 34L19 33L17 33L17 34L19 34L19 35L18 35L18 36L19 36L19 35L20 35L20 34L22 34L22 33L23 33L23 32L24 32L24 31L25 31L25 30L26 30L26 31L27 31L27 32L28 32L28 30L27 30L27 28L26 28L26 27L27 27L27 26L26 26L26 27L24 27L24 26L23 26L23 25L22 25L22 24L23 24L23 22L25 22L25 25L26 25L26 22L25 22L25 21L26 21L26 20L23 20L23 18L24 18L24 19L25 19L25 18L26 18L26 19L27 19L27 22L31 22L31 21L30 21L30 19L32 19L32 20L33 20L33 21L35 21L35 20L36 20L36 18L35 18L35 17L33 17L33 16L32 16L32 15L33 15L33 14L32 14L32 13L33 13L33 12L32 12L32 13L30 13L30 12L28 12L28 13L29 13L29 14L28 14L28 15L27 15L27 12L26 12L26 11L27 11L27 10L26 10L26 8L27 8L27 9L28 9L28 8L27 8L27 7L28 7L28 3L27 3L27 2ZM11 5L11 7L12 7L12 9L13 9L13 7L12 7L12 5ZM22 5L22 7L23 7L23 11L22 11L22 12L23 12L23 11L24 11L24 13L25 13L25 14L24 14L24 15L23 15L23 14L21 14L21 13L20 13L20 11L19 11L19 12L18 12L18 13L20 13L20 14L18 14L18 15L20 15L20 17L19 17L19 16L18 16L18 18L19 18L19 20L17 20L17 21L19 21L19 22L18 22L18 23L17 23L17 24L18 24L18 25L21 25L21 24L19 24L19 22L20 22L20 21L19 21L19 20L20 20L20 19L22 19L22 18L23 18L23 16L24 16L24 18L25 18L25 17L26 17L26 18L27 18L27 19L30 19L30 17L31 17L31 15L32 15L32 14L29 14L29 15L28 15L28 16L27 16L27 15L26 15L26 13L25 13L25 11L24 11L24 9L25 9L25 8L26 8L26 7L27 7L27 6L26 6L26 5L25 5L25 6L24 6L24 5ZM18 6L18 7L19 7L19 6ZM23 6L23 7L24 7L24 8L25 8L25 7L26 7L26 6L25 6L25 7L24 7L24 6ZM0 8L0 9L2 9L2 8ZM36 8L36 9L37 9L37 8ZM12 10L12 11L13 11L13 10ZM32 10L32 11L33 11L33 10ZM34 10L34 11L35 11L35 10ZM0 11L0 14L1 14L1 11ZM6 11L6 12L7 12L7 13L5 13L5 12L4 12L4 13L5 13L5 14L4 14L4 15L5 15L5 17L4 17L4 16L3 16L3 17L4 17L4 18L5 18L5 19L3 19L3 21L4 21L4 23L2 23L2 24L3 24L3 25L2 25L2 26L4 26L4 25L5 25L5 27L6 27L6 26L8 26L8 25L10 25L10 23L9 23L9 22L8 22L8 21L9 21L9 19L10 19L10 20L11 20L11 28L10 28L10 29L11 29L11 28L12 28L12 27L14 27L14 26L15 26L15 25L13 25L13 24L14 24L14 21L12 21L12 19L13 19L13 20L14 20L14 19L15 19L15 18L12 18L12 19L10 19L10 18L9 18L9 17L8 17L8 16L11 16L11 17L14 17L14 16L15 16L15 14L14 14L14 15L12 15L12 16L11 16L11 14L13 14L13 13L11 13L11 14L10 14L10 15L8 15L8 14L7 14L7 13L8 13L8 11ZM5 14L5 15L7 15L7 16L6 16L6 17L5 17L5 18L6 18L6 19L7 19L7 20L6 20L6 21L7 21L7 20L8 20L8 19L7 19L7 18L6 18L6 17L7 17L7 16L8 16L8 15L7 15L7 14ZM20 14L20 15L21 15L21 17L20 17L20 18L22 18L22 16L23 16L23 15L21 15L21 14ZM24 15L24 16L26 16L26 17L27 17L27 16L26 16L26 15ZM28 16L28 18L29 18L29 17L30 17L30 16ZM32 18L32 19L33 19L33 20L34 20L34 19L35 19L35 18L34 18L34 19L33 19L33 18ZM4 20L4 21L5 21L5 20ZM28 20L28 21L29 21L29 20ZM22 21L22 22L21 22L21 23L22 23L22 22L23 22L23 21ZM5 22L5 23L4 23L4 24L5 24L5 25L8 25L8 24L6 24L6 23L7 23L7 22ZM12 22L12 23L13 23L13 22ZM27 23L27 25L28 25L28 27L30 27L30 26L29 26L29 25L28 25L28 24L29 24L29 23ZM12 25L12 26L13 26L13 25ZM24 28L24 30L23 30L23 31L24 31L24 30L25 30L25 28ZM29 29L29 32L32 32L32 29ZM34 29L34 30L35 30L35 31L34 31L34 33L31 33L31 34L33 34L33 35L36 35L36 34L35 34L35 32L36 32L36 29ZM21 30L21 31L22 31L22 30ZM30 30L30 31L31 31L31 30ZM27 33L27 34L28 34L28 33ZM15 36L15 37L16 37L16 36ZM23 36L23 37L24 37L24 36ZM0 0L0 7L7 7L7 0ZM1 1L1 6L6 6L6 1ZM2 2L2 5L5 5L5 2ZM30 0L30 7L37 7L37 0ZM31 1L31 6L36 6L36 1ZM32 2L32 5L35 5L35 2ZM0 30L0 37L7 37L7 30ZM1 31L1 36L6 36L6 31ZM2 32L2 35L5 35L5 32Z" fill="#000000"/></g></g></svg>
