<?xml version="1.0" encoding="UTF-8"?>
<svg xmlns="http://www.w3.org/2000/svg" version="1.1" width="100" height="100" viewBox="0 0 100 100"><rect x="0" y="0" width="100" height="100" fill="#ffffff"/><g transform="scale(2.703)"><g transform="translate(0,0)"><path fill-rule="evenodd" d="M8 0L8 1L10 1L10 0ZM15 0L15 1L14 1L14 2L11 2L11 4L10 4L10 3L9 3L9 2L8 2L8 5L9 5L9 6L8 6L8 7L9 7L9 8L8 8L8 9L9 9L9 10L6 10L6 9L7 9L7 8L6 8L6 9L4 9L4 8L0 8L0 9L1 9L1 10L2 10L2 11L3 11L3 12L2 12L2 13L3 13L3 12L4 12L4 14L5 14L5 15L4 15L4 16L3 16L3 18L0 18L0 22L1 22L1 23L2 23L2 24L1 24L1 27L0 27L0 28L1 28L1 27L2 27L2 29L4 29L4 28L3 28L3 27L2 27L2 25L3 25L3 24L4 24L4 27L7 27L7 28L5 28L5 29L7 29L7 28L8 28L8 30L9 30L9 31L10 31L10 34L9 34L9 33L8 33L8 37L9 37L9 36L11 36L11 37L12 37L12 36L16 36L16 37L19 37L19 35L18 35L18 36L17 36L17 35L15 35L15 34L14 34L14 35L10 35L10 34L11 34L11 32L12 32L12 31L10 31L10 29L9 29L9 28L8 28L8 27L9 27L9 26L8 26L8 25L9 25L9 24L6 24L6 23L10 23L10 24L11 24L11 23L14 23L14 22L15 22L15 21L14 21L14 20L13 20L13 18L14 18L14 17L12 17L12 16L14 16L14 15L15 15L15 19L17 19L17 21L18 21L18 20L19 20L19 22L17 22L17 23L15 23L15 24L14 24L14 26L13 26L13 24L12 24L12 25L10 25L10 26L11 26L11 28L12 28L12 29L13 29L13 28L12 28L12 26L13 26L13 27L14 27L14 30L13 30L13 33L15 33L15 31L16 31L16 32L17 32L17 33L18 33L18 31L19 31L19 34L21 34L21 35L20 35L20 36L21 36L21 35L22 35L22 37L23 37L23 35L24 35L24 36L25 36L25 37L28 37L28 35L27 35L27 36L26 36L26 33L27 33L27 34L29 34L29 33L30 33L30 35L29 35L29 36L30 36L30 37L32 37L32 35L33 35L33 37L37 37L37 36L35 36L35 35L34 35L34 34L37 34L37 33L33 33L33 32L34 32L34 29L35 29L35 31L36 31L36 32L37 32L37 30L36 30L36 26L37 26L37 24L36 24L36 23L35 23L35 22L34 22L34 23L33 23L33 24L32 24L32 21L34 21L34 19L33 19L33 20L31 20L31 24L30 24L30 26L33 26L33 27L35 27L35 28L34 28L34 29L33 29L33 28L31 28L31 27L26 27L26 26L28 26L28 25L27 25L27 24L26 24L26 23L25 23L25 24L24 24L24 25L25 25L25 27L26 27L26 28L25 28L25 30L26 30L26 28L28 28L28 29L27 29L27 30L28 30L28 33L27 33L27 32L26 32L26 33L25 33L25 35L24 35L24 32L25 32L25 31L24 31L24 32L23 32L23 31L22 31L22 30L24 30L24 29L23 29L23 28L22 28L22 27L21 27L21 26L20 26L20 24L21 24L21 22L22 22L22 21L23 21L23 20L24 20L24 19L22 19L22 18L24 18L24 17L23 17L23 16L24 16L24 15L23 15L23 16L22 16L22 15L21 15L21 17L22 17L22 18L21 18L21 19L20 19L20 20L19 20L19 17L18 17L18 19L17 19L17 16L16 16L16 15L17 15L17 14L16 14L16 15L15 15L15 14L14 14L14 13L13 13L13 14L12 14L12 12L16 12L16 10L17 10L17 11L18 11L18 12L17 12L17 13L19 13L19 14L18 14L18 15L19 15L19 16L20 16L20 14L21 14L21 12L20 12L20 11L21 11L21 10L22 10L22 8L21 8L21 6L20 6L20 5L21 5L21 4L22 4L22 7L23 7L23 8L25 8L25 10L24 10L24 9L23 9L23 11L24 11L24 12L22 12L22 13L23 13L23 14L25 14L25 15L26 15L26 16L25 16L25 19L26 19L26 21L27 21L27 22L28 22L28 23L30 23L30 22L29 22L29 20L30 20L30 19L29 19L29 20L28 20L28 15L29 15L29 16L31 16L31 15L32 15L32 14L34 14L34 15L35 15L35 16L34 16L34 17L36 17L36 18L35 18L35 21L36 21L36 19L37 19L37 17L36 17L36 16L37 16L37 15L36 15L36 14L37 14L37 13L35 13L35 11L36 11L36 10L35 10L35 11L32 11L32 9L33 9L33 10L34 10L34 9L35 9L35 8L32 8L32 9L31 9L31 10L30 10L30 11L32 11L32 13L31 13L31 12L29 12L29 9L30 9L30 8L28 8L28 7L29 7L29 6L28 6L28 7L27 7L27 6L26 6L26 5L29 5L29 3L27 3L27 1L26 1L26 0L23 0L23 2L22 2L22 3L20 3L20 4L19 4L19 1L20 1L20 2L21 2L21 1L22 1L22 0L21 0L21 1L20 1L20 0ZM28 0L28 1L29 1L29 0ZM16 1L16 3L12 3L12 5L10 5L10 6L9 6L9 7L10 7L10 8L9 8L9 9L10 9L10 10L11 10L11 11L6 11L6 10L5 10L5 11L4 11L4 9L2 9L2 10L3 10L3 11L4 11L4 12L5 12L5 13L6 13L6 14L8 14L8 15L11 15L11 16L12 16L12 14L11 14L11 11L14 11L14 10L15 10L15 9L16 9L16 8L17 8L17 7L18 7L18 6L19 6L19 7L20 7L20 6L19 6L19 5L17 5L17 4L16 4L16 3L18 3L18 2L17 2L17 1ZM24 1L24 2L26 2L26 1ZM26 3L26 4L23 4L23 7L24 7L24 6L25 6L25 8L26 8L26 6L25 6L25 5L26 5L26 4L27 4L27 3ZM13 4L13 5L12 5L12 7L11 7L11 6L10 6L10 7L11 7L11 8L12 8L12 7L13 7L13 9L15 9L15 5L14 5L14 4ZM13 5L13 7L14 7L14 5ZM16 6L16 7L17 7L17 6ZM18 8L18 9L17 9L17 10L18 10L18 11L20 11L20 10L21 10L21 9L20 9L20 10L19 10L19 8ZM36 8L36 9L37 9L37 8ZM26 9L26 10L25 10L25 11L26 11L26 12L28 12L28 13L29 13L29 12L28 12L28 9ZM26 10L26 11L27 11L27 10ZM5 11L5 12L6 12L6 13L7 13L7 12L6 12L6 11ZM0 12L0 14L1 14L1 12ZM8 12L8 13L9 13L9 14L10 14L10 13L9 13L9 12ZM19 12L19 13L20 13L20 12ZM25 13L25 14L26 14L26 13ZM34 13L34 14L35 14L35 13ZM13 14L13 15L14 15L14 14ZM27 14L27 15L28 15L28 14ZM30 14L30 15L31 15L31 14ZM1 15L1 16L2 16L2 15ZM6 15L6 16L7 16L7 17L6 17L6 18L5 18L5 16L4 16L4 18L3 18L3 20L2 20L2 19L1 19L1 20L2 20L2 21L1 21L1 22L2 22L2 23L3 23L3 22L2 22L2 21L4 21L4 20L5 20L5 21L6 21L6 22L7 22L7 21L6 21L6 20L7 20L7 19L8 19L8 20L9 20L9 19L10 19L10 21L11 21L11 22L12 22L12 21L11 21L11 20L12 20L12 19L11 19L11 18L12 18L12 17L9 17L9 16L7 16L7 15ZM26 16L26 17L27 17L27 16ZM8 17L8 19L9 19L9 17ZM30 17L30 18L31 18L31 19L32 19L32 17ZM6 18L6 19L5 19L5 20L6 20L6 19L7 19L7 18ZM26 18L26 19L27 19L27 18ZM21 19L21 20L20 20L20 22L19 22L19 23L17 23L17 24L19 24L19 23L20 23L20 22L21 22L21 20L22 20L22 19ZM27 20L27 21L28 21L28 20ZM23 22L23 23L22 23L22 26L23 26L23 23L24 23L24 22ZM4 23L4 24L5 24L5 25L6 25L6 26L7 26L7 25L6 25L6 24L5 24L5 23ZM15 24L15 25L16 25L16 26L14 26L14 27L16 27L16 28L17 28L17 30L16 30L16 31L18 31L18 29L19 29L19 31L20 31L20 33L21 33L21 34L23 34L23 32L22 32L22 31L20 31L20 28L21 28L21 27L19 27L19 25L18 25L18 26L17 26L17 25L16 25L16 24ZM33 25L33 26L36 26L36 25ZM18 27L18 28L19 28L19 27ZM21 29L21 30L22 30L22 29ZM29 29L29 32L32 32L32 29ZM30 30L30 31L31 31L31 30ZM21 32L21 33L22 33L22 32ZM31 33L31 34L32 34L32 33ZM30 35L30 36L31 36L31 35ZM0 0L0 7L7 7L7 0ZM1 1L1 6L6 6L6 1ZM2 2L2 5L5 5L5 2ZM30 0L30 7L37 7L37 0ZM31 1L31 6L36 6L36 1ZM32 2L32 5L35 5L35 2ZM0 30L0 37L7 37L7 30ZM1 31L1 36L6 36L6 31ZM2 32L2 35L5 35L5 32Z" fill="#000000"/></g></g></svg>
