<?xml version="1.0" encoding="UTF-8"?>
<svg xmlns="http://www.w3.org/2000/svg" version="1.1" width="100" height="100" viewBox="0 0 100 100"><rect x="0" y="0" width="100" height="100" fill="#ffffff"/><g transform="scale(3.03)"><g transform="translate(0,0)"><path fill-rule="evenodd" d="M9 0L9 1L8 1L8 3L9 3L9 4L8 4L8 8L6 8L6 9L5 9L5 10L4 10L4 11L5 11L5 13L4 13L4 14L3 14L3 10L2 10L2 8L0 8L0 9L1 9L1 10L0 10L0 12L1 12L1 13L2 13L2 14L3 14L3 16L2 16L2 17L3 17L3 18L1 18L1 14L0 14L0 19L2 19L2 20L1 20L1 22L0 22L0 23L1 23L1 24L0 24L0 25L1 25L1 24L2 24L2 25L4 25L4 24L3 24L3 23L2 23L2 21L3 21L3 22L4 22L4 23L5 23L5 25L7 25L7 24L8 24L8 27L9 27L9 29L8 29L8 30L9 30L9 31L8 31L8 33L10 33L10 32L11 32L11 31L12 31L12 33L13 33L13 31L14 31L14 32L15 32L15 30L14 30L14 29L16 29L16 28L17 28L17 29L18 29L18 30L16 30L16 32L18 32L18 33L19 33L19 32L18 32L18 31L19 31L19 29L21 29L21 30L20 30L20 31L21 31L21 32L20 32L20 33L21 33L21 32L24 32L24 33L26 33L26 31L23 31L23 30L22 30L22 28L24 28L24 29L26 29L26 30L27 30L27 33L28 33L28 32L29 32L29 33L30 33L30 32L29 32L29 31L33 31L33 27L32 27L32 25L33 25L33 24L32 24L32 25L31 25L31 27L32 27L32 28L31 28L31 30L29 30L29 27L30 27L30 26L29 26L29 25L30 25L30 23L31 23L31 21L32 21L32 23L33 23L33 21L32 21L32 19L33 19L33 18L32 18L32 17L33 17L33 16L32 16L32 14L33 14L33 9L32 9L32 8L30 8L30 9L29 9L29 8L26 8L26 9L25 9L25 10L24 10L24 11L26 11L26 14L27 14L27 16L26 16L26 15L24 15L24 14L23 14L23 13L24 13L24 12L23 12L23 11L21 11L21 9L22 9L22 10L23 10L23 9L24 9L24 8L23 8L23 9L22 9L22 7L23 7L23 6L22 6L22 4L23 4L23 5L25 5L25 4L23 4L23 3L24 3L24 2L25 2L25 1L22 1L22 4L21 4L21 6L20 6L20 5L19 5L19 3L21 3L21 2L19 2L19 1L20 1L20 0L18 0L18 2L17 2L17 0L15 0L15 2L16 2L16 3L15 3L15 5L14 5L14 4L13 4L13 6L12 6L12 5L11 5L11 6L10 6L10 5L9 5L9 4L12 4L12 3L13 3L13 0L12 0L12 1L11 1L11 2L9 2L9 1L10 1L10 0ZM18 2L18 3L16 3L16 5L18 5L18 3L19 3L19 2ZM9 6L9 7L10 7L10 8L8 8L8 9L9 9L9 10L7 10L7 9L6 9L6 10L5 10L5 11L6 11L6 12L7 12L7 13L5 13L5 14L4 14L4 16L5 16L5 17L4 17L4 18L5 18L5 19L4 19L4 21L5 21L5 22L7 22L7 21L8 21L8 22L9 22L9 21L11 21L11 20L10 20L10 18L9 18L9 20L8 20L8 18L7 18L7 17L6 17L6 16L7 16L7 15L5 15L5 14L9 14L9 16L8 16L8 17L9 17L9 16L10 16L10 17L11 17L11 19L12 19L12 20L14 20L14 21L13 21L13 23L14 23L14 21L15 21L15 23L16 23L16 24L15 24L15 26L14 26L14 25L13 25L13 24L12 24L12 28L11 28L11 27L10 27L10 26L11 26L11 25L9 25L9 27L10 27L10 28L11 28L11 29L10 29L10 31L9 31L9 32L10 32L10 31L11 31L11 30L12 30L12 28L13 28L13 29L14 29L14 28L15 28L15 27L17 27L17 26L16 26L16 25L17 25L17 24L19 24L19 25L20 25L20 24L21 24L21 23L22 23L22 25L21 25L21 27L20 27L20 26L19 26L19 27L18 27L18 28L19 28L19 27L20 27L20 28L21 28L21 27L22 27L22 25L24 25L24 24L25 24L25 23L27 23L27 22L28 22L28 23L29 23L29 20L30 20L30 21L31 21L31 19L30 19L30 18L31 18L31 17L32 17L32 16L31 16L31 15L28 15L28 16L27 16L27 17L26 17L26 16L23 16L23 17L21 17L21 18L20 18L20 17L17 17L17 16L16 16L16 17L14 17L14 16L12 16L12 14L10 14L10 13L12 13L12 12L13 12L13 11L14 11L14 9L15 9L15 11L16 11L16 12L15 12L15 15L17 15L17 14L18 14L18 16L19 16L19 15L20 15L20 16L21 16L21 15L22 15L22 14L19 14L19 13L21 13L21 11L20 11L20 12L18 12L18 10L20 10L20 9L21 9L21 7L22 7L22 6L21 6L21 7L20 7L20 6L19 6L19 8L16 8L16 9L15 9L15 8L14 8L14 6L13 6L13 8L12 8L12 6L11 6L11 7L10 7L10 6ZM15 6L15 7L16 7L16 6ZM17 6L17 7L18 7L18 6ZM24 6L24 7L25 7L25 6ZM3 8L3 9L4 9L4 8ZM10 8L10 10L9 10L9 11L11 11L11 10L12 10L12 9L11 9L11 8ZM13 8L13 9L14 9L14 8ZM17 9L17 10L18 10L18 9ZM27 9L27 10L26 10L26 11L27 11L27 10L29 10L29 11L28 11L28 13L27 13L27 14L28 14L28 13L30 13L30 14L32 14L32 10L31 10L31 11L30 11L30 10L29 10L29 9ZM1 10L1 11L2 11L2 10ZM6 10L6 11L7 11L7 12L8 12L8 13L9 13L9 12L8 12L8 11L7 11L7 10ZM17 12L17 13L16 13L16 14L17 14L17 13L18 13L18 12ZM22 12L22 13L23 13L23 12ZM13 13L13 15L14 15L14 13ZM10 15L10 16L11 16L11 17L12 17L12 16L11 16L11 15ZM28 16L28 17L29 17L29 18L28 18L28 20L29 20L29 18L30 18L30 17L29 17L29 16ZM13 17L13 18L14 18L14 20L18 20L18 21L17 21L17 22L16 22L16 23L19 23L19 24L20 24L20 23L21 23L21 22L22 22L22 23L23 23L23 21L24 21L24 19L22 19L22 18L21 18L21 21L20 21L20 22L19 22L19 20L18 20L18 19L19 19L19 18L18 18L18 19L15 19L15 18L14 18L14 17ZM23 17L23 18L24 18L24 17ZM25 17L25 22L24 22L24 23L25 23L25 22L27 22L27 21L26 21L26 20L27 20L27 19L26 19L26 17ZM6 18L6 19L5 19L5 20L6 20L6 21L7 21L7 20L6 20L6 19L7 19L7 18ZM22 20L22 21L23 21L23 20ZM10 22L10 23L8 23L8 24L11 24L11 22ZM6 23L6 24L7 24L7 23ZM25 25L25 28L28 28L28 25ZM13 26L13 28L14 28L14 26ZM23 26L23 27L24 27L24 26ZM26 26L26 27L27 27L27 26ZM21 30L21 31L22 31L22 30ZM31 32L31 33L32 33L32 32ZM0 0L0 7L7 7L7 0ZM1 1L1 6L6 6L6 1ZM2 2L2 5L5 5L5 2ZM26 0L26 7L33 7L33 0ZM27 1L27 6L32 6L32 1ZM28 2L28 5L31 5L31 2ZM0 26L0 33L7 33L7 26ZM1 27L1 32L6 32L6 27ZM2 28L2 31L5 31L5 28Z" fill="#000000"/></g></g></svg>
