<?xml version="1.0" encoding="UTF-8"?>
<svg xmlns="http://www.w3.org/2000/svg" version="1.1" width="100" height="100" viewBox="0 0 100 100"><rect x="0" y="0" width="100" height="100" fill="#ffffff"/><g transform="scale(2.703)"><g transform="translate(0,0)"><path fill-rule="evenodd" d="M9 0L9 1L11 1L11 2L9 2L9 3L8 3L8 5L9 5L9 6L8 6L8 7L9 7L9 9L8 9L8 8L5 8L5 9L7 9L7 10L4 10L4 11L8 11L8 12L9 12L9 13L7 13L7 12L6 12L6 13L5 13L5 12L4 12L4 13L5 13L5 14L4 14L4 15L2 15L2 14L3 14L3 12L2 12L2 10L3 10L3 9L2 9L2 8L0 8L0 10L1 10L1 12L0 12L0 13L1 13L1 14L0 14L0 16L1 16L1 18L0 18L0 20L1 20L1 21L0 21L0 29L1 29L1 26L2 26L2 29L8 29L8 32L9 32L9 35L8 35L8 37L11 37L11 36L12 36L12 35L13 35L13 34L11 34L11 32L9 32L9 30L11 30L11 31L12 31L12 33L13 33L13 32L14 32L14 34L15 34L15 35L14 35L14 36L13 36L13 37L15 37L15 35L16 35L16 37L17 37L17 34L18 34L18 35L19 35L19 34L20 34L20 33L19 33L19 31L20 31L20 29L19 29L19 28L17 28L17 26L21 26L21 27L20 27L20 28L21 28L21 29L22 29L22 30L21 30L21 31L27 31L27 30L28 30L28 32L24 32L24 33L23 33L23 32L22 32L22 34L21 34L21 35L20 35L20 36L18 36L18 37L21 37L21 35L22 35L22 36L23 36L23 37L25 37L25 36L23 36L23 35L22 35L22 34L24 34L24 35L25 35L25 34L24 34L24 33L27 33L27 34L26 34L26 36L27 36L27 37L29 37L29 35L30 35L30 37L31 37L31 35L32 35L32 34L31 34L31 33L35 33L35 35L36 35L36 37L37 37L37 33L35 33L35 32L37 32L37 28L36 28L36 27L37 27L37 26L36 26L36 25L37 25L37 22L35 22L35 21L37 21L37 18L36 18L36 20L34 20L34 19L35 19L35 16L36 16L36 17L37 17L37 14L35 14L35 15L34 15L34 10L35 10L35 9L34 9L34 8L32 8L32 9L31 9L31 11L30 11L30 10L28 10L28 9L29 9L29 8L28 8L28 7L29 7L29 4L28 4L28 7L27 7L27 6L26 6L26 7L27 7L27 8L26 8L26 9L25 9L25 8L24 8L24 7L25 7L25 5L24 5L24 7L23 7L23 5L22 5L22 8L23 8L23 9L21 9L21 10L20 10L20 9L19 9L19 8L21 8L21 4L22 4L22 3L23 3L23 4L27 4L27 3L29 3L29 1L28 1L28 2L27 2L27 3L25 3L25 2L23 2L23 0L22 0L22 1L20 1L20 2L21 2L21 3L20 3L20 4L19 4L19 2L18 2L18 3L17 3L17 2L15 2L15 3L13 3L13 4L12 4L12 2L14 2L14 1L12 1L12 0ZM16 0L16 1L17 1L17 0ZM18 0L18 1L19 1L19 0ZM25 0L25 1L26 1L26 0ZM9 3L9 5L10 5L10 3ZM15 3L15 8L14 8L14 4L13 4L13 5L12 5L12 4L11 4L11 7L10 7L10 6L9 6L9 7L10 7L10 8L11 8L11 10L10 10L10 9L9 9L9 10L8 10L8 11L9 11L9 12L10 12L10 13L11 13L11 16L10 16L10 15L9 15L9 14L8 14L8 15L9 15L9 17L10 17L10 18L11 18L11 19L12 19L12 21L11 21L11 20L10 20L10 19L9 19L9 21L8 21L8 17L5 17L5 18L4 18L4 16L3 16L3 18L1 18L1 19L2 19L2 21L5 21L5 22L4 22L4 23L3 23L3 24L2 24L2 26L3 26L3 27L4 27L4 28L8 28L8 29L9 29L9 28L11 28L11 27L9 27L9 26L13 26L13 27L12 27L12 29L11 29L11 30L12 30L12 31L14 31L14 32L18 32L18 31L15 31L15 30L12 30L12 29L15 29L15 28L16 28L16 27L15 27L15 24L17 24L17 25L16 25L16 26L17 26L17 25L18 25L18 23L17 23L17 22L19 22L19 24L20 24L20 25L21 25L21 26L22 26L22 27L21 27L21 28L22 28L22 27L23 27L23 28L24 28L24 27L25 27L25 28L27 28L27 24L28 24L28 28L29 28L29 27L30 27L30 26L31 26L31 25L32 25L32 27L31 27L31 28L32 28L32 27L35 27L35 25L36 25L36 24L35 24L35 23L34 23L34 25L33 25L33 23L31 23L31 25L30 25L30 26L29 26L29 24L30 24L30 22L31 22L31 21L32 21L32 18L33 18L33 19L34 19L34 17L32 17L32 15L33 15L33 12L32 12L32 14L31 14L31 13L30 13L30 11L29 11L29 12L28 12L28 11L27 11L27 12L26 12L26 10L23 10L23 11L22 11L22 10L21 10L21 13L22 13L22 14L23 14L23 17L22 17L22 19L21 19L21 18L20 18L20 19L19 19L19 21L17 21L17 22L16 22L16 23L14 23L14 25L9 25L9 24L10 24L10 22L9 22L9 21L11 21L11 24L12 24L12 23L13 23L13 22L12 22L12 21L14 21L14 22L15 22L15 20L18 20L18 18L19 18L19 17L16 17L16 18L17 18L17 19L15 19L15 20L14 20L14 19L12 19L12 18L15 18L15 17L14 17L14 16L13 16L13 17L12 17L12 15L13 15L13 14L12 14L12 13L13 13L13 12L14 12L14 11L15 11L15 8L18 8L18 4L17 4L17 3ZM19 5L19 7L20 7L20 5ZM12 6L12 9L13 9L13 10L11 10L11 11L10 11L10 10L9 10L9 11L10 11L10 12L12 12L12 11L13 11L13 10L14 10L14 8L13 8L13 6ZM16 6L16 7L17 7L17 6ZM1 9L1 10L2 10L2 9ZM17 9L17 10L16 10L16 12L15 12L15 13L14 13L14 14L15 14L15 13L16 13L16 14L17 14L17 16L18 16L18 14L19 14L19 15L20 15L20 17L21 17L21 16L22 16L22 15L21 15L21 14L19 14L19 13L18 13L18 11L17 11L17 10L19 10L19 11L20 11L20 10L19 10L19 9ZM33 9L33 10L34 10L34 9ZM36 10L36 12L35 12L35 13L36 13L36 12L37 12L37 10ZM23 11L23 12L22 12L22 13L24 13L24 12L25 12L25 11ZM1 12L1 13L2 13L2 12ZM27 12L27 15L28 15L28 18L27 18L27 19L28 19L28 20L29 20L29 19L30 19L30 21L31 21L31 19L30 19L30 18L29 18L29 17L31 17L31 14L29 14L29 13L28 13L28 12ZM6 13L6 14L5 14L5 16L7 16L7 15L6 15L6 14L7 14L7 13ZM25 13L25 14L24 14L24 17L23 17L23 19L22 19L22 20L21 20L21 21L23 21L23 22L21 22L21 23L20 23L20 24L21 24L21 23L23 23L23 24L22 24L22 25L23 25L23 26L24 26L24 25L25 25L25 24L24 24L24 23L25 23L25 21L27 21L27 22L26 22L26 23L28 23L28 24L29 24L29 21L27 21L27 20L23 20L23 19L25 19L25 17L27 17L27 16L25 16L25 14L26 14L26 13ZM1 15L1 16L2 16L2 15ZM5 18L5 19L3 19L3 20L5 20L5 19L7 19L7 18ZM28 18L28 19L29 19L29 18ZM6 20L6 21L7 21L7 20ZM33 20L33 21L34 21L34 20ZM19 21L19 22L20 22L20 21ZM1 22L1 23L2 23L2 22ZM6 22L6 23L7 23L7 22ZM8 22L8 23L9 23L9 22ZM23 22L23 23L24 23L24 22ZM5 24L5 25L8 25L8 24ZM23 24L23 25L24 25L24 24ZM3 25L3 26L4 26L4 27L7 27L7 26L4 26L4 25ZM8 27L8 28L9 28L9 27ZM35 28L35 29L36 29L36 28ZM16 29L16 30L19 30L19 29ZM24 29L24 30L25 30L25 29ZM26 29L26 30L27 30L27 29ZM29 29L29 32L32 32L32 29ZM30 30L30 31L31 31L31 30ZM35 30L35 31L34 31L34 32L35 32L35 31L36 31L36 30ZM18 33L18 34L19 34L19 33ZM29 33L29 34L27 34L27 35L29 35L29 34L30 34L30 35L31 35L31 34L30 34L30 33ZM10 34L10 35L9 35L9 36L11 36L11 34ZM33 35L33 36L32 36L32 37L34 37L34 35ZM0 0L0 7L7 7L7 0ZM1 1L1 6L6 6L6 1ZM2 2L2 5L5 5L5 2ZM30 0L30 7L37 7L37 0ZM31 1L31 6L36 6L36 1ZM32 2L32 5L35 5L35 2ZM0 30L0 37L7 37L7 30ZM1 31L1 36L6 36L6 31ZM2 32L2 35L5 35L5 32Z" fill="#000000"/></g></g></svg>
