<?xml version="1.0" encoding="UTF-8"?>
<svg xmlns="http://www.w3.org/2000/svg" version="1.1" width="100" height="100" viewBox="0 0 100 100"><rect x="0" y="0" width="100" height="100" fill="#ffffff"/><g transform="scale(3.03)"><g transform="translate(0,0)"><path fill-rule="evenodd" d="M9 0L9 1L8 1L8 2L9 2L9 3L8 3L8 4L9 4L9 5L8 5L8 7L9 7L9 8L6 8L6 9L5 9L5 8L0 8L0 10L2 10L2 9L5 9L5 10L3 10L3 11L2 11L2 12L1 12L1 11L0 11L0 14L2 14L2 15L3 15L3 13L5 13L5 12L4 12L4 11L5 11L5 10L6 10L6 11L7 11L7 12L6 12L6 13L7 13L7 14L6 14L6 15L7 15L7 16L5 16L5 15L4 15L4 16L2 16L2 17L4 17L4 18L3 18L3 20L2 20L2 18L1 18L1 15L0 15L0 19L1 19L1 20L0 20L0 25L1 25L1 20L2 20L2 23L4 23L4 24L6 24L6 25L8 25L8 27L10 27L10 29L9 29L9 28L8 28L8 33L10 33L10 29L11 29L11 30L13 30L13 29L14 29L14 30L15 30L15 33L16 33L16 31L17 31L17 29L18 29L18 28L19 28L19 24L17 24L17 21L18 21L18 23L19 23L19 21L20 21L20 22L21 22L21 23L20 23L20 26L21 26L21 28L20 28L20 32L21 32L21 33L26 33L26 31L27 31L27 32L28 32L28 33L29 33L29 32L31 32L31 33L32 33L32 32L31 32L31 31L32 31L32 30L31 30L31 29L33 29L33 28L32 28L32 25L30 25L30 24L33 24L33 23L32 23L32 22L33 22L33 21L32 21L32 18L33 18L33 17L32 17L32 16L31 16L31 15L32 15L32 14L33 14L33 13L32 13L32 14L31 14L31 13L30 13L30 15L29 15L29 16L28 16L28 15L27 15L27 17L26 17L26 16L25 16L25 15L24 15L24 16L25 16L25 17L23 17L23 15L21 15L21 17L23 17L23 18L22 18L22 19L21 19L21 18L20 18L20 17L18 17L18 16L17 16L17 17L16 17L16 15L17 15L17 13L18 13L18 15L19 15L19 13L18 13L18 12L19 12L19 10L18 10L18 12L17 12L17 11L16 11L16 10L15 10L15 9L16 9L16 7L17 7L17 6L16 6L16 5L15 5L15 4L18 4L18 8L19 8L19 3L20 3L20 8L21 8L21 9L20 9L20 10L21 10L21 11L20 11L20 12L21 12L21 13L20 13L20 14L25 14L25 13L23 13L23 11L22 11L22 9L23 9L23 10L25 10L25 9L26 9L26 11L25 11L25 12L26 12L26 11L27 11L27 12L28 12L28 13L29 13L29 12L28 12L28 11L29 11L29 10L28 10L28 11L27 11L27 9L28 9L28 8L27 8L27 9L26 9L26 8L25 8L25 9L23 9L23 8L24 8L24 7L25 7L25 4L23 4L23 1L25 1L25 0L23 0L23 1L21 1L21 0L20 0L20 2L19 2L19 0L17 0L17 1L18 1L18 2L19 2L19 3L15 3L15 4L14 4L14 3L13 3L13 0ZM14 0L14 1L15 1L15 2L16 2L16 1L15 1L15 0ZM11 1L11 2L10 2L10 3L9 3L9 4L11 4L11 2L12 2L12 1ZM12 3L12 4L13 4L13 5L14 5L14 6L13 6L13 8L10 8L10 9L6 9L6 10L8 10L8 11L9 11L9 12L7 12L7 13L9 13L9 16L10 16L10 17L8 17L8 19L6 19L6 20L7 20L7 21L5 21L5 18L4 18L4 20L3 20L3 21L5 21L5 22L7 22L7 23L6 23L6 24L7 24L7 23L8 23L8 25L9 25L9 26L10 26L10 27L11 27L11 29L12 29L12 26L10 26L10 25L13 25L13 24L14 24L14 26L13 26L13 28L14 28L14 29L15 29L15 30L16 30L16 29L17 29L17 28L18 28L18 25L17 25L17 24L16 24L16 23L15 23L15 22L16 22L16 21L17 21L17 20L18 20L18 21L19 21L19 20L20 20L20 21L21 21L21 19L20 19L20 18L18 18L18 17L17 17L17 20L16 20L16 19L15 19L15 18L16 18L16 17L15 17L15 16L14 16L14 14L16 14L16 13L17 13L17 12L15 12L15 10L14 10L14 9L15 9L15 7L16 7L16 6L15 6L15 5L14 5L14 4L13 4L13 3ZM21 4L21 5L22 5L22 6L21 6L21 7L22 7L22 8L23 8L23 7L24 7L24 5L23 5L23 4ZM11 5L11 7L12 7L12 5ZM9 6L9 7L10 7L10 6ZM14 6L14 7L15 7L15 6ZM22 6L22 7L23 7L23 6ZM13 8L13 9L11 9L11 10L10 10L10 11L11 11L11 10L13 10L13 11L14 11L14 10L13 10L13 9L14 9L14 8ZM29 8L29 9L30 9L30 8ZM31 8L31 9L32 9L32 10L30 10L30 12L32 12L32 10L33 10L33 9L32 9L32 8ZM2 12L2 13L3 13L3 12ZM9 12L9 13L11 13L11 14L10 14L10 15L11 15L11 17L10 17L10 18L12 18L12 19L11 19L11 20L10 20L10 19L8 19L8 21L7 21L7 22L9 22L9 25L10 25L10 22L9 22L9 20L10 20L10 21L11 21L11 22L12 22L12 24L13 24L13 22L15 22L15 21L16 21L16 20L15 20L15 21L14 21L14 20L13 20L13 17L14 17L14 18L15 18L15 17L14 17L14 16L13 16L13 14L14 14L14 12L13 12L13 13L11 13L11 12ZM26 13L26 14L27 14L27 13ZM7 14L7 15L8 15L8 14ZM11 14L11 15L12 15L12 14ZM12 16L12 17L13 17L13 16ZM29 16L29 17L27 17L27 18L28 18L28 19L27 19L27 20L26 20L26 21L25 21L25 20L24 20L24 19L25 19L25 18L26 18L26 17L25 17L25 18L23 18L23 19L22 19L22 20L23 20L23 21L22 21L22 23L23 23L23 24L21 24L21 25L22 25L22 28L23 28L23 30L21 30L21 31L23 31L23 32L25 32L25 31L26 31L26 30L27 30L27 31L28 31L28 32L29 32L29 30L30 30L30 29L31 29L31 28L29 28L29 30L27 30L27 29L26 29L26 30L24 30L24 27L23 27L23 26L24 26L24 22L23 22L23 21L25 21L25 22L26 22L26 21L27 21L27 23L25 23L25 24L27 24L27 23L29 23L29 22L31 22L31 20L29 20L29 19L30 19L30 18L29 18L29 17L31 17L31 18L32 18L32 17L31 17L31 16ZM6 17L6 18L7 18L7 17ZM18 19L18 20L19 20L19 19ZM11 20L11 21L13 21L13 20ZM27 20L27 21L29 21L29 20ZM14 23L14 24L15 24L15 25L16 25L16 26L14 26L14 28L15 28L15 27L16 27L16 28L17 28L17 27L16 27L16 26L17 26L17 25L16 25L16 24L15 24L15 23ZM25 25L25 28L28 28L28 25ZM26 26L26 27L27 27L27 26ZM29 26L29 27L31 27L31 26ZM12 31L12 32L13 32L13 33L14 33L14 32L13 32L13 31ZM18 31L18 32L17 32L17 33L18 33L18 32L19 32L19 31ZM0 0L0 7L7 7L7 0ZM1 1L1 6L6 6L6 1ZM2 2L2 5L5 5L5 2ZM26 0L26 7L33 7L33 0ZM27 1L27 6L32 6L32 1ZM28 2L28 5L31 5L31 2ZM0 26L0 33L7 33L7 26ZM1 27L1 32L6 32L6 27ZM2 28L2 31L5 31L5 28Z" fill="#000000"/></g></g></svg>
