<?xml version="1.0" encoding="UTF-8"?>
<svg xmlns="http://www.w3.org/2000/svg" version="1.1" width="100" height="100" viewBox="0 0 100 100"><rect x="0" y="0" width="100" height="100" fill="#ffffff"/><g transform="scale(3.03)"><g transform="translate(0,0)"><path fill-rule="evenodd" d="M9 0L9 1L8 1L8 2L9 2L9 3L8 3L8 4L10 4L10 7L11 7L11 4L12 4L12 5L13 5L13 6L12 6L12 9L14 9L14 12L13 12L13 13L12 13L12 11L13 11L13 10L11 10L11 11L10 11L10 9L11 9L11 8L6 8L6 9L5 9L5 8L0 8L0 11L1 11L1 12L0 12L0 14L1 14L1 16L0 16L0 19L1 19L1 20L0 20L0 25L1 25L1 20L2 20L2 18L1 18L1 16L2 16L2 14L4 14L4 15L3 15L3 16L4 16L4 17L5 17L5 20L4 20L4 19L3 19L3 20L4 20L4 22L3 22L3 21L2 21L2 22L3 22L3 23L2 23L2 24L3 24L3 23L5 23L5 20L6 20L6 21L8 21L8 22L9 22L9 23L7 23L7 22L6 22L6 23L7 23L7 24L5 24L5 25L7 25L7 24L8 24L8 27L9 27L9 26L10 26L10 25L11 25L11 24L10 24L10 25L9 25L9 23L11 23L11 21L12 21L12 22L13 22L13 21L14 21L14 22L15 22L15 24L16 24L16 25L19 25L19 26L17 26L17 27L18 27L18 28L16 28L16 26L15 26L15 25L14 25L14 24L13 24L13 23L12 23L12 25L14 25L14 28L15 28L15 29L19 29L19 30L14 30L14 29L12 29L12 27L13 27L13 26L11 26L11 27L10 27L10 29L9 29L9 28L8 28L8 33L11 33L11 31L10 31L10 32L9 32L9 30L10 30L10 29L12 29L12 30L13 30L13 31L12 31L12 33L13 33L13 32L14 32L14 33L15 33L15 32L17 32L17 33L19 33L19 30L20 30L20 31L21 31L21 32L22 32L22 33L26 33L26 31L27 31L27 32L28 32L28 33L29 33L29 32L31 32L31 33L32 33L32 32L31 32L31 31L32 31L32 30L31 30L31 29L30 29L30 30L29 30L29 28L31 28L31 27L32 27L32 28L33 28L33 27L32 27L32 25L30 25L30 24L33 24L33 23L32 23L32 22L33 22L33 21L32 21L32 18L33 18L33 17L32 17L32 16L31 16L31 15L32 15L32 14L33 14L33 13L32 13L32 14L31 14L31 13L30 13L30 15L29 15L29 16L28 16L28 15L27 15L27 17L26 17L26 16L25 16L25 17L23 17L23 16L24 16L24 15L25 15L25 13L23 13L23 11L22 11L22 9L23 9L23 10L25 10L25 9L26 9L26 11L25 11L25 12L26 12L26 11L27 11L27 12L28 12L28 13L29 13L29 12L28 12L28 11L29 11L29 10L28 10L28 11L27 11L27 9L28 9L28 8L27 8L27 9L26 9L26 8L25 8L25 3L23 3L23 2L22 2L22 1L21 1L21 0L18 0L18 1L17 1L17 2L18 2L18 1L20 1L20 2L19 2L19 3L21 3L21 4L18 4L18 3L16 3L16 1L15 1L15 0L13 0L13 1L11 1L11 2L10 2L10 0ZM13 1L13 2L12 2L12 4L13 4L13 3L14 3L14 4L15 4L15 5L14 5L14 6L13 6L13 8L14 8L14 9L15 9L15 10L17 10L17 11L15 11L15 12L14 12L14 13L13 13L13 14L12 14L12 13L11 13L11 12L10 12L10 13L11 13L11 14L9 14L9 15L11 15L11 16L7 16L7 15L6 15L6 14L8 14L8 13L9 13L9 10L7 10L7 9L6 9L6 10L5 10L5 13L4 13L4 14L5 14L5 15L6 15L6 16L5 16L5 17L6 17L6 18L9 18L9 17L10 17L10 18L13 18L13 17L12 17L12 15L13 15L13 16L14 16L14 17L15 17L15 18L14 18L14 19L12 19L12 21L13 21L13 20L14 20L14 21L15 21L15 22L16 22L16 24L18 24L18 22L19 22L19 25L22 25L22 28L23 28L23 30L22 30L22 32L25 32L25 31L26 31L26 30L27 30L27 31L28 31L28 32L29 32L29 30L27 30L27 29L26 29L26 30L24 30L24 27L23 27L23 26L24 26L24 22L23 22L23 21L25 21L25 22L26 22L26 21L27 21L27 23L25 23L25 24L27 24L27 23L29 23L29 22L31 22L31 20L29 20L29 19L30 19L30 18L29 18L29 17L31 17L31 18L32 18L32 17L31 17L31 16L29 16L29 17L27 17L27 18L28 18L28 19L27 19L27 20L26 20L26 21L25 21L25 20L24 20L24 19L25 19L25 18L26 18L26 17L25 17L25 18L23 18L23 17L22 17L22 19L23 19L23 21L21 21L21 18L19 18L19 17L20 17L20 15L22 15L22 14L19 14L19 17L15 17L15 15L14 15L14 13L15 13L15 14L16 14L16 16L18 16L18 13L15 13L15 12L18 12L18 11L19 11L19 13L21 13L21 11L20 11L20 10L17 10L17 8L18 8L18 9L19 9L19 7L20 7L20 6L21 6L21 7L22 7L22 8L24 8L24 9L25 9L25 8L24 8L24 5L19 5L19 7L18 7L18 4L15 4L15 1ZM10 3L10 4L11 4L11 3ZM8 5L8 7L9 7L9 5ZM15 5L15 6L14 6L14 7L15 7L15 9L16 9L16 7L17 7L17 6L16 6L16 5ZM15 6L15 7L16 7L16 6ZM22 6L22 7L23 7L23 6ZM20 8L20 9L21 9L21 8ZM29 8L29 9L30 9L30 8ZM31 8L31 9L32 9L32 10L30 10L30 12L32 12L32 10L33 10L33 9L32 9L32 8ZM1 9L1 11L2 11L2 12L1 12L1 13L2 13L2 12L3 12L3 11L4 11L4 10L3 10L3 11L2 11L2 9ZM6 10L6 11L7 11L7 12L6 12L6 13L5 13L5 14L6 14L6 13L7 13L7 12L8 12L8 11L7 11L7 10ZM26 13L26 14L27 14L27 13ZM23 14L23 15L24 15L24 14ZM6 16L6 17L7 17L7 16ZM15 18L15 20L17 20L17 21L19 21L19 22L20 22L20 23L21 23L21 24L22 24L22 23L23 23L23 22L22 22L22 23L21 23L21 22L20 22L20 21L19 21L19 18ZM6 19L6 20L7 20L7 19ZM8 19L8 20L10 20L10 21L11 21L11 19ZM17 19L17 20L18 20L18 19ZM27 20L27 21L29 21L29 20ZM25 25L25 28L28 28L28 25ZM19 26L19 29L21 29L21 28L20 28L20 27L21 27L21 26ZM26 26L26 27L27 27L27 26ZM29 26L29 27L31 27L31 26ZM14 31L14 32L15 32L15 31ZM17 31L17 32L18 32L18 31ZM0 0L0 7L7 7L7 0ZM1 1L1 6L6 6L6 1ZM2 2L2 5L5 5L5 2ZM26 0L26 7L33 7L33 0ZM27 1L27 6L32 6L32 1ZM28 2L28 5L31 5L31 2ZM0 26L0 33L7 33L7 26ZM1 27L1 32L6 32L6 27ZM2 28L2 31L5 31L5 28Z" fill="#000000"/></g></g></svg>
